<?xml version="1.0" encoding="UTF-8"?>
<svg id="Layer_1" data-name="Layer 1" xmlns="http://www.w3.org/2000/svg" viewBox="0 0 543.57 296.37">
  <defs>
    <style>
      .cls-1 {
        fill: none;
        stroke: #000;
        stroke-miterlimit: 10;
        stroke-width: .1px;
      }
    </style>
  </defs>
  <path id="US-AL" class="cls-1" d="M368.04,183.21l.25,1.46.25,1.46.25,1.46.25,1.45.25,1.45.25,1.45.25,1.45.25,1.45.25,1.44.25,1.44.25,1.44.25,1.44.25,1.43.25,1.43.25,1.43.25,1.43.23.65.19,1.05,1.33,3.09.39,1.3-.11.54.17.46.44.38-.08.44-.6.5-.39.6-.28,1.07h0l-.56,1.88v1.14s.53,1.56.53,1.56h0l.11.69-.36,3.04.24,1.95.57,1.27h-3.04s-3.04.01-3.04.01h-18.24l-.13.78.06.75.33.71,1.36,1.35.13.33-.24,1.04.04.74-.15.38-.33.34-.09.37-.22.1-1.03,1.12-3.61.37.2-.25.76-.05,1.07-.36-.22-.6-.41-.66-.38-.07-.25-.39v-1.22s-.23-.71-.23-.71l-.59-.73-.2.14-.43,1.25-.36,1.64-.18.53-1.07.04-.95-.11-.47.03-.12-2.24-.1-2.04-.1-2.05-.1-2.05-.1-2.06-.1-2.06-.1-2.07-.1-2.07.23-2.04.23-2.04.23-2.05.23-2.05.23-2.06.23-2.06.23-2.07.23-2.07.23-2.07.23-2.08.23-2.08.23-2.09.23-2.09.23-2.1.23-2.1.23-2.11.06-.54v-.18s.04-.27.04-.27l-.83-.75-.16-.15-.12-.14h.12s1.51.01,1.51.01l1.51.02,1.51.02,1.51.02,1.51.02,1.51.02,1.51.02,1.51.02,1.51.02,1.51.02,1.51.02,1.51.02,1.51.02,1.51.02,1.51.02,1.47-.05h0ZM345,236.06l-.83.23-1.23-.02-.25-.08.49-.16,1.46-.21.36.24h0Z"/>
  <path id="US-AR" class="cls-1" d="M329.62,171.69l-.04.21.19.46v.26l-.14.16-.32.1-.24.11-.05.2v.09s.01.22.01.22l.04.19-.15.26-1.09.64-.46.82.16,1.01-.38,1.02-.93,1.03-.39,1.14.14,1.27-.47,1.03-1.07.78-.35.48v.39l.11.28-.36.53-.9.54-.49.53-.07.52-.21.25-.39.11-.23.76-.2,1.8-.48,1.02-.78.25-.41.4-.06.55-.46.63-.87.72-.29.68.3.65-.06.26-.27.21-.94.31-.16.15-.09.17.19.33.11.49-.14.83-.23.35-.22.33-.78.59-.22.45.35.31-.03.35-.39.37.11.41.09.28.37.25.12.69-.26.89.05.73.44.6.09.26-.43,1.98.03.28h-3.54s-1.69.01-1.69.01h-5.08s-1.69.01-1.69.01h-5.07s-1.69.01-1.69.01h-5.08s-1.69.01-1.69.01h-1.69v-1.52s-.03-1.52-.03-1.52v-1.52s-.03-1.52-.03-1.52l-.48-.26-.87-.13-.45.09-.53-.07-.35.25-.24.05-.19-.06-.11-.22-.4-.16-.49-.55.03-1.22.02-1.23.03-1.22.03-1.23.02-1.23.03-1.23.03-1.24.02-1.23.03-1.24.03-1.24.02-1.24.03-1.24.03-1.24.02-1.25.03-1.25.02-1.24-.21-1.61-.21-1.6-.21-1.61-.21-1.61-.21-1.61-.21-1.62-.21-1.61-.21-1.63h41.95l.41.92.41.59.07.43-.08.44-.69.94-.63.44-.35.47-.47.44-.74,1.24,1.55-.03,1.55-.02,1.55-.03,1.72-.02Z"/>
  <path id="US-AZ" class="cls-1" d="M147.55,160.03v8.29s-.01,4.11-.01,4.11v51.9h-5.47s-3.33.02-3.33.02h-3.32s-3.33.01-3.33.01h-3.33s-4.46-1.61-4.46-1.61l-4.47-1.63-4.46-1.63-4.46-1.63-4.47-1.64-4.46-1.64-4.47-1.64-4.46-1.64.45-.63.59-1.67.04-.1h0l1.31-.12.62-.42.36-.77.08-.79-.2-.79-.57-.6-.91-.39-.53-1.09-.14-1.81.16-.98.48-.14.46-.44.43-.74.33-.81.21-.88.04-1.11-.13-1.35.85-1.66.84-1.03,1.56-1.26.36-.38v-.34l-.32-.44-1.4-.88-.6-.63-.05-.58h-.02s-.18-.57-.18-.57l-1.5-2.34-.5-1.28v-1.04l.18-4.07-.54-1.41-.13-.8.16-.98-.04-.62-.26-.53-.06-.97-.03-1.2-.43-.77-.08-.34.24-.83.44-.43.72-.3.82-.1.93.09.71.38.47.65.46.33h.46s.6-.52.6-.52l.54-1.15.18-.07.02-5.02v-4.58h11.76s2.94.01,2.94.01h8.81s2.94.01,2.94.01h11.75s2.94.01,2.94.01h5.88Z"/>
  <path id="US-CA" class="cls-1" d="M44.43,99.24v37.02l2.21,1.97,2.21,1.97,2.2,1.96,2.21,1.96,2.2,1.95,2.21,1.95,2.21,1.94,2.2,1.94,1.73,1.63,1.73,1.63,1.73,1.63,1.73,1.62,1.73,1.62,1.73,1.62,1.73,1.61,1.73,1.61,2.39,2.31,2.39,2.3,2.39,2.3,2.39,2.29,2.39,2.29,2.39,2.28,2.39,2.28,2.56,2.42v.96l.5,1.29,1.5,2.33.18.56h.02s.06.59.06.59l.59.63,1.4.88.32.43v.35s-.37.38-.37.38l-1.56,1.26-.84,1.03-.85,1.66.13,1.35-.04,1.11-.21.88-.32.81-.44.74-.46.44-.48.14-.17.98.14,1.8.53,1.1.92.39.56.59.21.8-.08.78-.37.77-.62.42-1.31.11h0l-.04.1-1.08.12-2.69.24-2.69.24-2.69.24-2.69.24-2.69.24-2.69.24-2.69.24-2.69.24-.02-.07-.06-1.22-.44-.43-.56.27-.26-1.58.14-.75-.07-.73-.53-1.8-1.4-2.19-3.02-2.73-1.54-.91-1.21-1.16-.77-.32-.96-.09-.28.52-1.09-.36.16-1.29-1.07-1.8-.87-.2-2.19.12-2.93-.99-.87-.59-.3-1.06-1.38-.92-1.81-.9-1.01.21-1.32-.14-1.88-.65-1.1-.08-2.14.19-.8-.14-.74-.82-.8-.41.17-1.01-.1-.92.12-.71-.36-1.57.28-1.46-.24-.53-.45-.4-1.42-.6-.26-.75.23-1.04-.37-.69-1.16-.64-1.08-1.46-1.37-.8-.56-1.34-.85-.83-.29-.74-1.88-2.63-2.01-2.06-.31-1.19-.08-1.63.79-.99.42-.88-.04-.8-.12-.59-.69-1.03-2.67-.61-2.17-2.54-.13-1.95-.85-2v-1.3s-.14-1.41-.14-1.41l.65-.31.58.11-.06.56.19,1.01.68.76.65.33.59.74.44.22.46.05-.25-.47-.26-.3-.32-.98-.6-1.25-.69-.69-.35-1.26-.3-.29-.19-.47.67-.56.92-.4,1.23-.11,3.48.18.74-.32.61.11.45-.04-.94-.33-.53.11-.63-.07-1.24.07-.5-.14-.56-.4-.36-.04-1.15.69-.51-.08-1.21-.75-.53-.11-.85.43-.1,1.85.26,1.37-.51.14-.59-.57-.91-.34-.75-.51-1.06-.96-.56-.35-.63.8-.02-.37.31-.92-.09-1.55.95,1.24-.29-.87-.74-.96-.56-.33-.71-1.72-1.59-1.04-1.27-1.68-2.6-2.79-.17-2.46-.95-3.12.4-1.78-.05-1.26-.47-1.91-.49-1.04-2.11-2.86-2.03-1.93-.31-1.46-.14-1.48.44-1.32.38-1.39.28-.37.11.15-.08.3.29.09.11-.61.17-.32-.3-.04.03-.19.18-.39.63-1.83-.06-2.31.67-2.85-.03-.94-.43-2.03-.43-1.22-.77-.87.34-1.27-.03-1.21-.16-.2h39.76ZM45.54,193.69l1.92.58,1.03-.28.19.28-.12.24-2.33.44-.71-.31-.06-.42-.24-.4.32-.13ZM41.55,194.31l-.5.03-.77-.12.27-.26.43-.19.14.14.43.4h0ZM44.03,195.5l-.66.16-.5-.15-.8-1.08,1.7-.14.73.47.1.13-.57.61h0ZM59.99,201.5l.48.83-.68-.1-.72.05-.22-.45-.21-.63-.14-.16-.49-.06-.04-.06-.06-.3.14-.15,1.54.7.4.33h0ZM49.73,203.39l-.42.02-.58-.1-.3-.6.47-.04.44.08.35.47.04.17h0ZM59.96,207.75l-.55.1-.61-.23-.52-1.08-.58-.84.31-.24.47.81,1.17,1.23.31.25h0Z"/>
  <path id="US-CO" class="cls-1" d="M213.65,124.08v2.3s.01,2.28.01,2.28v2.28s.02,2.28.02,2.28v4.52s.02,2.26.02,2.26v4.49s.02,2.24.02,2.24v2.23s.01,2.23.01,2.23v2.22s.02,2.21.02,2.21v4.41s-2.32,0-2.32,0h-63.88v-48.27h66.09v1.55s.01,1.55.01,1.55v9.22Z"/>
  <path id="US-CT" class="cls-1" d="M498.16,99.09v.68s.01.95.01.95v.69s.02.94.02.94v2.07s.02.86.02.86l-.03.51-.05.78-.24.3-.12.72-.82-.07-1.36.18-1.8.43-1-.25-1.02.45-3.46.13-.73-.24-.93.85-1.49.51-3.78,1.91-.44.38-.49-.78-.38-.62.76-.49.58-.37.55-.34.36-.23-.29-.48-.28-.48.07-1.19.08-1.18.07-1.19.08-1.19.07-1.2.08-1.19.07-1.2.08-1.2.79.04.79.03.79.03.8.04.79.03.79.04.79.03.79.03v.33s.42-.04.42-.04l.05-.29,1.13.02,1.12.02,1.13.02,1.12.02h1.13s1.12.03,1.12.03l1.13.02,1.12.02v.13Z"/>
  <path id="US-DC" class="cls-1" d="M448.93,137.58l-.21-.31-.46-.25-.19-.09.75-.82.5.71.55.78-.84.98-.1-1Z"/>
  <path id="US-DE" class="cls-1" d="M464.08,126.35l-.41.43-.35.77-.81.93.06.63.14.44-.07.93.51.9,1.01,1.47.19,2.28.77,1.52,1.18,1.78.91.5.04.66-.41,1.08-.56.5.72-.1.36.25.35.9-.02.57h-1.01s-2.08.01-2.08.01h-3.21l-.09-1.9-.09-1.9-.09-1.91-.1-1.91-.09-1.92-.09-1.92-.09-1.92-.09-1.93.71-.98.3-.3.4-.15,1.17-.05.84.34Z"/>
  <path id="US-FL" class="cls-1" d="M406.82,230.85l.44.99.67,4.03.46,1.4.83,3.76,1.36,3.63,1.93,4.37,3.16,5.27.38.75-.41.63-.13.66-.04.99.11.96.37,1.18.72,1.8-.4-.36-1.04-2.58-.12-1.52.15-2.16-.24.05-.2.7-.11.82-.26.32-.36-1.26.03-.57.38-.66-.11-.24-.62-.34-.13-.54.08-.53-.35-.28h-.28s.19,1.31.19,1.31l.29.8.36,1.91.59,1.16.34.97,3.99,10.3.94,1.31.35.94.36,1.96.08,2.51-.65,4.57-.15,3.1-.09-.09-.06-.33-.15-.04-.57,1.42-.77,1.28-.25,1.99-.37.99-1.11,1.05-.69-.03-1.68.79-1.18-.21-1.41.44-.93-.05-.54-.94.08-.42.21-.42.36-.1,1.25.98.23-.41-.38-.49-.72-.27-.53-.3-1.07-2.24-1.11-1.54-.19-1.03-1.91-.63-1.39-.95-.9-1.7-.52-3.02-.61-.34-.26-.24.6-1.12.63-.94-.5.23-.37.35-.47.83-.34.13-.31-.13-.36-1.59.1-1.96.51-.74-.78-.02-.8.28.12.66-.11.36-.59-.09-.44-.23-.6-.68-.82-1.3-1.69-3.59-.33-.51-.56-.53.26-.17.48-.1,1.08-1.62.85-.98.28-.68-.05-.29-.38-.42-.49.37-.21-.11-.56-.85-.53-.24-.37.19.39.7.35.26-.14,1.02-.14.33-.33.29-.51-.16-.26.25-.31-.26-.3-.45-.34-.74.89-4.15.83-2.65.09-3.03.06-.45-.07-.81-1.11-1.76-4.91-4.3-3.8-5.11-3.29-1.92-2.5.42-.43.39-.19.51.16.57-.23.24-.67-.03-.9.13-2.36,1.35-.83-.05-.76.35-.57.26-1.48.14-1.25.3-.54-.16-.35-.78v-.81l.29.62.44.48.2-.19.08-.43-.44-.84-1.42-1.08-1.61-1.58.49.05.12-.34-.5-.44.21-.51.35-.54-.68.08-.61.38-.02.47-.12.37-.33-.05-.61-.46-3.01-1.28-2.63-.72,2.02-.33,1.09.25-.13-.39-.26-.25-.86-.31-1.1.12-.69-.15-.71.31-.78.46-.69.24-2.71.33-2.2.36.35-.38.38-.24,1.3-.37.19-.77-.31-.74-.34.18-.36.58-.44-.42h-.49l-.13.93-.63.62-.28.62-1.83.49-.24-.16.54-.59-.04-.33-.39.18.09-.37.33-.34.15-.38-.04-.74.24-1.04-.13-.33-1.36-1.35-.33-.71-.06-.75.13-.78h24.32s.39.85.39.85l.75,1.78.03.42.88.06,1.5.1,1.5.1,1.5.1,1.5.1,1.5.1,1.5.1,1.5.1,1.5.1,1.5.1,1.5.1,1.5.1,1.5.1,1.5.1,1.5.1,1.5.1,1.5.1v.36s.26.56.26.56l.06.64.11.31.3.19.47.05.48-.36.3-.79.08-.89-.18-1.02.03-.86.24-.5.28-.12.24-.27.2-.06.52.14,1.95.72,1.66.09h0ZM374.78,242.65l-.95.39-1.02-.28.63-.05.46.11,1.16-.56.61-.42.71-.16-1.6.97ZM419.22,267.83l.15.78-.87-1.8-1.07-2.83-.57-2.19.39.59.38,1.23,1.59,4.22h0ZM401.36,275.46v.61s-.48-1.03-.48-1.03l-.32-1.14.45.37.35,1.19h0ZM401.8,276.49l-.34.27-.68-.2-.37-.36-.16-.7.59.74.21.17.75.08h0ZM417.38,290.13l-1.87,1.94.21-.49.73-1.04.24-.49.49-.31.46-.56.03-.66.67-.46.22-.07-1.18,2.14h0ZM414.97,292.6l-.25.05.37-.44.1.03-.22.36ZM413.17,293.63h-.18l.09-.15.37-.29.13.11-.02.15-.39.18ZM411.15,294.52l-.43.24-.45-.18.49-.24,1.46-.26-.55.33-.52.11ZM408.41,295.2l-.28.21-.13-.07v-.31l-.4-.68v-.18s.93.67.93.67l.02.18-.14.18h0ZM406.23,295.73l-.61.1.49-.41.16-.62.29.48v.29s-.33.16-.33.16h0ZM404.19,296.3l-.24.02-.02-.16.41-.19h.27s-.01.22-.01.22l-.41.11h0Z"/>
  <path id="US-GA" class="cls-1" d="M412.77,216.61l-.48.93-1.15.58-.35-.02-.29.17.17.42.29.3v.28s-.31.38-.31.38l-.6.11-.34.44.11.41.2.23-.04.39-.68.4-.16.39.34.11.26-.11.19.08-.41.65-.37.4-.35.71-.81.2.03.23.46.2.38.55-.72,1.01-.45-.08-.27-.22-.17.8.07.42-.17.87-.28,1.04-.19.43.04.79.12.77-1.59-.1-1.95-.72-.52-.14-.2.06-.24.27-.28.12-.24.5-.03.86.18,1.02-.08.89-.3.79-.48.36-.47-.05-.3-.19-.11-.31-.06-.64-.25-.56v-.36s-1.51-.1-1.51-.1l-1.5-.1-1.5-.1-1.5-.1-1.5-.1-1.5-.1-1.5-.1-1.5-.1-1.5-.1-1.5-.1-1.5-.1-1.5-.1-1.5-.1-1.5-.1-1.5-.1-1.5-.1-.88-.06-.03-.42-.75-1.78-.39-.86-.57-1.27-.24-1.95.36-3.04-.11-.69h0l-.54-1.56v-1.14s.57-1.88.57-1.88h0l.28-1.07.39-.6.6-.5.08-.44-.44-.38-.17-.46.11-.54-.39-1.3-1.33-3.09-.19-1.05-.23-.65-.25-1.43-.25-1.43-.25-1.43-.25-1.43-.25-1.44-.25-1.44-.25-1.44-.25-1.44-.25-1.45-.25-1.45-.25-1.45-.25-1.45-.25-1.45-.25-1.46-.25-1.46-.25-1.46,3.06.04,3.06.04,3.06.04,3.06.04,2.85-.04,2.85-.04,2.85-.04,2.85-.04h-.06s-.46.78-.46.78l-1.38,1.45-.37,1.11,1.78,1.24h.01s1.06,1.01,1.06,1.01l.73.39.74.12.46.33.27.8h0l2.16,3.95h0l2.24,2.03.9,1,.45.96,1.91,1.58.65.85.03.64.23.46.42.27.4.58.39.88.76.77,1.14.65.83,1.49.53,2.31.54,1.34.82.56,1.12,1.97.36,1.17-.02,1.03.57.8,1.88.86h0ZM407.62,228.23l-.42,2.66-.18-.94-.02-.91.32-.54.3-.27Z"/>
  <path id="US-IA" class="cls-1" d="M320.72,92.74l.57.87.99.78.56.73.14.68.6.73,1.07.77.62.68.17.59-.03.91-.23,1.23-.39.89-.55.54-.4.76-.27.98-.84.89-1.41.83-1.58.56-1.73.3-1.03.71-.32,1.11.14.92.62.75.35.79.09.83-.43,1.38-.96,1.92-1.07,1.24-1.16.56-.52.83.13,1.1-.1.62-.48.22-.83-.65-.15-.46-.67-.46-.1-.29-.51-.26-.47-.9-2.37.02h-2.38s-2.37.03-2.37.03l-2.38.02-2.37.02h-2.38s-2.37.03-2.37.03l-2.37.02-2.38.02-2.37.02h-2.38s-2.37.03-2.37.03l-2.38.02-2.37.02-2.38.02h-2.35s-.57-.91-.57-.91l-.31-.85.19-.41.04-1.38-.11-2.37-.23-1.34-.34-.3-.04-.42.26-.52-.08-.36-.42-.19-.13-.45.16-.73-.1-.44-.36-.16-.14-.25.06-.34-.2-.21-.44-.1-.18-.82.08-1.55-.16-1.09-.42-.65-.22-.6v-.57l-.44-.89-.89-1.22-.57-1.62-.26-2-.63-1.12-.29-.06-.24-1.05-.25-.47-.05-.36-.78-.91-.05-.35.1-.44.51-.86.46-1.41.1-.95.38-.72v-.39s-.06-.52-.06-.52l-.2-.46-.62-.33-.07-.15-.06-.52.25-.33.08-.37-.07-.46-.37-.79-.16-.81,1.36-.05h15.31s3.06-.01,3.06-.01h30.66s.07.8.07.8l.18.58.38.47.58.35.09.69-.38,1.01-.13,1.25.12,1.49.29,1.34.45,1.19,1.04.87,1.61.56.95.84.28,1.15.07.09Z"/>
  <path id="US-ID" class="cls-1" d="M128.67,67.06v4.09s.01,2.04.01,2.04v26.04h-49.16s-3.5.01-3.5.01h-3.5v-5.66s-.01-2.84-.01-2.84v-2.85s-.01-2.86-.01-2.86v-5.76s-.01-3.18-.01-3.18v-.07s.59-1.96.59-1.96l.12-.96-.15-.54.1-.52.36-.5v-.56s-.39-.59-.39-.59l-.72-.4-1.04-.19-.54-.71-.04-1.21.78-1.87,1.6-2.53.87-1.79.16-1.06.96-2.44,1.77-3.84.68-2.47-.41-1.08-.91-1.04-1.39-.99-.98-1.16-.26-.59-.32-.73-.16-.92.24-.53-.2-.93-.63-1.33-.27-.9.06-.32.07-.13v-2.18s-.01-2.2-.01-2.2v-2.2s-.02-2.2-.02-2.2v-2.21s-.02-2.22-.02-2.22v-4.46s-.02-2.24-.02-2.24v-2.24s-.01-2.26-.01-2.26v-2.26s-.02-2.27-.02-2.27v-2.27s-.01-2.28-.01-2.28l-.02-2.28h9.32v14l1.01,1.41.75.86.48.93.73.97.14.35.26,1.04-.19.75.39.77-.07.37-.29.2-.06.06v.08s.11.12.11.12l1.03.73,1.01,1.02,1.28.7.41.41,1.69,2.02.88,1.29.92.94.46,1.07.95.93.24.48.06.1h.13s.59-.21.59-.21l.15.06.29.37.06.56.21.24.37.13.42.04,1.29-.27h.28l.14.11.06.3-.02.49-.13.7-.39.69.07.64-.31,1.48-.29,1-.03.96-.36.56.2.66-.14,1,.13.26.46.46.18,1.23-.08.23-.82.48-.28.31-.11.45.36,1.29-.35.71-.04.61.08.16.76.33.92.72.29.16.21-.03.39-.24.43-.49.88-.5,1.04-1.06.05-.3.08-.16h.14l.33.15.65.64.57.36.1.08.05.18-.03.64.32.5.09.82.33.83.23.99.85,1.28.46.91.51.42.31.48.22.58.09.47-.3.85.08.35.27.38.88.88.17.07.82-.09.44.14.44.44.44.66.29.67.08.79.45.87.06.77.28.34.56.46.54.28.21.02.15-.12.05-.43.21-.32.67-.46h.64s2.41.39,2.41.39l.16-.02.11-.13.41-.7.33-.28.51-.09,1.48.18,1.71-.1.89.2,1.3-.26,1.5.19.2-.11.04-.15-.13-.26-.02-.52.3-.62.1-.53.31-.3.4-.16.33.02.32.28.36.47.64,1.28.34.46.41.4.62.35Z"/>
  <path id="US-IL" class="cls-1" d="M347.44,92.95v1.98s.14,1.64.14,1.64l.28.73.33.54.35.34.41,1.06.46,1.78.43,1.17.34.48-.02,3.35v3.74s-.02,3.73-.02,3.73l-.02,3.7v3.7s-.02,3.67-.02,3.67l-.02,3.66v3.44s-.01.06-.01.06l-.44.37-.3.64.08.69-.12.49-.3.3.15.75.59,1.2.36,1.19.12,1.17-.11.83-.51.76-.49,1.64-.42.65-.52.22-.46.61-.4,1-.43.48-.46-.03-.34.19-.22.39.03.41.27.44-.09.4-.45.37v.18s.15.11.15.11l-.05.17-.29.18-.17.55.02.91-.16.46-.3.02-.04.25.5,1.03-.29.21-.52.85-.11.93.31,1.02-.78.83-1.88.62-.99.56-.11.48.13.73.37.98.07.68-.24.38-1.34-.26-2.44-.89-1.63.03-.83.95-.29.72.1.58-.66-.71-.45-.32-.08.02-.1.09-.04.22.03.16.06.18-.03.11h-.11s-.48-.26-.48-.26l-.58-.79-.69-1.3-.15-1.03.39-.77v-.8l-.39-.85-.19-.83v-.81l-.94-1.22-1.88-1.62-1.38-1.01-.89-.38-1.03-.81-1.18-1.25-.63-.96-.08-.66.54-1.77,1.56-3.88.18-.45.05-.17-.07-.17-.15-.16-.66-.46-1.26-.39-1.17-.21-.93.46-.81-.94-.7-2.35-1.71-2.48-2.74-2.62-1.59-1.79-.44-.94-.39-1.42-.32-1.9v-1.57s.56-1.89.56-1.89l.48-.22.1-.62-.13-1.1.52-.83,1.16-.56,1.07-1.24.96-1.92.43-1.38-.09-.83-.35-.79-.62-.75-.14-.92.32-1.11,1.03-.71,1.73-.3,1.58-.56,1.41-.83.84-.89.27-.98.4-.76.55-.54.39-.89.23-1.23.03-.91-.17-.59-.62-.68-1.07-.77-.6-.73-.14-.68-.56-.73-.99-.78-.57-.87,4.32.04,4.24.03,4.24.03,4.24.03,4.24.04,4.24.03h1.2Z"/>
  <path id="US-IN" class="cls-1" d="M375.83,103l-.03,4.08-.04,4.06-.03,4.03-.03,4.02-.03,4-.03,3.97-.04,3.96v4.02s-.16.11-.16.11l-.22.52.24.53v.43s-.27.33-.27.33l.09.24.44.16.17.38-.1.59-.95.59-1.81.68-.4.19-.32.09-.15-.04h0l-.24-.13-.33-.27-.57-.13-.93.09-.37.56.19,1.04-.32.8-.82.55-.59.73-.35.91-.57.55-.77.19-.63.84-.48,1.48-.52.91-.56.36-.78-.09-.98-.54-.56-.54-.15-.57-.29-.4-.27-.18h-.18v.08s.07.16.07.16l-.1.17-.61.06-.26.23.09.41-.14.28-.35.17-.19.39-.02.61-.25.56-.47.5-.7-.17-.91-.84-.93-.2-.95.46-.7.61-.47.77-.44.19-.65-.59-1.53-.81-.8-.17-.58.19-.4-.09-.14-.22-.11-.09-.11.11v.71s-.15.44-.15.44l-.26.19-.2-.15-.14-.48-.33-.16-.52.17-.53-.07-.46-.29-.17.03-.13.14.04.55-.1.44-.24.29-.34.07-.45-.15-.19.14-.5-1.03.04-.25.3-.02.16-.46-.02-.91.17-.55.29-.18.05-.17-.14-.11v-.18s.44-.37.44-.37l.09-.4-.27-.44-.03-.41.22-.39.34-.19.46.03.43-.48.4-1,.46-.61.52-.22.42-.65.49-1.64.51-.76.11-.83-.12-1.17-.36-1.19-.59-1.2-.15-.75.3-.3.12-.49-.08-.69.3-.64.44-.37v-3.5s.03-3.66.03-3.66v-3.67s.02-3.7.02-3.7l.02-3.7v-3.73s.02-3.74.02-3.74l.02-3.35.06.09.35.32.28.18.21.03.12.28.53.16.97.07.89-.11.81-.29,1.98-1.14h8.03s2.86.01,2.86.01h8.56v.73Z"/>
  <path id="US-KS" class="cls-1" d="M283.37,160.03h-69.61v-2.2s-.01-2.21-.01-2.21v-2.21s-.02-2.22-.02-2.22v-4.46s-.02-2.24-.02-2.24v-2.24s-.01-2.25-.01-2.25v-2.26s-.02-2.26-.02-2.26v-4.54s-.02-2.28-.02-2.28v-4.58s1.96,0,1.96,0h60.89l2.17,1.58.57.02.67-.25.51.36.35.98-.05.49-.44.02-.56.59-.66,1.14.16,1.08.99,1,.66,1.01.33,1.02.66.79,1.46.84-.02.46v3.14s.01,1.57.01,1.57v3.13s.01,1.55.01,1.55v1.56s.01,1.55.01,1.55v3.1s.01,1.54.01,1.54v1.54s.01,1.54.01,1.54v3.07s.01,1.53.01,1.53Z"/>
  <path id="US-KY" class="cls-1" d="M396.38,142.88l.22.33.1,1.77-.07.35-.32.72.02.38.27.6,1,1.38.1.54.39.53.34.78,1.07,1.67,1.66,1.38,1.3.37-3.56,2.87-1.63,1.04-1.55.83-.13.14-.35.92-.94.81-.59.85-1.41.71-1,.97-2.51.95-1.41.33-.95.56-.07.03-.07.03-.07.03-.07.03-.07.03-.07.03-.07.03-.07.03-3.27-.11-3.27-.11-3.27-.11-3.27-.11-3.27-.11-3.27-.11-3.27-.11-3.27-.11-3.13.06-3.13.06-3.13.06-3.13.06-.28-.36-.82-.08-1.27-.13h-.05l.37,1.2v1.04s-.02.01-.02.01h-13.12l.5-1.02.43-.27.2-.05.47.19.23.07.5-.36.44-1.05.25-1.12.07-1.18-.3-.94-.1-.58.29-.72.83-.95,1.63-.03,2.44.89,1.34.26.24-.38-.07-.68-.37-.98-.13-.73.11-.48.99-.55,1.87-.63.78-.82-.31-1.02.11-.93.52-.85.29-.21.19-.14.44.15.34-.07.24-.28.1-.44-.04-.56.13-.13.17-.03.46.29.52.07.52-.17.33.16.14.49.2.15.26-.19.14-.45v-.71s.12-.11.12-.11l.11.09.14.22.4.09.58-.2.8.17,1.54.82.64.59.45-.19.46-.77.71-.61.94-.45.93.19.92.84.7.17.48-.5.25-.55.02-.61.19-.39.35-.17.13-.29-.08-.41.26-.23.61-.06.1-.17-.07-.16v-.08h.19l.26.18.29.4.15.56.57.55.98.53.77.09.57-.35.52-.92.48-1.48.63-.84.77-.19.56-.55.35-.91.59-.73.83-.55.32-.8-.19-1.04.37-.56.93-.09.57.12.33.28.24.13h0l.15.04.32-.08.39-.2,1.81-.67.95-.6.1-.59-.17-.38-.44-.16-.09-.25.26-.33v-.43s-.23-.53-.23-.53l.22-.52.15-.11.53-.4.55-.05.44.42.62.1.81-.21.74.14.68.5.64.91.59,1.32,1.07.8,1.55.29,1.13.52.71.74.59.24.69-.4.73-.21.73.25.98.63,1.45-.14,1.91-.9,1.13.04.34.99.81,1.04,1.29,1.08.1-.03h0ZM331.67,165.86l-.66.02-.03-.14.04-.32.05-.14.13-.03h.15l.21.3.11.31h0Z"/>
  <path id="US-LA" class="cls-1" d="M331.35,236.7l-.64.29-3.44-1.11-.86-.9-.76-.19-.93-.11-1,1.1-.76,1.49,1.21.81,1.03.39,1.71-.33.94-.72.77.02.37-.15.34-.38.66.3.02.3-.47.42-.59.35-.36.42.67.84,1.06.28.4-.12.25-.94.65-.61.88.13-.13.38.12.36.41.61-.05.88.08.21-.95.39-.71.13-.57.51.3.29-.58.26-.39-.1-.2.1-.06.31-.3.29.43.87.89.57.63.71,2.52.93.61-.03.6.94.48.32.47.16-.05.65-.83.47-.22.56-.21.32-.37-.4-.38-.29-.89.88-.43.19.21-.95-.34-.37-.51-.96-.74-.59-.52-.2-.41-.38-.49-.15-.42.04-.71-.22-.05-.51-.2-.38-.55-.45-2.65-.85-.02.35.18.26.38.18.46.34v1.02l-.2.43-.08.61-.17.62-.33.49-.72.33-.32-.28-.52-1.34-.73-.42-1.16-.05-.79.3-.86,1.3-.69.21-2.37-.67-2.71-1.02.07-.34.43-.11.82.14-.04-.35-.83-1.15-.15-.52.11-.63h-.27s-.5.54-.5.54l-1.72-.45-.48-.54-1.01-1.52-1.43-.05-.67-.9-1.17.39-.59.43-.52.66.2.34.52.54-.24.26-1.66.39-3.86-.43-1.13-.41-1.52-.86-2.1-.7-1.01-.11-.99.14-2.88.07-.67.19-.57.3-.37-.33-.17-.59.33-.1.37-.34.34-.68.04-.41-.23-.27.63-1.08.15-.39-.1-1.84-.28-.67.04-.39.3-1.01-.05-.92.52-1.12.38-.58.43-1.19.1-.77.18-.58-.13-.63.3-.45-.2-.63-.06-.83-.37-.32-.65-1.24.02-.54-.68-1.16v-.4s-.66-.6-.66-.6l-.13-.39-.06-1.61-.18-.47-.56-.93-1.3-1.35v-11.25h27.2s.05.54.05.54l.45.33.03.59-.4.85v.59l.41.33-.02.35-.45.37-.07.4.32.43.14.5-.03.57.42.74.65.47.43.56.04.31.03.29-.09.41-.54.6-.41.44-.25.16-.13.3-.04.64-.6.83-1.22.96-.81,1.22-.4,1.47-.42.93-.44.4-.22.77v1.14l-.28.63-.56.12-.12.65.32,1.18-.14.49-.39.39-.04.3h2.25s2.26.01,2.26.01h13.56l-.28,1.26-.66,1.69-.03.44.17.55v.31l.25.46.54.46.48.69.42,1.24.11.57.35.79.18.15.26.09.29.04h0ZM334.15,237.88l.03.5-.46-.25-.68-.02.3-.17.21-.17.11-.18.86-.63-.25.46-.12.46h0ZM337.88,240.87l-.26.34.26-1.65-.37-1.39.39.61.13.72-.15,1.37h0ZM337.3,241.89l-.51.56.02-.21.38-.57.27-.22-.16.44h0ZM309.96,244.18l-.35.15-1.56-.93-.1-.4.77-.36.47.03.74.47.27.13.13.19-.07.3-.3.42h0Z"/>
  <path id="US-MA" class="cls-1" d="M507.52,88.1l-.22.66.27.66.18.67.43.66.37.06.4-.12.29.03.19.28-.08.34-.46.08-.85.59-.75.23-.37.71-.56.82-1.09,1.28.47.39,1.68.44.75.46,1.14,2.38-.26.24-.1.44,1.01.61.32,1.7.83.58,1.24.36,1.51-.51,1.26-.71-.04-.58-.79-1.35-.19-.64-.59-.41-.22.35-.38-.45-.04-.26.35-.12.41.05.48.24,1.23,1.48.34,1.93.07,1.23-.14.42-.36-.09-.69.08-3.25.63-.72.56-1.65.6-.1-.3.12-.63-.1-1.28-.33-.06-2.57,2.09-.99.13-.83.61-.19-.34-.15-1.56.52-1.31-.28.02-.52.47-.32-.56-.35-.3-.34-.29v-.47s.03-.71.03-.71l-.39-.14-.04-.87-.03-.57h-.71s-.58.02-.58.02l-.93.02h-.97s-.71.02-.71.02v-.14s-1.14-.02-1.14-.02l-1.13-.02-1.13-.02-1.13-.02-1.13-.02-1.12-.02-1.13-.02-1.13-.02-.05.29-.41.04v-.33s-.8-.03-.8-.03l-.79-.03-.79-.03-.79-.03-.79-.03-.79-.03-.79-.03-.79-.03-.25-.31.3-1.06.3-1.06.3-1.07.3-1.07.3-1.07.3-1.07.3-1.07.3-1.07.92.04.93.04.93.04.92.04.93.04.92.03.93.04.93.04,1.34.04,1.34.04,1.34.04,1.34.04,1.34.04,1.34.04,1.34.04,1.34.04.82-.35.97-1,.59-.22.96-.6.48-.13,1.07.07h0ZM510.31,107.08l-2.59.61-.41-.39.65-.18.82-.94.54-.11.85.53.14.48ZM515.32,108.46l-.73.2-1.68-.46,1.38-.39.23-.14.18-.57.02-.29.52,1.23.08.42h0Z"/>
  <path id="US-MD" class="cls-1" d="M460.66,127.49l.09,1.93.09,1.92.09,1.92.09,1.92.09,1.91.09,1.91.09,1.9.09,1.9h6.3s-.01.34-.01.34l-.12.52-.22.21v-.53s-.14-.18-.14-.18l-.25.23-.16.26-.07,1.03-.17.51-.62.15-.63,1.35-.58.76-.21.48-.88.12-1.42.19-.37.54-.71-.23-1.09.03.21-.73.32-.64-.57-.64-.34-.08-.35-.26.41-.53.2-.56-.12-.69.17-.52-.28.08-.46.55-.28.22-.17-.49-.2.11-.13.33-.29.18-.61-.46-.9-.52-.5-.9-.28-.7.29-1.26.62-.22.8.21h1.05l-.15-.28-.38.05-1.11-1.03-.36-.62-.62-.17-.28.6-.31.16.38-1.31.5-.05.74-.36-.22-.76-.47-.33-.85.42v-.53s.17-.68.17-.68h.64l.56.22.48-1.1.02-.49-.79.72-.18-1.55.78-1.49.74-.65.93.02.94-.11-.59-.27-.61-.15.46-.59.39-.11.38-.52-.92.08.11-.98-.45.2-.53.09-.21.42.04.69-.16.45-.42.36-.7.28-.07-.49-.23-.22-.09,1.05-.18.36-.51-.98-.15.2.02.28-.13.48-.44.25.03.62-.17.34-1.41-.54-.03.18.8,1.16.58.39.07.63-.5.52-.69-.45-.12.03.37.77.24.67-.24.57.04.69-.05.63-.15.55.33,2.53.4.68.4.66.21.61-.42.09-.67-.5-.59-.38-.7-1.23-.12-.49-.17-.39.08.89.25,1,2.2,2.22.41.85.31.67-.08.64-.57-.45-.49-.58-1.31-.65-1.65-.41-.93-1.52v.64l-.21.54-.57-.66-.36-.56-.12-.61-.71.04-.75.53-.72-.13-.08-1.04.19-.55.81-1.31.76-.67.34-.86-.11-1.34.1,1,.83-.98-.54-.77-.5-.72-.75.82-.64-.31-1.04-1.02-1.69-.72-.24-.36.03-.4.23-.55-.52-.54-1.27-.53-.54-.45-.12-.1-.05-.55-.17-.35-.28-.15-.05-.24.17-.33-.17-.35-.52-.38-.18-.33.16-.29-.26-.13-.68.02-.67-.27-.66-.57-.79-.1-1.36.57-.77.14-.34.32-.17.55-.33.28h-.75s-.12-.01-.12-.01l-.85-.18-.6-.34-.11-.14.07-.29-.11-.13-.18-.02-.17.17-.18.52-1.47,1.42-.71-.28h-.27s-2.05,2.01-2.05,2.01l-.62.32-1.21.9.02-1.55.02-1.55.03-1.56.02-1.56h34.76v-.09ZM465.92,147.75l-.25.03.25-.42.83-2,.37-.69-.36,1.4-.63,1.29-.21.39h0Z"/>
  <path id="US-ME" class="cls-1" d="M524.02,29.35l.05.29.43.51.62.35.47.12h.55s1.51-.7,1.51-.7l1.77-.45.97-.42.18-.39.44-.14.71.12,1.31.98,1.52,1.48,1.21,1.17.04,2.02.02,2.14.03,2.25.02,1.6.03,2.19.02,1.74.03,2.26.02,1.21.17.35-.1.47-.04.24v.19s.08.24.08.24v.33s-.16.3-.16.3l-.08.35-.02.57.17.35.28.21h.23l.3.21.39.36.59.31.61.11.42-.08.51.21.18.5-.1.47-.29.22-.31.17-.05.36.15.38.22.33.24.58-.1.5-.22.42-.1.44.19.38.5.5.31.48.49.27.23-.19.19-.25.2-.19.34.11.4.14.43.17-.05.41.26.68.21,1.31-.32.59.07.79.87.23.21.24.04.29-1.92,2.01-1.63-.28-.88.53-.92.16-.41.9-.51.19-.69-.05-.6-.25-.46.12-.64,1.61-.52-.14-.21.58-.27.25-.4.22-.35-.72-.22-.68-.33-.15-.43-.17h-.45s-.3.11-.3.11l-.37.44-.54.38-.41-.31-.32-.51-.27.81-.39.86.07,1-.17.59-.38-.16-.37-.52-1.05-.42-.83.04.17-.56.79-.8-.24-.16-.39.11-.17-.11.28-.73.03-.8-.35.28-.44.85-1.07.67.05,1.13-1.01,2.3-.05.98-.65.78-.84.67-1.12-.19-.85.58-.43.67-.38.1-.2-.85-.14-.26-.31,1.25-.32.08-.12-.89-.15-.59-.44.51-.29,1.34-.3-.11-.1-.5-.22-.15-.07.57.11.8-.16.43-.3-.23-.3-.38-.5.29-.46.12v-.39l.09-.48-.91.27-1.1.89-.85,1.23.29.2.33.39-1.48,1.89-1.52,1.7-1.15,2.76-.46.32-.4.5-.75-1.2-.15-.97-.85-1.15-.34-.79-.11-.89.05-.96-.07-1.44-.07-1.44-.07-1.44-.07-1.44-.07-1.45-.07-1.45-.07-1.45-.07-1.45-.07-1.46-.07-1.46-.07-1.46-.07-1.47-.07-1.47-.07-1.47-.07-1.47-.07-1.32.23-.2.57-.38.37.05.32.57.27.38.31-.11.27-.53v-.74s.35-.52.35-.52l.43-.08.4.02.2-.25-.02-.36-.14-.58.05-.7,1-1.24,1.22-.84.43-.42.12-.86.7-.89.35-.51.09-.45-.18-.55.02-1.05.24-1.25.29-1.37.65-1.23,1.06-1.35.27-1.78.29-1.88,1.28-1.84,1.45-2.09.83-1.19,1.49-2.17,1.06-1.55.53-.71.56-.85.91.25.9.25-.13,1.23v.57s0,0,0,0ZM532.18,69.24l-.55.26-.6-.11v.69s-.06.25-.06.25l-.67-.36-.24-.23.02-.92.59-.87.45-.34.58.24.44.97.04.42h0ZM528.07,71.03l-.36.26-.38-.08v-.65s.11-.22.11-.22l.13-.1.2.18.3.61Z"/>
  <path id="US-MI" class="cls-1" d="M336.68,20.56l-.05.23.34.07-.06.12-.37.21-1.05.43-.71.14-.36-.15-.04-.29.29-.42v-.21h-.29l.07-.17.43-.33,3.68-2.12,1.57-.77.84-.25.14.12-.91.8-.15.33.04.22-.3.42-2.69,1.48-.42.14h0ZM343.58,30.51l-.17.45.03.27-1.14,1.18-.42.75-.35.12-.28-.51v-.41l.28-.31.28-.44.04-.61-.11-.22-.35.55.19.12.06.09-.07.2-1.31-.29-.4-.43.06-.59.44-.76,1.58-1.61.7-.45,1.98-.71,1.09-.16h1.1l.79.23.49.47-.47.31-2.17.26-.06.08.41.25.08.18-.38.47-1.92,1.52h0ZM379.95,40.2l.29.18.2.3.49.84.24.57.15.84.1.28v.49s-.34.33-.34.33l-.09.26.2.26,1.11.07.51.26.19.29-.13.32.07.34.27.36.89.55.22.26-.06.28-.27.18-.47.08-3.41-.52-1-.08-.15.19-.1.03-.16-.05h-.29s-.15-.13-.15-.13l-.12-.34-.3-.22-.47-.1-.41.26-.47,1.02.07.19-.08.66.12.18v.15s-.14.12-.14.12l-.28-.02-.42-.16-1.6-1.55-1.21-.77-1.5-.57-1.19-.28h-.87s-.72.41-.72.41l-.56.78-.88.44-1.19.11-.65.21-.1.31h-.43s-.76-.29-.76-.29l-.78-.08-.81.13-.59.31-.63.96-.12.47-.45.41-1.2.64-.06.24-.63.73-.2.4v.39l-.21-.02-.43-.44-.02-.59.39-.75.35-.36.31.02.19-.33.07-.68-.11-.34-.6.13-.31.27-.4.06-.48-.16-.42.37-.37.9-.44.59-.51.28-.34-.31-.17-.89v-.7l.21-.85-.11-.17-.21.27-.32.71-.43,1.54-.28.5-.37.21-.59.93-.81,1.65-.91,1.6-1.01,1.54-.61.83-.2.12-.09.28-.03.64-.45-.18-.38-.52-.23-.54-.02-.55.55-1.37.05-.22-.06-.13-.3-.15-.68.25-.69.05-.22-.09-.09-.24v-.37s.15-.44.15-.44l.41-.81v-.77l.19-.44-.18-.82.05-.39-.29-.43-.78-.56-1.82-.75.19-.84-.08-.36-.45-.54-1.91-.63-1.3-.29h-1.29s-.92-.24-.92-.24l-1.04-.07-.66-.38-.66-.38-.66-.38-.66-.38-1.18-.33-1.18-.33-1.18-.33-1.18-.33-1.18-.33-1.18-.33-1.18-.33-1.18-.33-.26-.57-.26-.57-.26-.57-.26-.57-.54-.24-.29-.13-.21-.3-.48.13-.19-.5.05-.11.62-.13,1.77-.71,1.51-.87,1.25-1.03,1.56-.63,1.87-.23,1.33-.36.81-.5,1.08-.97.61-.28.76-.09.57-.38.39-.66.73-.75,1.07-.85.61-.34.15.16.06.3-.04.44.27.35.58.27.26.36-.05.45.16.38.36.31.1.68-.17,1.05-.02.68.13.31.13.17.21-.17.26-.37.09-.23.07-.23,1.57-1.06.31-.05.51.27,2.37.38.94.27.99.61.33.23,1.21,1.96.55.77.34.21.19.3.16.69.19.21,1.76.15.8-.13.49-.28.54.18.59.64.58.18.58-.28h.54s.51.31.51.31l.24.22h.15s1-.98,1-.98l1.21-.86,1.61-.94.93-.42.26.1,1.49-.31,1.34-.03,1.77.19,1.64-.22,1.51-.63,1.34-.35,1.17-.08.44.18-.29.42-.15.73-.02,1.03-.1.65-.18.27-.02.26.13.25,1.13.16.59.33h.68s.77-.29.77-.29l.59.11.41.53.59.1.58-.38.41-.36.35-.16.24.05h0ZM382.07,42.14v.29l-.29-.07-.24-.2-.19-.33-.24-.82-.37-.58.55-.66.33-.08.36.15.05.39-.26.62v.64s.3.65.3.65h0ZM382.19,43.72l-.13.08-.47-.53-.1-.33.07-.27h.18s.3.24.3.24l.17.29.04.33-.06.19ZM388,46.87l.09.3-.23.44-.66.23-1.34-.02-.87-.17-.4-.32-.09-.16.04-.35.19-.02.29.19.43-.08.57-.36.3-.27.03-.18-.18-.34.15-.14.71.13.26.22.48.76.23.14h0ZM378.08,49.47l1.21.19.12-.1.34.36.05.3-.14.25-.21.14-.27.02-.43-.26-.71-.68.04-.22h0ZM376.15,49.85l.67.25,1.21.83,1.14.48,1.08.14.79.29.5.45.36.5.22.55.52.31.81.07.64.23.47.4,2.59,1.03,1.08.54.6.53.17.34-.05.34.06.36.44.7.17.06.1.34.04.61.13.41.22.21-.13.08-.8-.35-.45.11-.21.46-.03.43.15.41,1.02,1.22.27,1.11.05,1.34-.13.52-.11,1.15-.08,1.78-.02.61-.34.59-.91.85v-.16s-.23-.04-.23-.04l-.24.13-.33.73-.28,1.33-.34.72-.4.11-.24.19-.08.27-.43.18-.79.09-.54.4-.4,1.13.02.54-.19.67v.58s.22.48.22.48l.64.48,1.06.48.63.07.44-.2.46-.79.44-.31.54-.13.2-.36.89-1.57v-.35l-.32-.13.05-.1.42-.06.36-.21.31-.36.54-.27,1.32-.41.71-.47.45-.08.65.25.85.58.67.84.5,1.1.63,2.85.76,4.58.52,2.55.28.54.14.27-.67,3.56-.54,1.46-.94.85-.93.82-1.16,1.38-1.28.68-.65.4-.14.26-.16-.08-.35.75-.31,1.03-.12.79.11.44-.27.28-.48.52-.09.19.03.31-.1.15h-.23s-.18.14-.18.14l-.43.55-.75,1.43-.12.26-.09.08-3.13.12-3.13.12-3.13.12-3.13.12v-.73h-19.43l.61-.35,1-.82.56-.73.54-.96.52-1.19,1.06-1.79.52-1.08.5-1.38.38-1.44.25-1.51.12-1.57v-1.63s-.26-1.64-.26-1.64l-.49-1.66-.27-.85-.1-.23-.89-2.13-1.01-2.98v-.25s.95-1.78.95-1.78l.02-.24-.1-1.45-.2-.73-.48-.98.02-.25.98-1.25.59-.95.53-1.16.35-1.35.16-1.55v-1.03l-.17-.52.02-.4.21-.28,1.05-.36.35-.61.08-1.08.21-.54h.35s.33-.21.33-.21l.3-.45.4-.13.5.2.69-.67.89-1.54.68-.86.48-.18.09.14-.3.46-.09.51.12.55-.1.53-.22.73.14.23-.38,1.17-.02.58.23.44.28-.15.32-.75.1-.4-.13-.05.05-.32.22-.59.2-.28.17.03.05.32-.08.61-.51,1.45-.1.44.11.12.61-.9.51-1.44.39-1.11.07-.6-.12-1.56.02-.64.15-.44.53-.5.91-.56.9-.3.89-.04.62-.15.35-.27-.12-.21-.6-.16-.45-.35-.31-.54-.1-.62.1-.7.38-.69.66-.67.21-.5-.24-.32.28-.11.81.09.56-.09.32-.27h-.04ZM368.72,52.4l-.32.07-.25-.16.04-.63.33-1.1.32-.5.43.2-.09.13.09,1.17-.16.52-.39.3ZM364.72,59.08l-.11.19-.26-.02-.21-.18-.2-.58.07-.13.51.08.18.25.02.39h0Z"/>
  <path id="US-MN" class="cls-1" d="M295.04,10.83l1.13-.17.97.05.97.08.52.12,1.5.62.98.51,1.41.95.78.42.37.98.44,1.26h.62l.47-.74,1.19-.13,1.57.52,1.38,1.47,1.99,1.31,1.21.65h1.23l1.57-.65,1.67-1.25,1.2-.22.71.12.4.98.5.37,1.29-.11,2.7.19,2.15-.27.49.56.44.88.87.28,1.18-.28,1.86.19-.26.14-.27-.03-.36.21-.45.45-1.03.64-1.61.84-1.86.76-3.77,1.38-2.35,1.43-1.04.86-4.04,4.28-2.44,2.27-3.95,3.18-.37.4-.03.37h-.17s-.65.76-.65.76l-.28.49-.64.14v7.84l-.31.2-.39.46-.54.11-2.54,1.6-.42.46-.46,1.07-.83,1.2-.21.64.04.86,1.27.69.47.66.23.81-.03.7-.64,1.37-.11.55.07,1.67-.32.52.26,1.35.02.47-.2,1.48-.14.43.25.77.03.08,1.19,1.06,1,.59.9.19.7.45.51.72.68.47.86.22.88.6,1.34,1.46.67,1.24,1.17.88,1.9.94,1.24.83.59.71.39,1.81.31,3.82h-3.11s-3.06.01-3.06.01h-42.84v-23.58l-.72-.99-1.57-.8-.39-.48-.73-1.2-.29-.51-.05-.4.35-.45,1.42-1.3.45-.6.22-.58.33-1.34-.13-1.03.09-1.61-.29-1.21-.06-.6-.18-.75-1.07-1.98-.26-1.6-.27-.79-.09-2.04.03-.58.21-1.11-.45-.75-.07-.62-.21-4.9-.14-.7.04-2.28-.82-2.41-.39-.82-.2-1,.02-.48-.67-1.65-.45-1.83.04-1.59-.14-1.2.05-.94-.12-1.41.14-.8v-1.25s-.91-4.45-.91-4.45h17.19l2.22.02.04-3.03.03-2.4,2.03.29.61.44.19.21-.06.66.17,2,.37,1.67.85,1.99h0s.07.79.07.79l.28.49.51.45,1.95.55,3.38.64,1.92.73.45.83.9.33,1.35-.16.95-.35.87-.79h0ZM295.04,10.83h-.04.04Z"/>
  <path id="US-MO" class="cls-1" d="M313.27,119.44l-.55,1.89v1.57s.31,1.9.31,1.9l.39,1.42.44.94,1.59,1.79,2.74,2.62,1.71,2.48.7,2.35.81.94.93-.46,1.17.21,1.26.39.66.46.15.16.07.17-.05.17-.18.45-1.56,3.88-.54,1.77.08.66.63.96,1.18,1.25,1.03.81.89.38,1.38,1.01,1.88,1.62.94,1.22v.81l.19.83.39.85v.8l-.39.77.15,1.03.69,1.3.58.79.48.27h.11s.03-.12.03-.12l-.06-.18-.03-.16.04-.22.1-.09.08-.02.45.32.66.71.3.94-.06,1.18-.26,1.12-.44,1.05-.5.36-.22-.06-.48-.19-.19.06-.44.27-.49,1.02-.02.03-.18.1-.13-.1-.02-.06-.09-.3-.21-.31h-.16l-.13.02-.05.15-.05.32.03.14.16.87-.14.62-.46.25-.07.35.26.4v.18l-.1.14-.32.05-.24.09-.19.32.38.61-.08.73-.52.86-.07.34-1.72.02-1.55.03-1.55.02-1.55.03.74-1.24.47-.44.35-.47.63-.44.69-.94.08-.44-.07-.43-.41-.59-.41-.92h-41.95v-8.91s-.01-1.54-.01-1.54v-3.08s-.01-1.54-.01-1.54v-1.55s-.01-1.55-.01-1.55v-3.11s-.01-1.55-.01-1.55v-1.57s-.01-1.56-.01-1.56v-3.14s-.01-1.57-.01-1.57l.02-.46-1.46-.84-.66-.79-.33-1.02-.66-1.01-.99-1-.16-1.08.66-1.14.56-.59.44-.02.05-.49-.35-.98-.51-.36-.67.25-.57-.02-2.17-1.58-.15-.11-.67-1.05-.28-1.25-.54-.82-.81-.38-.51-.82-.22-1.28-.52-1.29-.24-.38h2.35s2.38-.03,2.38-.03l2.37-.02,2.38-.02,2.37-.02h2.38s2.37-.03,2.37-.03l2.38-.02,2.37-.02,2.37-.02h2.38s2.37-.03,2.37-.03l2.38-.02,2.37-.02h2.38s2.37-.03,2.37-.03l.47.9.51.26.1.29.67.46.15.46.83.65Z"/>
  <path id="US-MS" class="cls-1" d="M344.04,183.23l.83.75-.03.27v.18s-.07.54-.07.54l-.23,2.11-.23,2.1-.23,2.1-.23,2.09-.23,2.09-.23,2.08-.23,2.08-.23,2.07-.23,2.07-.23,2.07-.23,2.06-.23,2.06-.23,2.05-.23,2.05-.23,2.04-.23,2.04.1,2.07.1,2.07.1,2.06.1,2.06.1,2.05.1,2.05.1,2.04.12,2.24-2.75.17-1.2-.55-.5-.11h-.3s-1.4.52-1.4.52l-1.6.39-.38-.12-.54-.02-1.16,1.33-.73.33-.23-.09-.26-.09-.18-.15-.35-.79-.11-.57-.42-1.24-.48-.69-.54-.46-.25-.46v-.31l-.17-.55.03-.44.66-1.69.28-1.26h-18.07s.04-.31.04-.31l.39-.39.14-.49-.32-1.18.12-.65.56-.12.28-.63v-1.14l.22-.77.44-.4.42-.93.4-1.47.81-1.22,1.22-.96.6-.83.04-.64.13-.3.25-.16.41-.44.54-.6.09-.41-.03-.29-.04-.31-.43-.56-.65-.47-.42-.74.03-.57-.14-.5-.32-.43.07-.4.45-.37.02-.35-.41-.33v-.59l.4-.85-.03-.59-.45-.33-.05-.55-.03-.28.43-1.98-.1-.26-.43-.6-.05-.73.26-.89-.13-.69-.36-.25-.09-.28-.11-.41.39-.38.02-.35-.35-.32.22-.45.79-.58.22-.33.23-.35.14-.83-.11-.5-.19-.33.09-.17.16-.15.94-.3.27-.21.06-.26-.3-.64.29-.68.87-.72.46-.63.05-.55.42-.4.78-.25.48-1.02.19-1.79.23-.76.4-.11.21-.25.07-.52.49-.53.9-.54.36-.53-.11-.28v-.36h17.4l2.54.02h0ZM340.42,236.45l-.12.12-.83-.23-.51-.21-.09-.21,1.4.38.15.15Z"/>
  <path id="US-MT" class="cls-1" d="M194.95,47.82v3.13s.03,3.11.03,3.11v3.11s.03,3.09.03,3.09v.08s-.01.04-.01.04v.04h-66.32v6.64s-.63-.35-.63-.35l-.41-.4-.34-.46-.64-1.28-.36-.47-.32-.28-.33-.02-.4.16-.31.3-.1.53-.3.62.02.52.13.26-.04.15-.2.11-1.5-.19-1.3.26-.89-.2-1.71.1-1.48-.18-.51.09-.33.28-.41.7-.11.13-.16.02-2.41-.38h-.64s-.67.45-.67.45l-.21.32-.05.43-.15.12-.21-.02-.54-.28-.56-.46-.28-.34-.06-.77-.45-.87-.08-.79-.29-.67-.44-.66-.44-.44-.44-.14-.82.09-.17-.07-.88-.88-.27-.38-.08-.35.3-.85-.09-.47-.22-.58-.31-.48-.51-.42-.46-.91-.85-1.28-.23-.99-.33-.83-.09-.82-.32-.5.03-.64-.05-.18-.1-.08-.57-.36-.65-.64-.33-.15h-.14l-.08.16-.05.3-1.04,1.06-.88.5-.43.49-.39.24-.21.03-.29-.16-.92-.72-.76-.33-.08-.16.04-.61.35-.71-.36-1.29.11-.45.28-.31.82-.48.08-.23-.18-1.23-.46-.46-.13-.26.14-1-.2-.66.36-.56.03-.96.29-1,.31-1.48-.07-.64.39-.69.13-.7.02-.49-.06-.3-.14-.11h-.28l-1.29.27-.42-.04-.37-.13-.21-.24-.06-.56-.29-.37-.15-.06-.59.22h-.13s-.06-.11-.06-.11l-.24-.48-.95-.93-.46-1.07-.92-.94-.88-1.29-1.69-2.02-.41-.41-1.28-.7-1.01-1.02-1.03-.73-.1-.12v-.08s.05-.06.05-.06l.29-.2.07-.37-.39-.77.19-.75-.26-1.04-.14-.35-.73-.97-.48-.93-.75-.86-1.01-1.41V5.46h113.1l.02,2.71.02,2.71v2.7s.02,2.7.02,2.7v2.68s.03,2.67.03,2.67v2.66s.02,2.65.02,2.65l.02,2.65v2.63s.02,2.62.02,2.62l.02,2.62v2.6s.02,2.6.02,2.6l.02,2.58v2.58Z"/>
  <path id="US-NC" class="cls-1" d="M458.95,165.29l-.25.91.13.52.5.54.55,1.34.44,1.8-.59-.73-.63-.39-.98-.3-.88-.52.06.75-.08.81-.67-.25-.46-.27.41.86-.88-.26-.59.05-.38.76-.51.46-.76.15-1.13-.7-.36-.84-.15-.94-.06,1.11.2,1.16-.07.88,1.08.16,1.01-.14,1.37.04.89-.17.54-.28,1.29.24.09,1.06-.15,1.05-.07,1.12h.36s.42-.37.42-.37l.21-2.01,1.18-.74.39.05.38.65.13.66.13.9-.28,1.37-1.81,1.6-1.29,1.47-.66.3-.95-.17-1.08-.37-.53-.07-.4.12-.25-.45-.16-.83-.42-.28-.32.03-.22.88-1.01.25-1.37-.36-1.44-.74.62.79,3.57,1.48.4.28.38.4-.5.63-.39.71-.06.56-.14.35-1.42.95-.77-.17-1.97-1.71.9,1.48.72.63,1.45.33,2.71-.55.89.6-.73,1.07-.73.75-.95.08-.84.2-.25.51-.6.03-.93.03-1.45.05-.79-.12-1.11,1.05-.42.14-.58-.2-.25-.84-.26-.42v1.58s.09.42.09.42l.21.32-1.3.86-1.24,1.07-.45.29-.51.53-1.04,1.54-.26,1.12-.37,1.25-.05-.56.06-.95-.26-1.08-.16,1.99-.4.92-3.7-.06-1.49.46-1.36-1.37-1.27-1.29-1.27-1.29-1.27-1.29-1.27-1.3-1.27-1.3-1.27-1.3-1.27-1.3-1.33-.05-1.33-.04-1.33-.05-1.33-.04-1.33-.05-1.33-.04-1.33-.05-1.33-.04-.05-.9-.04-.64-.83-1.09-.49-.64-1.05.55-.06-.27.04-.48-.09-.17-.29-.12-1.49-.07-1.49-.07-1.49-.07-1.49-.07-1.49-.07-1.49-.07-1.49-.07-1.49-.07-.34-.11-.67.38-1.77.57-.87.5-.32-.03-1.5.49-1.5.49h-.17l-2.85.04-2.85.04-2.85.04-2.85.04.35-2.44.24-.56.27-.13h.98s.62-.29.62-.29l.55-1.47,1.25-1.16.56-.29.84-.23,1.99-.28,2.14-1.13,1.54-1.07,1.22-.3.38-.39.28-.51.17-.7.13-.15.71.05.54-.61.52-.35.52-.2h.32s.12.17.12.17l.09.52.11.17h.22s.3-.11.3-.11l.4-.33,1.04-1.04.69-.4,1.06-.23.77.55.46-.19,1.35-2.13.54-.39.4-.15.7-.03v-.59s.25-.89.25-.89l.03-.61.43-.89.16.18,3.41.03,3.41.03,3.41.03,3.41.03,3.41.03,3.41.03,3.41.03,3.41.03,3.41.03,3.41.03,3.41.03,3.41.03,3.41.03,3.41.03,3.41.03,2.27.16h0ZM459.68,165.31h.3l.94,3.74,1.88,4.06.23.7-.44-.61-1.39-2.68-.78-1.96-.74-3.25h0ZM462.06,173.37l-.14.24-.63-1.28.64.41.11.34.02.29h0ZM462.92,180.47l-1.26.31-.11-.1,1.45-.65.46-2.31.06-1.07-.22-1.88v-.39s.25.61.25.61l.21,1.76-.08,1.33-.42,1.93-.34.46h0ZM460.68,181.04l-1.71.82-.19-.05,1.12-.59.78-.18ZM453.89,187.29l-.23.13.86-1.42,1.7-1.81.46-.28-1.42,1.54-1.37,1.84h0ZM453.49,187.16l-.21.03-.37-.13-.51-.24-.11-.18.49.06.71.46h0Z"/>
  <path id="US-ND" class="cls-1" d="M265.12,47.82h-70.17v-2.58s-.03-2.58-.03-2.58v-2.6s-.02-2.6-.02-2.6l-.02-2.62v-2.62s-.02-2.63-.02-2.63l-.02-2.65v-2.65s-.02-2.66-.02-2.66l-.02-2.67v-2.68s-.02-2.7-.02-2.7v-2.7s-.03-2.71-.03-2.71l-.02-2.71h64.09l.92,4.45v1.25s-.15.8-.15.8l.12,1.4-.05.94.14,1.2-.04,1.59.45,1.83.67,1.65-.02.48.2.99.39.82.83,2.42-.04,2.28.14.7.21,4.9.07.61.45.75-.21,1.11-.03.57.09,2.04.26.79.26,1.61,1.07,1.98.18.75.06.6.29,1.21-.09,1.61.13,1.03Z"/>
  <path id="US-NE" class="cls-1" d="M265.83,92.77l.29.06.63,1.12.26,2,.57,1.62.89,1.22.44.89v.57l.22.6.42.65.16,1.09-.08,1.55.18.82.44.1.2.21-.06.34.14.25.36.16.1.44-.16.73.13.45.42.19.08.36-.26.52.04.42.34.3.23,1.34.11,2.37-.04,1.38-.19.41.31.85.57.92.24.38.52,1.29.22,1.28.51.82.81.38.54.82.28,1.25.67,1.05.15.11h-62.86v-12.32h-18.8v-3.12s-.02-3.12-.02-3.12v-3.14s-.01-3.15-.01-3.15v-3.16s-.02-3.18-.02-3.18v-3.18s-.02-3.2-.02-3.2h52.6l2.81,1.91,1.67.59.8-.56,1.72-.32,2.65-.08,1.67.26.7.6,1.36.68,2.03.75,1.21.82.4.88.71.55.72.18Z"/>
  <path id="US-NH" class="cls-1" d="M508.21,85.62l-.42,1.66-.27.82-1.1-.06-.48.13-.96.59-.59.22-.97,1-.82.35-1.34-.05-1.34-.04-1.34-.04-1.34-.05-1.33-.04-1.34-.05-1.34-.04-1.34-.05-.16-.45-.52-.82-.13-.34.03-.38.29-1.03.21-.32.22-.6.33-2.39.29-1.39.21-2.54.21-.75.24-.46.38-1.2.7-.99.46-1.21.55-1.06.09-.62.41-1.35.29-2.41.28-.38,1.26-.33.4-.25,1.34-1,.42-.42.27-.42.21-.68.15-.18.03-.37-.47-1.59-.02-.58,1.04-1.81-.22-1.05.15-.26.92-2.57.87-1.19,1.18.4.63-.04.47-.41.07,1.32.07,1.47.08,1.47.07,1.47.07,1.47.07,1.46.07,1.46.08,1.46.07,1.45.07,1.45.07,1.45.07,1.45.08,1.44.07,1.44.07,1.44.07,1.44-.05.95.12.89.34.79.85,1.15.15.97.75,1.2Z"/>
  <path id="US-NJ" class="cls-1" d="M478.31,111.86l-.16.97-.93,1.96-.39.45-.46.4-.35.17-.32.31-.37.49-.35.98.21.89,1.8.33.48-.28.25.64.14.89-.14.96-.3.97-.23,1.21-.19,1.83-.29,1.65-.04-.5.18-2-.29.21-.2.46-.55,2.58-.76,1.37-.7.95-.72-.16.16.75-.2.39-.17.82-.43.54-.4-.05-.58.37-.23.29-.02.54-.39.48-1.4,2.49-1.21.73-.29-.11.32-1.17.22-1.19-.74-.52-.71-.27-.81.04-.89-.92-1.15-.67-1.61-1.82.05-.51-.04-.85.49-1.35.47-.94.65-.49,1.88-.5.47-.75.28-.63.48-.42,1.08-.76,1.64-.92-2.27-3.09-.54-.18-.6-1.51-.69-.42-.17-.24-.03-1.16.06-.67.1-.39.59-.33.34-.67v-.35s-.44-1.08-.44-1.08v-.34l.86-.66,1.12-1.29.67-1.41.27-.41.33-.29.74-.4.93.57.93.57.93.57.93.57.93.57.93.57.93.57.91.57h0ZM476.2,128l-1.1,1.84-.02-.35,1.38-2.29-.26.8h0Z"/>
  <path id="US-NM" class="cls-1" d="M204.46,165.88h-.39s-.01,3.28-.01,3.28l-.02,3.26v3.25s-.03,3.23-.03,3.23v3.23s-.02,3.21-.02,3.21l-.02,3.21v3.19s-.02,3.18-.02,3.18l-.02,3.17v3.16s-.03,3.15-.03,3.15v3.14s-.02,3.13-.02,3.13l-.02,3.12v3.11h-8.48s-2.11.01-2.11.01h-16.93s-2.12.01-2.12.01h-4.28l.96,2h-.01l1.14.57-.07-.02-2.07-.02h-2.07s-2.07-.02-2.07-.02h-2.07s-2.07-.03-2.07-.03h-2.07s-2.07-.02-2.07-.02h-2.07s0,1.23,0,1.23v1.23s-.01,1.24-.01,1.24v1.23s-3.34.01-3.34.01h-3.32s-1.19.01-1.19.01v-60.14s.01-4.16.01-4.16h56.91v5.85Z"/>
  <path id="US-NV" class="cls-1" d="M100.54,160v4.58s-.03,5.02-.03,5.02l-.18.07-.54,1.15-.6.53h-.46s-.46-.34-.46-.34l-.47-.65-.71-.38-.93-.09-.82.1-.72.3-.44.43-.24.83.08.34.43.77.03,1.2.06.97.26.53.04.62-.16.98.13.8.54,1.41-.18,4.07v.08l-2.56-2.43-2.39-2.27-2.39-2.28-2.39-2.29-2.39-2.29-2.39-2.3-2.39-2.31-2.39-2.31-1.72-1.61-1.73-1.61-1.73-1.61-1.72-1.62-1.73-1.62-1.72-1.63-1.73-1.63-1.73-1.63-2.2-1.94-2.21-1.94-2.2-1.95-2.2-1.95-2.21-1.96-2.2-1.96-2.21-1.96-2.2-1.97v-4.54s-.01-2.28-.01-2.28v-30.19h38.59s3.5-.01,3.5-.01h14v25.22s.01,1.91.01,1.91v24.42s.01,1.85.01,1.85v7.37Z"/>
  <path id="US-NY" class="cls-1" d="M484.49,89.69l-.3,1.07-.3,1.07-.3,1.07-.3,1.07-.3,1.07-.3,1.07-.3,1.06-.3,1.06.25.31-.08,1.2-.08,1.2-.08,1.2-.08,1.19-.08,1.19-.08,1.19-.08,1.19-.08,1.19.29.48.29.48-.35.22-.55.35-.58.37-.76.48.38.62.49.78-.39.32-1.01,1.08-.68.58-.56.19-.34.49-.38.32.36-1.08.39-.91.33-1.77-.1-1.44-.41-.59-.42-.4.49,1.42.08,1.74v.05s-.91-.56-.91-.56l-.93-.57-.93-.57-.93-.57-.93-.57-.93-.57-.93-.57-.93-.57-.2-.47-.34-.36-1.68-.63-.43-.42-.39-.57-.27-.7-.14-.73v-.58s.11-.65.11-.65l-.39-.43v-.41s-.26-.27-.26-.27l-1.1-.49-.33-.69-.73-.65h-41.6v-3.47l.55-.31,1.81-1.15.9-.84.95-.7,1-.55.79-.71.59-.87.65-.65.71-.43.38-.45.05-.47-.13-.64-.31-.8-.04-.63.23-.46.05-.31-.13-.16-1.49-.46.06-2.21-.02-.06.08-.03,3.42-.98,2.18-.34,2.66-.09,3.17.48,1.23.44.78.56.9.15,1.02-.26,1.41-.09,1.81.09.97.13.13.18.12-.05.12-.28.48-.31,1.35-.47.18.1.28-.24.38-.57.69-.63,1.01-.69.91-.36.81-.03.54-.17.27-.31.08-.28-.11-.24.05-.26.04-.13-.04-.11-.1-.22-.08-1.14-.16-.53-.22-.39-.14-.31.03-.27.49-.33-.04.31.13.09.23-.14.52-.68.06-.26.36-.27.26-.41-.29-.06-.69.12-.16-.12.36-.55-.07-.31-.11-.13-.23-.05-.78.48-.24.04-.03-.25-.4-.57,1.08-1.01,3.82-2.81.39-.43.14-.38-.1-.33-.11-.08.06-.08,3.68-3.63,2.09-1.68,1.73-.94,1.31-.45.89.06.5-.06h6.54s3.92-.02,3.92-.02h2.32l.07.88-.2,1.04.16,1.13-.22,2.35.59,1.81-.14,1.21.04,1.3-.1.32-.46.75-.27.73-.15.74v.48s.41,2.12.41,2.12l.08.93v.54s-.36,1.74-.36,1.74l-.02.49.1.14h.13l.4-.54.18-.08.23.13.56.82-.03,1.47-.02,1.06-.02,1.18-.04,1.77-.03,1.29-.02,1.18-.02.9-.13.66.19.79h0ZM457.58,69.97l-.3.11-.07-.15.05-.15.25-.18h.41l-.05.14-.29.23h0ZM456.17,73.72l-.14.04v-.28s.15-.18.15-.18l.28-.08v.14s-.29.36-.29.36h0ZM431.05,86.23l-.29.44-.28-.04-.2-.14-.07-.28.05-.35.25-.15.67.13.02.14-.15.25h0ZM491.49,111.94l-.67.8.6.08.52-.24.49-.48,1.14-.65.98-.28.31-.06.46.45.92-.36.95-.2-4.1,2.07-.84.23-1.2.61-1.13.44-.82.16-4.06,1.53-.32.03-.35-.15-3.35.79-1.37.09-1.25.27.92-.63.02-.24-.22-.19-.49.05-.51.65-.81.22-.16-.71.27-.55.37-.52.8-.82,1.15-.52.58-.45.4.4.09-.54.31-.31.34-.17h.81l.44-.08.32-.18.33-.03.89.24.87-.07.7-.34.73-.11,1.93-.08,1.92-.25.77-.44,1.61-1.23.93-.34-1.44,1.42-.78.69h0ZM475.69,117.67l-.45.05.45-1.18.83-.54.3.11v.42s-.11.36-.11.36l-.55.55-.47.23h0Z"/>
  <path id="US-OH" class="cls-1" d="M416.09,116.14l-1.11.54-.21.5.34.63.18.82.02,1-.62,2.2-1.28,3.38-.64,2.12-.02.87-.84,1.13-1.66,1.4-1.16.84-.66.29-.56-.02-.44-.34-.5.23-.56.8-.51.41-.48.02-.41.52-.34,1-.32.58-.3.15-.02.51.25.86-.02.31h-.14s-.13-.04-.13-.04l-.33.19-.36.48h-.14s-.1-.07-.1-.07l-.1-.63-.3-.44-.48-.26-.67.58-.86,1.42-.37.92.14.64.08.93-.22.38-.46.14-.37.51-.25.86-.65.55-1.04.23-1.09-.4-.08-.03-1.29-1.08-.81-1.04-.34-.99-1.12-.05-1.92.91-1.44.13-.98-.62-.73-.25-.73.21-.7.4-.58-.24-.72-.74-1.13-.52-1.55-.29-1.08-.81-.59-1.31-.64-.91-.67-.5-.75-.14-.8.2-.62-.1-.44-.42-.56.05-.52.4v-4.02s.05-3.96.05-3.96l.03-3.97.03-4,.03-4.02.03-4.03.04-4.06.03-4.08,3.13-.12,3.14-.11,3.13-.13,3.14-.11.09-.08-.02.04.13.22.85.14.58.26.45.39,1.64.77.5.47.49.26.5.05.33-.15.19-.34.23-.03.28.3.92.33.03.1-2.55.57-.53.27.64.18.64-.04.65-.27h.75s.65.14.65.14l.21-.11.08-.06,1.11.75.42.12.43-.09.45-.28.98-.37,1.52-.45,1.46-.19,1.4.09.89-.13.81-.47,1.79-1.54,2.05-1.24,3.39-1.55,3.28-1.21v16.76Z"/>
  <path id="US-OK" class="cls-1" d="M283.37,165.88l.21,1.63.21,1.61.21,1.62.21,1.61.21,1.61.21,1.61.21,1.6.21,1.61-.02,1.24-.03,1.25-.02,1.25-.03,1.24-.03,1.24-.02,1.24-.03,1.24-.03,1.24-.02,1.23-.03,1.24-.03,1.23-.02,1.23-.03,1.23-.03,1.22-.02,1.23-.03,1.22-2.12-.57-.53-.36-.98-.42-.87-.84-1.73-1.06-.66-.25-.21.03-.35.52-.93.41h-.5s-.9-.14-.9-.14l-.18-.13-.13-.32-.36-.21-.27.17-1.32.43-.19.31h-.75s-.74-.21-.74-.21l-1.86.69-.64.54-.67.18-.34.53-.21-.08-.7-.65-.71-.19-.99-.64-.03-.57-.11-.07-.17-.06-.22.05-.43.49-.25.12-.24-.02-.96-.32-.4-.58-.19-.18-.22-.04-.41.18-.23.63-.19.18-.39.1.02.32-.35.88-.19.18-.25-.03-.25-.22-.19-.31-.08-.27.14-.69-.09-.24-.19-.07-.46.33-.41-.02-.53.33-.32.1-.3-.08-.49-.53-.84-.34-.33-.63-.15-.18-.18-.05-.18.02-.3.2-.97.83-.44.26-.38.05-.37-.08-.23-.21-.04-.84-.22-.25-.9-.53-.19-.49-.08-.69-1.09.11-1.34-.07-.6.6-.32.11-.37-.12-1.08-.82-1.15.17-.65-.09-1.6-.61-1.25-.06-.52-.11-.28-.14-.12-.94-.5-.79-.16-.22-.85-.55-.14-.02-.09.12-.19.63-.26.03-.98-.18-.9.19-.5-.31-1.71-1.45-.69-.38-.56-.12v-6.83s-.01-1.37-.01-1.37v-6.9s-.01-1.38-.01-1.38v-5.57h-28.23v-5.85h78.91v5.85Z"/>
  <path id="US-OR" class="cls-1" d="M14.12,44.97l.94-.34.74.26.94.61.93,1.85.91,3.07.2,1.02.71.63.84.03,3.37.45.5-.03h0l.61-.12,1.91-1.17,2.07-.38,2.45.08,1.5.34.55.58,1.31.06,3.1-.68,3.43-.48,1.84-.49,2.09-1.02,4.75-1.3,2.37-.15,1.2-.49.28-.25h.17s2.5-.01,2.5-.01h4.99s2.5-.01,2.5-.01h5s2.5-.01,2.5-.01h2.33l.26.59.98,1.16,1.39.99.91,1.04.41,1.08-.68,2.47-1.77,3.84-.96,2.44-.16,1.06-.87,1.79-1.6,2.53-.78,1.87.04,1.21.54.71,1.04.19.72.4.38.59v.56s-.35.5-.35.5l-.1.52.15.54-.12.96-.6,1.96v.07s.01,3.18.01,3.18v2.88s.01,2.88.01,2.88v5.71s.01,2.84.01,2.84v2.84s.01,2.82.01,2.82H4.63s-1.19-1.55-1.19-1.55l-.52-2.3-.1-.97.14-2.58-.36-1.1-.9-1.82.39-1.59.41-.97,1.02-4.23.24-.34h.43s.74-.72.74-.72l-.34-.16-.52.34.46-1.68.52-1.45.33-.52.17-4.74.3-3.63.49-1.21-.17-1.24.19-1.69-.14-1.71,1.05-8.28-.14-1.01.32-1.35-.3-3.57.13-4.02-.26-.51-.14-.56.25-.08.48.59h2.24s1.44-.55,1.44-.55l.52.18.6.73.76.15.95-.13Z"/>
  <path id="US-PA" class="cls-1" d="M470.88,107.31l-.74.41-.33.29-.27.41-.67,1.42-1.12,1.28-.86.66v.34l.45,1.08v.35s-.35.67-.35.67l-.59.33-.1.39-.06.67.03,1.16.17.24.69.41.59,1.52.55.18,2.27,3.09-1.64.91-1.08.77-.47.41-.93,1.09-1.39.36-.76.41-.19.19-.84-.34-1.17.05-.4.15-.3.3-.71.98h-32.59s-2.17-.01-2.17-.01h-1.23s-1.23.01-1.23.01h-7.35v-4.24s-.01-1.42-.01-1.42v-5.69s0-1.31,0-1.31v-15.45l1.75-.65.78-.44.78-.42.41-.25.46-.22,2.95-1.64v3.47h2.59s1.3.01,1.3.01h11.68s1.3.01,1.3.01h11.68s1.3.01,1.3.01h11.68s.73.66.73.66l.33.68,1.1.49.25.28v.4l.39.43-.12.66v.58l.14.73.27.7.39.56.43.42,1.69.63.34.37.2.46Z"/>
  <path id="US-RI" class="cls-1" d="M503.5,102.94l-.35.32-.37-.49-.19-.53-.27-.3-.29-.11.25,1.16-.59.87-.16,2.25-.75.93-2.32.6-.69-.06.12-.72.24-.3.05-.78.03-.51v-.86s-.02-.99-.02-.99v-1.08s-.02-.95-.02-.95v-.69s-.02-.95-.02-.95v-.68h.71s.97-.02.97-.02l.93-.02h.58s.71-.02.71-.02l.03.57.04.87.39.14-.02.71v.47s.33.29.33.29l.35.3.33.58h0ZM503.43,105.63l-.47.34-.52-.06.26-.46.1-.68.26-.75.15-.23.31-.2-.09,2.04ZM502.26,105.71l-.26.23-.1-.61.18-.7.19-.02.09.37-.1.73h0Z"/>
  <path id="US-SC" class="cls-1" d="M434.49,195.98l-.12.04-2.49,1.68-.74.74-2.05,2.84-.52,1.81-.42-.76.1-.57v-.47s-.51,1-.51,1l.49,1.46-.44.56-1.35,1.04-.74.17-.84.29-.26,1.03-1.13.94-.66.42-1.2-.26.37.91-.44.68-.77.53-.95.34-.54-.04-.46.18-.37.44-.89.41-.92-.23-1.05-.14-.58.24.98.41.52.58-.1.79-.27.3-.62.41-.27-.06-.16-.37-.2-.77-.29.16-.05.36-.25.13-.88-1.23.05.94.3.72.3.37.3.21.07.34-.6.81-.31.18-.55.13-.31.5.1.44-1.91-.89-.57-.8.02-1.03-.36-1.17-1.12-1.96-.81-.56-.54-1.34-.53-2.32-.83-1.48-1.14-.65-.76-.77-.39-.88-.4-.58-.42-.27-.23-.45-.03-.65-.65-.85-1.91-1.58-.45-.96-.9-1-2.24-2.03h0l-2.15-3.95h-.01l-.27-.8-.46-.33-.74-.12-.73-.39-1.06-1h-.01s-1.78-1.25-1.78-1.25l.37-1.11,1.37-1.46.46-.77h.07s.17-.01.17-.01l1.5-.49,1.5-.48.32.02.87-.5,1.76-.57.68-.38.34.11,1.49.06,1.5.07,1.49.06,1.49.07,1.49.07,1.5.06,1.49.07,1.49.06.29.12.09.17-.04.48.06.27,1.05-.55.49.63.83,1.09.04.64.05.9,1.33.04,1.33.05,1.33.04,1.33.05,1.33.04,1.33.05,1.33.04,1.33.05,1.27,1.3,1.27,1.3,1.27,1.3,1.27,1.29,1.27,1.3,1.28,1.29,1.27,1.29,1.35,1.37Z"/>
  <path id="US-SD" class="cls-1" d="M265.12,47.82l-.32,1.34-.22.59-.46.59-1.42,1.3-.35.45.05.4.29.51.73,1.2.39.49,1.56.8.72.99v23.59l-1.36.05.16.81.37.79.07.46-.08.37-.25.33.06.52.07.15.62.33.2.46.07.52v.39s-.39.72-.39.72l-.1.95-.46,1.41-.51.86-.1.44.05.35.78.91.05.36.25.47.24,1.05-.72-.18-.71-.55-.4-.88-1.21-.82-2.03-.75-1.36-.68-.7-.6-1.67-.26-2.65.08-1.72.32-.8.56-1.67-.59-2.81-1.91h-52.6v-3.22s-.02-3.22-.02-3.22v-3.24s-.02-3.26-.02-3.26v-3.26s-.02-3.28-.02-3.28v-3.3s-.02-3.31-.02-3.31h.3v-.12s.01-.04.01-.04l-.02-3.09v-3.11s-.03-3.11-.03-3.11v-3.13s2.18,0,2.18,0h67.98Z"/>
  <path id="US-TN" class="cls-1" d="M386.45,164.67h2.14s4.56.03,4.56.03l3.24.02h2.66s1.57.02,1.57.02h1.98s.44-.23.44-.23l.99.04,1.33.05-.43.9-.03.6-.24.89v.59s-.7.03-.7.03l-.41.15-.54.39-1.34,2.13-.47.19-.77-.55-1.06.23-.69.4-1.03,1.04-.4.33-.31.12h-.22s-.11-.18-.11-.18l-.09-.52-.12-.18h-.32l-.52.2-.52.35-.54.6-.71-.05-.13.15-.17.7-.28.51-.38.39-1.23.3-1.54,1.07-2.13,1.13-2,.28-.83.23-.56.29-1.25,1.16-.55,1.47-.63.28h-.97s-.27.14-.27.14l-.25.56-.35,2.43-3.06-.03-3.06-.04-3.05-.04-3.06-.03-1.51-.02-1.51-.02-1.51-.02h-1.51s-1.51-.03-1.51-.03l-1.51-.02h-1.51s-1.51-.03-1.51-.03l-1.51-.02-1.51-.02h-1.51s-1.51-.03-1.51-.03l-1.51-.02h-1.51s-1.51-.03-1.51-.03l-1.51-.02h-.12s.11.15.11.15l.17.15h-5.06s-2.5-.01-2.5-.01h-5s-2.5-.01-2.5-.01h-4.9v-.04l.35-.48,1.07-.78.47-1.03-.14-1.27.39-1.14.93-1.03.38-1.02-.16-1.01.46-.82,1.09-.64.15-.26-.04-.19-.02-.22v-.09s.06-.2.06-.2l.24-.11.32-.1.14-.16v-.26l-.19-.46.04-.21.07-.34.52-.86.08-.73-.38-.61.19-.32.24-.09.32-.05.1-.14v-.18l-.26-.4.07-.35.46-.25.14-.62-.16-.87.66-.02.02.06.13.1.18-.1.02-.03h6.74s1.63.01,1.63.01h4.72l.03-.02v-1.04l-.38-1.2h.05l1.27.13.83.08.27.36,3.14-.06,3.13-.06,3.13-.06,3.14-.06,3.27.11,3.26.12,3.27.11,3.27.12,3.27.11,3.27.11,3.26.12,3.27.11.08-.03.07-.02.07-.03.08-.03.07-.02.08-.03.07-.02.07-.03Z"/>
  <path id="US-TX" class="cls-1" d="M284.63,198.55l.49.55.39.16.12.22.19.06.24-.05.36-.25.53.07.44-.09.87.13.48.26v1.52s.02,1.52.02,1.52v1.52s.02,1.52.02,1.52v11.25l1.3,1.35.56.93.18.47.06,1.61.13.39.65.6v.4s.69,1.16.69,1.16l-.02.54.65,1.24.37.32.06.83.2.63-.3.45.13.63-.18.58-.1.77-.43,1.19-.38.58-.52,1.12.05.92-.3,1.01-.04.39.28.67.1,1.84-.15.39-.63,1.08-.45-.03-.99,1.78.56,1-.04.36-1.97.2-4.47,2-1.74,1.08.09-.36,2.11-1.4-.74-.21-1.2.35-.43-.13.51-1.16-.17-1.02-.85-.03-.54.82-.38-.04-.49-.35-.38.11.28,1.85.54.76.45.97-1.22,1.19-1.14.98-.12.95-1.14,1.24-1.07.7-2.53,1.64-.72.35-1.14.76-1.57.57-1.51.91-.51.14.96-.77,1.14-.76-.98.1-1.51-.35-.92-.02v.28s-.71.39-.71.39l-.73-.57-.32-.39-.15-.33-.31-.08-.3.16,1.09,2.35.46.1.51.23-.64.55-.69.41-1.08.28-.92-.86-.2,1.07-.12,1.07-.31.27-.49.39-.27-.29-.13-.41-.31.37-.46.28-.76.05-.57.15v.44s.17.44.17.44l1.01-.35-.37,1.14-.93,1.13-.75.27-1.15-.17-.29.11-.25.23,1.34,1.76-.86,2.65-.55.96-.38.12-.42.03-1.49-.85-.81-.66.72,1.8,1.95.52.1.68v.58s-.39.68-.39.68l-.36.9.27.63.31,1.55.26.71.29,2.16.31.93,1.77,3.43.6.03.1.37-.06.71-1.28.21-.54.32-.1.27-.08.15h-.16s-.61-.21-.61-.21l-1.38-.97-2.02-.6-2.65-.23-1.81-.49-.97-.74-1.01-.44-1.06-.14-.88-.4-.69-.67-1.02-.43-1.34-.19-.87-.5-.61-1.23v-.02l-.54-2.05-.68-1.29-1.33-1.6-.12-.21h0v-.26s.16-.93.16-.93l-.14-.67-.42-.55-.1-.58.23-.61.02-.73-.2-.85-.85-.92-1.5-1-1.27-1.45-1.05-1.92-1.04-1.33-1.03-.74-.7-.9-.38-1.07-.11-.62.15-.17-.63-1.19-1.42-2.21-.82-1.62-.21-1.03-.9-1.22-1.6-1.42-.87-.92-.21-.64h0l-2.49-1.87-.72-1.17-.57-.37-.65.04-.33-.11-.02-.26h-.21s-.4.23-.4.23l-1.32.05-2.25-.14-1.62-.32-1-.5-.7.07-.4.63-.85.41-1.31.18-1.12,1.17-.94,2.15-.41,1.38.12.62-.25.45-.61.28-.62.62-.63.97-.74.47-.84-.03-1.56-.75-2.27-1.46-1.78-.9-1.29-.34-1.14-.68-.99-1.01-.91-.67-.83-.34-.97-1.12-1.11-1.91-.56-1.47v-1.56l-1.46-3.4-.77-1.48-.57-.68-1.12-.81-1.67-.95-2.24-1.89-2.81-2.85-1.99-1.72-1.17-.58-1.01-1.03-.86-1.48-.84-.94-.09-.04-1.14-.56h0l-.96-2h33.98v-3.11s.02-3.12.02-3.12v-3.13s.02-3.14.02-3.14v-3.15s.02-3.16.02-3.16v-3.17s.02-3.18.02-3.18v-3.19s.02-3.2.02-3.2v-3.21s.02-3.23.02-3.23v-3.24s.02-3.25.02-3.25v-3.26s.02-3.27.02-3.27h.39s1.76-.01,1.76-.01h26.4v22.05l.55.12.69.38,1.71,1.45.5.31.9-.18.98.18.26-.03.19-.62.09-.13.14.02.85.55.16.22.5.79.13.94.27.14.52.11,1.26.06,1.6.61.65.09,1.15-.17,1.08.82.38.12.31-.11.61-.6,1.33.07,1.09-.11.08.69.19.5.9.53.22.25.04.84.23.21.36.08.38-.05.44-.26.97-.83.3-.2.18-.02.18.04.15.18.33.63.84.34.48.53.3.08.33-.1.52-.33.41.02.47-.33.19.07.08.23-.14.7.08.26.19.31.26.22.25.03.19-.18.35-.88-.02-.32.4-.11.18-.17.23-.64.41-.17.22.03.2.18.4.58.95.33.25.02.25-.12.43-.48.22-.06.18.07.1.07.04.57.98.64.72.19.7.65.2.07.34-.52.67-.19.64-.54,1.86-.69.74.22h.75s.2-.31.2-.31l1.32-.44.27-.17.37.22.13.32.17.13.91.16.5-.02.92-.41.36-.52.21-.03.66.25,1.73,1.05.88.85.98.41.53.36,2.15.54h0ZM279.4,247.99l-.47.1,2.05-1.65.43-.55.55.02-.92.93-1.64,1.15ZM263.17,258.59l-.35.04.43-.57.7-.29,1.53-1.1.62-.08.33-.38.14-.06-.09.47-1.23.66-2.08,1.31h0ZM260.81,261.25l-.2.03.46-.87.08-.35.75-1.1.39-.16.17.47-.77.77-.88,1.21h0ZM257.62,267.61l-.29.61.08-.9.76-2.06,1.55-2.71.65-.45-1.79,2.97-.96,2.54h0ZM259.34,279.57l-.13.48-.78-2.26-1.27-5.14-.05-2.94.2-1.01.33,4.15,1.4,5.25.3,1.47h0Z"/>
  <path id="US-UT" class="cls-1" d="M128.68,99.23v1.58s.01,1.57.01,1.57v9.38h18.86v48.27h-11.76s-2.93-.01-2.93-.01h-11.76s-2.93-.01-2.93-.01h-8.82s-2.94-.01-2.94-.01h-5.87v-11.07s-.01-1.86-.01-1.86v-24.53s-.01-1.92-.01-1.92v-21.39h28.16Z"/>
  <path id="US-VA" class="cls-1" d="M442.38,132.06l.54.45,1.27.53.52.54-.23.55-.03.4.24.36,1.69.72,1.04,1.02.64.31.19.09.46.25.21.31-.14,1.37-.44.68-.69.52-.9.92-.22.85-.28,1.59.38.54.39.14,1.15-.36.59.16,1.32,1.91,2.46.75.9.47.73.99,1.1.57.85.83.02.54-.3.64-.12.86-.36.54-.87.06-.53-.14-2.83-3.04-.34-.28-1.05-1.59-1.23-.86-.38.02,1.75,1.58.71,1.1,1.26,1.54.9.65.66,1.02.62.48,1.68.68-.58.49.93.42.13.76-.09.87-1.29-.34-.04.64.12.38-.57.31-.79-.42-2.06-2.31.02.31.17.36,1.2,1.49,1.07.89.91.4.7.75.25.45.16.68-.52.46-.59.26-.58-.46-.42-.49-.9-.83-.27-.93-.68.05-2.86-1.18-2.3-.14.22.24.29.16,1.83.29.72.54,1.5.48.88.13.36,1.47,1.22,1.01.16.75.83.08,1.46-.74.94.26,1.36.21.31.59.23,1.13.48,1.27.31,1.24h-1.03s-2.34-.03-2.34-.03l-3.41-.03-3.41-.03-3.41-.03-3.41-.03-3.41-.03-3.41-.03-3.41-.03-3.41-.03-3.41-.03-3.41-.03-3.41-.03-3.41-.03-3.41-.03-3.41-.03-3.41-.03-.16-.18-1.34-.05-.98-.04-.44.24h-1.97s-1.57-.02-1.57-.02h-2.66s-3.24-.03-3.24-.03l-4.57-.02h-2.13s.95-.57.95-.57l1.41-.33,2.51-.95,1-.97,1.41-.71.59-.85.94-.81.35-.92.13-.14,1.55-.83,1.63-1.04,3.56-2.87.07.38-.13.41.3.48.25.75.35.46.44.37.73.33.86.58.68.16.23-.02.75-.56.62-.3.65-.61,1.16.83h.46l1.14-.36,1.07-.1.27-.11.4-.34v-.69s.1-.18.1-.18l.18-.08.21-.02.48.25h.47s2-.79,2-.79l.15.06.25.37.88-.47.52-.44.23-.66.43-.65-.09-.29-.28-.38.37-.88.54-.87,2.04-2.64.65-1.6.85-1.03.28-.82.64-.81.44-1.68.27-.34.39-.06.4.21.29.31.19.5,1.03.44.86.05.6-.32.35-.59.47-1.11.45-.66.29-.83.3-.57.46-.36,1.16.02.6-.51.46-.58.28-.19.33.03,1.05-.93,1.38-1.95.3-1.23.36-.89.14-.91.27-.5,1.22.99.7.57,1.6,1.3,1.06.86.42-.99.68-1.48h0ZM465.67,147.78l.25-.03h0l-1.01,1.81-.43.19,1.19-1.97ZM461.84,148.78l.37-.54,1.42-.19.88-.12-2.08,4.67.09.86-.42.28-.63.22-.64.51-.42.56-.39,1.52-.76,1.7-.47-.71-.12-.61.21-1.59.82-2.61.9-1.63.69-.77.55-1.55h0Z"/>
  <path id="US-VT" class="cls-1" d="M491.89,89.97l-.92-.03-.93-.04-.92-.03-.93-.04-.93-.03-.92-.04-.93-.03-.92-.04-.25-.77.12-.66.02-.91.03-1.17.02-1.3.04-1.77.02-1.18.03-1.07.03-1.46-.56-.82-.23-.14-.18.09-.39.54h-.13s-.1-.15-.1-.15l.02-.49.35-1.74v-.55s-.06-.93-.06-.93l-.4-2.12v-.48s.15-.73.15-.73l.27-.74.46-.75.1-.31-.03-1.3.14-1.21-.59-1.81.22-2.35-.16-1.12.19-1.04-.06-.88h1.6s3.92-.01,3.92-.01h3.91s3.92-.02,3.92-.02h3.92l-.15.26.22,1.05-1.04,1.81.02.58.47,1.59-.03.37-.15.18-.21.68-.27.42-.42.42-1.34,1-.4.25-1.26.33-.28.38-.29,2.41-.41,1.35-.09.62-.55,1.06-.46,1.21-.7.99-.38,1.2-.24.46-.21.75-.21,2.54-.29,1.39-.33,2.39-.22.6-.21.32-.29,1.03-.03.38.13.34.52.82.16.45Z"/>
  <path id="US-WA" class="cls-1" d="M73.65,47.02h-19.99l-.28.25-1.2.49-2.37.15-4.76,1.3-2.09,1.02-1.84.5-3.43.48-3.1.68-1.31-.06-.55-.58-1.5-.33-2.45-.08-2.07.39-1.91,1.17-.61.12h0l-.5.04-3.37-.46-.84-.03-.72-.62-.19-1.02-.91-3.08-.93-1.85-.94-.61-.74-.25-.94.34-.29-.19-.45-.05-1-.68-.57-.68-1.75.05-.36-.44-1.95.44-.6-.45-1.06.29.26-1.27-.05-1.6.05-1.56.26,1.14.66,1.21.32-1.37.22-1.73-.65-.67-1.07-.49-.38-1.62,2.54-1.38-1.35-.29-.53-.62-.65-.08-.05.48-.21.63-.23-.83-.07-.98-.27-1.68-1.04-2.71-.63-3.53-.79-1.75-1.52-1.68-.4-.98-.36-2.49.2-1.89-.28-1.33.73.08,1.92,1.05,2.39.82.72.6,1.16.44,6.41.69.42-.07.83-.43.35.05.94.97.47.12.61-.05.45-.19.77-.67.1.25v.62s.27.88.27.88l.57,1.14.21.71-1.15,1.99-.22.04-.03-.67-.15-.13-2.16,3.36-.76,1.59-.08.72.03.42.3.1.69-.16,1.02-.66.05-.14-.95.23-.46.02.06-.75.11-.36.62-1.11.65-.67.93-.71.54-.59.37-.86,1.03-1.03.19-.29-.04-.85.07-.16.5.11.21,1.45-.12.65-.89.79-.11.28.16,1.08-.14.1-.34-.13-.11.07.84,1.17.27.91.04.81-.23,1.55-.25.26-.42-.09-.56-.48-.12.16-.44,1.2-.15-.11-.28-1.42-.15-.11-.86.65-.34.62-.3.99-.38.46,1.07.1.96-.2.77.47h.26s.71-.45.71-.45l.22-.31.58-1.5.29-.27h.44s.42-.24.42-.24l.62-.82.02-.33-.23-1.85.07-1.05-.12-.33-.28-.35.04-.34.22-.55.02-.5-.19-.45.08-.51.59-1.09.11-.48.72-1.09-.18-.44-.53-.54-.33-.47-.34-.74-.26-.25-.08.11.36,1.21-.08.08-.93-.65-.22-.41-.11-.56.08-.42.5-.41.6-.15-.05-.35-.75-1.13-.5-.52-.39-.25-.52-.07-.23-.19-.06-.27.11-.35.28-.11.8.14.43-.25-.04-.45-.13-.25.02-1.62-.31-1.32-.16-.22-.17-.02-.18.18-.5.05-.31-.43-.34-.84-.62-2h54.07l.02,2.28v2.28s.02,2.28.02,2.28v2.27s.02,2.26.02,2.26v2.25s.02,2.25.02,2.25v2.24s.02,2.23.02,2.23v2.23s.02,2.22.02,2.22v2.21s.02,2.21.02,2.21v2.2s.02,2.19.02,2.19v2.19s-.06.13-.06.13l-.06.32.27.91.63,1.32.2.93-.24.53.17.92.39.71h0ZM18.25,10.03l.13.31-.38.3-.27.05-.43-.48-.19-.06.15.74-.05.25-.88-.46-.16-.36.25-.38.55-.4.19-.05,1.09.54h0ZM16.07,12.47l.25.46-1.01-.3-.43-.27-.13-.26-.15-.86.07-.28.45-.1.85,1.06.1.55h0ZM17.88,13.45l-.15.14-.5-.19-.3-.32-.1-.39.19-.75.25-.19.16.04.07.66.45.7-.07.3ZM20.22,17.33l.46,1.84.2-.77,1.28,1.33v.65l-.16.22-.27.08-.25-.19-.23-.46-.29-.24-.61-.16-.32-.52-.11-.36-.03-1.03-.15-.32-.33-.07-.31-.25-.48-.72-.07-.19.23-.59.52-.99.38-.47.24.05.29.3.35.54-.06.38-1.41.75-.05.17.68.21.25.19.25.62h0ZM20.93,25.19l-.05.27-.52-.32-.17-.29.02-.66.13-.43.1-.09.31.19.09.11.09,1.22h0ZM21.9,27.96l-.04.32-.36.25-.19-.06v-.37s-.11-.06-.11-.06l-.39.45.03-.88.19-.93.17-.02.25.61.45.69h0ZM17.58,30.6l-.09.27h-.13s-.29-.56-.29-.56l-.04-.39.25-.28.34.81-.04.15h0Z"/>
  <path id="US-WI" class="cls-1" d="M322.83,33.06l-.31.22-.12-.1.07-.42.16-.25.24-.07.12.1v.27l-.16.25h0ZM320.18,34.42l-.14.1-.36-.23-.05-.19.1-.19.17.04.24.28.04.19h0ZM323,39l-.05.11.19.5.48-.13.21.3.29.13.54.24.26.57.26.57.26.57.26.57,1.18.33,1.18.33,1.18.33,1.18.33,1.18.33,1.18.33,1.18.33,1.18.33.66.38.66.38.66.38.66.38,1.04.07.92.23h1.29s1.3.3,1.3.3l1.91.63.45.54.08.36-.19.84,1.82.75.78.56.29.43-.05.39.18.82-.19.44v.77l-.41.81-.14.44v.37s.08.24.08.24l.22.09.69-.05.68-.25.3.15.06.13-.05.22-.55,1.37.02.55.23.54.38.52.45.18-.02.34-.18.67-.53.53-1.38.67-.22.45-.03.37-.89,1.54-.44.94-.29.98.09.62.47.25.38-.1.29-.45.44-.4.6-.36.44-.53.61-1.3.68-.75.36-.04.1.02.71-.34.57.11.34.51.35.35.08.33-.18.73-.32.77-.47.81-.43,1.21-.38,1.62-.08,1.22.22.82-.21.73-.64.64-.52.86-.39,1.08-.22.9-.05.73.06.55.24.74-.02.37-.7,1.62-.25.79-.04.62-.17.61-.53,1.24-.17.69-.03.63.12,1.03-.07.35.03.26.13.18v.32l-.14.47.05.37.24.26.16.5.07.74.18.61.3.49.05.71-.19.93-.1,1.75v.58h-1.2s-4.24-.04-4.24-.04l-4.24-.03-4.24-.03-4.24-.03-4.24-.03-4.33-.03-.06-.1-.29-1.14-.95-.85-1.61-.55-1.03-.87-.45-1.19-.29-1.34-.12-1.49.13-1.25.38-1.01-.1-.68-.58-.36-.38-.47-.18-.58-.07-.8-.31-3.82-.39-1.81-.59-.71-1.24-.83-1.9-.94-1.17-.88-.67-1.24-1.34-1.46-.88-.6-.86-.22-.68-.47-.51-.72-.7-.45-.9-.19-1-.59-1.19-1.06-.03-.08-.25-.77.14-.43.2-1.48-.02-.47-.26-1.35.32-.52-.07-1.67.11-.55.64-1.37.03-.7-.23-.81-.47-.66-1.27-.69-.04-.86.21-.64.83-1.2.46-1.07.42-.46,2.54-1.6.54-.11.39-.46.31-.2v-7.84l.64-.14.28-.49.65-.77h.17v.02l.32.35.8.51.63.06.8-.11,3.17-.88,1.34-.61,1.31-1.03.13-.03.55.19.17.09,1.71-1.18.56-.15.44.03.55.46.13.28-.18.54-.49.8-.24.67v.55s-.2.59-.2.59l-.54.8.19.22,1.44-.58.21-.22.02-.13-.09-.16.17-.07,1.13.79.76.44.63.21.55-.17h0ZM321.7,34.53l-.31.08-.68-.12v-.2s.71-.28.71-.28l.31-.08.07.12-.1.48h0ZM320.15,36.39l-.54.19-.22-.04.09-.26.28-.31,1.25-.77h.22s.07.19.07.19l-.61.38-.23.2-.03.21-.28.21h0ZM356.38,55.75l-.28.13-.52-.05-.19-.3.27-.77.11.14h.45s.16.09.16.09l.05.19-.05.57h0ZM355.16,57.23l-.17.17-.29-.11-.11.25.06.61-.1.28-.26-.05v.11s.22.27.22.27l.02.3-.18.32-.17.15-.17-.02-.26.37-.35.76-.12.44.11.12-.08.25-.87,1.15-.33.11-.37-.16-.26-.34-.15-.51-.04-.4.06-.28.76-1.02.34-.67.19-.75.35-.48.52-.21.42-.47.32-.73.37-.32.42.09.18.28-.06.49h0Z"/>
  <path id="US-WV" class="cls-1" d="M425.9,127.48l-.03,1.56-.02,1.56-.03,1.55-.02,1.55,1.2-.9.63-.32,2.05-1.99h.27s.71.27.71.27l1.47-1.42.18-.51.17-.17.19.02.11.13-.07.3.11.14.61.34.84.19.12.02h.75s.33-.29.33-.29l.17-.55.34-.32.76-.14,1.36-.56.78.09.67.57.67.27.68-.02.27.13-.16.29.18.34.51.38.18.35-.17.32.06.24.27.16.17.35.05.55.12.1-.61,1.45-.42.99-1.06-.86-1.6-1.3-.7-.57-1.22-.99-.27.5-.14.91-.36.89-.29,1.23-1.38,1.95-1.05.93-.32-.02-.28.19-.46.58-.59.5-1.16-.02-.47.36-.3.58-.29.83-.45.65-.48,1.11-.35.59-.6.32-.87-.05-1.02-.45-.19-.5-.29-.31-.4-.21-.39.05-.27.34-.44,1.68-.64.81-.28.83-.85,1.03-.65,1.6-2.03,2.64-.55.87-.37.87.28.38.09.29-.43.65-.23.66-.52.44-.87.47-.26-.37-.15-.06-2,.81h-.47s-.48-.27-.48-.27l-.21.02-.18.09-.09.17v.7s-.41.34-.41.34l-.27.11-1.07.1-1.13.36h-.46l-1.16-.83-.65.61-.63.29-.74.56-.23.02-.68-.16-.86-.58-.72-.33-.44-.36-.35-.47-.25-.75-.3-.47.13-.41-.07-.38-1.3-.37-1.67-1.38-1.07-1.67-.34-.78-.39-.53-.1-.53-1-1.39-.27-.6-.02-.38.32-.72.07-.35-.11-1.78-.22-.33,1.09.4,1.04-.23.65-.55.25-.86.37-.51.46-.14.22-.38-.08-.93-.14-.64.37-.92.86-1.42.67-.58.48.26.3.44.1.63.1.08h.14s.36-.49.36-.49l.33-.19.13.05h.14s.02-.32.02-.32l-.25-.86.02-.51.3-.15.32-.58.34-1,.41-.52.48-.02.51-.41.56-.8.5-.23.44.34.56.02.66-.29,1.16-.84,1.66-1.4.84-1.13.02-.87.64-2.12,1.28-3.38.62-2.2-.02-1-.18-.82-.34-.63.21-.5,1.11-.54v1.42s-.01,1.42-.01,1.42v5.68s.01,1.42.01,1.42v1.41h9.81Z"/>
  <path id="US-WY" class="cls-1" d="M194.78,86.51v3.2s.02,3.18.02,3.18v3.18s.02,3.16.02,3.16v6.29s.02,3.12.02,3.12v3.12s-2.95,0-2.95,0h-63.2v-12.53s-.01-1.97-.01-1.97v-28.15s-.01-2.05-.01-2.05v-1.66s.01-1.65.01-1.65v-3.33h66.02v3.31s.02,3.3.02,3.3v3.28s.02,3.26.02,3.26v3.26s.02,3.24.02,3.24v3.22s.02,3.22.02,3.22Z"/>
</svg>