<?xml version="1.0" encoding="utf-8" standalone="no"?>
<!DOCTYPE svg PUBLIC "-//W3C//DTD SVG 1.1//EN"
  "http://www.w3.org/Graphics/SVG/1.1/DTD/svg11.dtd">
<svg xmlns:xlink="http://www.w3.org/1999/xlink" width="851.4pt" height="436.415035pt" viewBox="0 0 851.4 436.415035" xmlns="http://www.w3.org/2000/svg" version="1.1">
 <metadata>
  <rdf:RDF xmlns:dc="http://purl.org/dc/elements/1.1/" xmlns:cc="http://creativecommons.org/ns#" xmlns:rdf="http://www.w3.org/1999/02/22-rdf-syntax-ns#">
   <cc:Work>
    <dc:type rdf:resource="http://purl.org/dc/dcmitype/StillImage"/>
    <dc:date>2025-04-25T23:09:04.526659</dc:date>
    <dc:format>image/svg+xml</dc:format>
    <dc:creator>
     <cc:Agent>
      <dc:title>Matplotlib v3.8.4, https://matplotlib.org/</dc:title>
     </cc:Agent>
    </dc:creator>
   </cc:Work>
  </rdf:RDF>
 </metadata>
 <defs>
  <style type="text/css">*{stroke-linejoin: round; stroke-linecap: butt}</style>
 </defs>
 <g id="figure_1">
  <g id="patch_1">
   <path d="M 0 436.415035 
L 851.4 436.415035 
L 851.4 0 
L 0 0 
z
" style="fill: #ffffff"/>
  </g>
  <g id="axes_1">
   <g id="patch_2">
    <path d="M 7.2 411.16691 
L 844.2 411.16691 
L 844.2 22.318125 
L 7.2 22.318125 
z
" style="fill: #ffffff"/>
   </g>
   <g id="Quiver_1">
    <path d="M 42.489519 358.379251 
L 37.702959 365.749907 
L 40.492655 366.064545 
L 30.495859 374.542671 
L 34.174949 361.961779 
L 35.597057 364.382319 
L 40.383617 357.011662 
L 42.489519 358.379251 
" clip-path="url(#pbd517eafce)" style="fill: #0000ff"/>
    <path d="M 108.308315 358.415582 
L 103.267439 365.614699 
L 106.044455 366.026505 
L 95.757866 374.150583 
L 99.873782 361.705753 
L 101.210548 364.174449 
L 106.251424 356.975331 
L 108.308315 358.415582 
" clip-path="url(#pbd517eafce)" style="fill: #0000ff"/>
    <path d="M 174.125858 358.451035 
L 169.844246 364.132928 
L 172.605198 364.641398 
L 162.04135 372.401531 
L 166.589077 360.107926 
L 167.838872 362.62177 
L 172.120485 356.939878 
L 174.125858 358.451035 
" clip-path="url(#pbd517eafce)" style="fill: #0000ff"/>
    <path d="M 239.928242 358.502476 
L 235.35513 363.9525 
L 238.085687 364.60477 
L 227.130182 371.801399 
L 232.315074 359.762651 
L 233.431592 362.33846 
L 238.004705 356.888437 
L 239.928242 358.502476 
" clip-path="url(#pbd517eafce)" style="fill: #0000ff"/>
    <path d="M 305.712906 358.5676 
L 300.770759 363.685343 
L 303.449165 364.526499 
L 292.018336 370.94138 
L 298.030378 359.293638 
L 298.964497 361.941056 
L 303.906644 356.823313 
L 305.712906 358.5676 
" clip-path="url(#pbd517eafce)" style="fill: #0000ff"/>
    <path d="M 371.460097 358.657225 
L 367.292432 362.154311 
L 369.868241 363.270829 
L 357.829493 368.455721 
L 365.026122 357.500216 
L 365.678392 360.230774 
L 369.846057 356.733688 
L 371.460097 358.657225 
" clip-path="url(#pbd517eafce)" style="fill: #0000ff"/>
    <path d="M 437.198446 358.736313 
L 434.075876 360.842513 
L 436.520866 362.22216 
L 424.006099 366.120257 
L 432.308465 355.97702 
L 432.671742 358.7608 
L 435.794312 356.6546 
L 437.198446 358.736313 
" clip-path="url(#pbd517eafce)" style="fill: #0000ff"/>
    <path d="M 502.909666 358.814115 
L 499.55369 360.52407 
L 501.812319 362.191403 
L 488.915776 364.535277 
L 498.392408 355.479451 
L 498.41372 358.286753 
L 501.769696 356.576798 
L 502.909666 358.814115 
" clip-path="url(#pbd517eafce)" style="fill: #0000ff"/>
    <path d="M 568.570953 358.889508 
L 564.988799 360.053421 
L 566.958792 362.053553 
L 553.854365 362.351107 
L 564.630967 354.889244 
L 564.212857 357.665318 
L 567.795012 356.501405 
L 568.570953 358.889508 
" clip-path="url(#pbd517eafce)" style="fill: #0000ff"/>
    <path d="M 634.265845 358.927889 
L 630.568546 359.646572 
L 632.280101 361.871877 
L 619.237089 360.570185 
L 630.842736 354.477279 
L 630.089425 357.181706 
L 633.786724 356.463024 
L 634.265845 358.927889 
" clip-path="url(#pbd517eafce)" style="fill: #0000ff"/>
    <path d="M 699.957165 358.947898 
L 696.19984 359.210636 
L 697.627441 361.62794 
L 684.840286 358.746408 
L 697.101965 354.11329 
L 696.024682 356.705753 
L 699.782007 356.443015 
L 699.957165 358.947898 
" clip-path="url(#pbd517eafce)" style="fill: #0000ff"/>
    <path d="M 765.669072 358.950192 
L 761.904866 358.818743 
L 763.071969 361.372029 
L 750.656066 357.169661 
L 763.334867 353.843618 
L 761.992499 356.309272 
L 765.756704 356.440721 
L 765.669072 358.950192 
" clip-path="url(#pbd517eafce)" style="fill: #0000ff"/>
    <path d="M 831.359786 358.935499 
L 827.639658 358.346289 
L 828.486894 361.022778 
L 816.675677 355.338615 
L 829.665315 353.582521 
L 828.032465 355.866203 
L 831.752593 356.455414 
L 831.359786 358.935499 
" clip-path="url(#pbd517eafce)" style="fill: #0000ff"/>
    <path d="M 42.489519 278.899322 
L 37.702959 286.269978 
L 40.492655 286.584616 
L 30.495859 295.062742 
L 34.174949 282.48185 
L 35.597057 284.902389 
L 40.383617 277.531733 
L 42.489519 278.899322 
" clip-path="url(#pbd517eafce)" style="fill: #0000ff"/>
    <path d="M 108.295591 278.953492 
L 103.12984 286.063538 
L 105.899246 286.523746 
L 95.47244 294.467061 
L 99.804921 282.095959 
L 101.098398 284.587609 
L 106.264149 277.477563 
L 108.295591 278.953492 
" clip-path="url(#pbd517eafce)" style="fill: #0000ff"/>
    <path d="M 174.098878 279.005639 
L 168.568096 285.835586 
L 171.309621 286.440103 
L 160.481384 293.826835 
L 165.455381 281.699433 
L 166.616683 284.255363 
L 172.147465 277.425416 
L 174.098878 279.005639 
" clip-path="url(#pbd517eafce)" style="fill: #0000ff"/>
    <path d="M 239.869605 279.087671 
L 234.927458 284.205414 
L 237.605863 285.04657 
L 226.175034 291.46145 
L 232.187077 279.813708 
L 233.121195 282.461127 
L 238.063342 277.343384 
L 239.869605 279.087671 
" clip-path="url(#pbd517eafce)" style="fill: #0000ff"/>
    <path d="M 305.649869 279.148546 
L 300.362765 283.909075 
L 302.97597 284.935019 
L 291.125506 290.536898 
L 297.935409 279.336909 
L 298.682578 282.043039 
L 303.969682 277.282509 
L 305.649869 279.148546 
" clip-path="url(#pbd517eafce)" style="fill: #0000ff"/>
    <path d="M 371.373202 279.243973 
L 366.916606 282.364515 
L 369.385301 283.701281 
L 356.940472 287.817197 
L 365.06455 277.530609 
L 365.476355 280.307625 
L 369.932952 277.187082 
L 371.373202 279.243973 
" clip-path="url(#pbd517eafce)" style="fill: #0000ff"/>
    <path d="M 437.105057 279.313612 
L 432.346689 281.951219 
L 434.662131 283.538711 
L 421.855245 286.33124 
L 431.01006 276.9502 
L 431.129332 279.755049 
L 435.8877 277.117442 
L 437.105057 279.313612 
" clip-path="url(#pbd517eafce)" style="fill: #0000ff"/>
    <path d="M 502.769087 279.395311 
L 497.656689 281.256072 
L 499.695286 283.186234 
L 486.609226 283.940945 
L 497.118848 276.107529 
L 496.797877 278.896504 
L 501.910274 277.035743 
L 502.769087 279.395311 
" clip-path="url(#pbd517eafce)" style="fill: #0000ff"/>
    <path d="M 568.465409 279.438849 
L 563.164348 280.662695 
L 564.952522 282.826912 
L 551.872028 281.981208 
L 563.257966 275.486983 
L 562.599496 278.216052 
L 567.900556 276.992206 
L 568.465409 279.438849 
" clip-path="url(#pbd517eafce)" style="fill: #0000ff"/>
    <path d="M 634.201016 279.458809 
L 628.813463 280.21598 
L 630.406208 282.527811 
L 617.449197 280.545285 
L 629.357817 275.068122 
L 628.463999 277.729417 
L 633.851552 276.972246 
L 634.201016 279.458809 
" clip-path="url(#pbd517eafce)" style="fill: #0000ff"/>
    <path d="M 699.935294 279.469307 
L 694.50225 279.754041 
L 695.887445 282.195891 
L 683.152528 279.091631 
L 695.493198 274.673215 
L 694.370834 277.246482 
L 699.803878 276.961748 
L 699.935294 279.469307 
" clip-path="url(#pbd517eafce)" style="fill: #0000ff"/>
    <path d="M 765.669072 279.470263 
L 761.904866 279.338814 
L 763.071969 281.8921 
L 750.656066 277.689732 
L 763.334867 274.363689 
L 761.992499 276.829343 
L 765.756704 276.960792 
L 765.669072 279.470263 
" clip-path="url(#pbd517eafce)" style="fill: #0000ff"/>
    <path d="M 831.403183 279.461669 
L 826.003235 278.798639 
L 826.943363 281.443929 
L 814.940967 276.175435 
L 827.861405 273.967079 
L 826.309249 276.306356 
L 831.709197 276.969386 
L 831.403183 279.461669 
" clip-path="url(#pbd517eafce)" style="fill: #0000ff"/>
    <path d="M 42.452289 199.355966 
L 37.286538 206.466011 
L 40.055944 206.926219 
L 29.629138 214.869535 
L 33.961619 202.498433 
L 35.255096 204.990083 
L 40.420847 197.880037 
L 42.452289 199.355966 
" clip-path="url(#pbd517eafce)" style="fill: #0000ff"/>
    <path d="M 108.255577 199.408113 
L 102.724794 206.23806 
L 105.46632 206.842577 
L 94.638082 214.229309 
L 99.612079 202.101906 
L 100.773381 204.657837 
L 106.304163 197.827889 
L 108.255577 199.408113 
" clip-path="url(#pbd517eafce)" style="fill: #0000ff"/>
    <path d="M 174.05619 199.458095 
L 169.29566 204.745199 
L 172.00179 205.492367 
L 160.801801 212.30227 
L 166.40368 200.451806 
L 167.429624 203.065012 
L 172.190153 197.777908 
L 174.05619 199.458095 
" clip-path="url(#pbd517eafce)" style="fill: #0000ff"/>
    <path d="M 239.838617 199.521132 
L 234.720874 204.463279 
L 237.368292 205.397398 
L 225.72055 211.40944 
L 232.135431 199.978611 
L 232.976587 202.657017 
L 238.09433 197.71487 
L 239.838617 199.521132 
" clip-path="url(#pbd517eafce)" style="fill: #0000ff"/>
    <path d="M 305.599887 199.593708 
L 300.070882 204.071008 
L 302.626812 205.23231 
L 290.49941 210.206307 
L 297.886142 199.378069 
L 298.490659 202.119594 
L 304.019663 197.642294 
L 305.599887 199.593708 
" clip-path="url(#pbd517eafce)" style="fill: #0000ff"/>
    <path d="M 371.336871 199.670952 
L 365.37015 203.545787 
L 367.790689 204.967894 
L 355.209797 208.646984 
L 363.687923 198.650189 
L 364.002561 201.439885 
L 369.969283 197.56505 
L 371.336871 199.670952 
" clip-path="url(#pbd517eafce)" style="fill: #0000ff"/>
    <path d="M 437.066364 199.73666 
L 430.727298 202.966575 
L 432.985927 204.633908 
L 420.089385 206.977782 
L 429.566016 197.921955 
L 429.587328 200.729258 
L 435.926394 197.499343 
L 437.066364 199.73666 
" clip-path="url(#pbd517eafce)" style="fill: #0000ff"/>
    <path d="M 502.748432 199.8051 
L 496.02154 202.121354 
L 498.02614 204.086801 
L 484.928902 204.613013 
L 495.573635 196.964209 
L 495.204038 199.747157 
L 501.93093 197.430903 
L 502.748432 199.8051 
" clip-path="url(#pbd517eafce)" style="fill: #0000ff"/>
    <path d="M 568.486715 199.836207 
L 561.583546 201.557361 
L 563.409219 203.69004 
L 550.315957 203.072751 
L 561.586821 196.380803 
L 560.976081 199.120948 
L 567.87925 197.399795 
L 568.486715 199.836207 
" clip-path="url(#pbd517eafce)" style="fill: #0000ff"/>
    <path d="M 634.179291 199.864143 
L 628.779344 200.527173 
L 630.3315 202.866449 
L 617.411062 200.658094 
L 629.413458 195.389599 
L 628.47333 198.03489 
L 633.873277 197.37186 
L 634.179291 199.864143 
" clip-path="url(#pbd517eafce)" style="fill: #0000ff"/>
    <path d="M 699.957165 199.870443 
L 694.529918 200.249953 
L 695.957518 202.667257 
L 683.170364 199.785725 
L 695.432043 195.152607 
L 694.35476 197.74507 
L 699.782007 197.36556 
L 699.957165 199.870443 
" clip-path="url(#pbd517eafce)" style="fill: #0000ff"/>
    <path d="M 765.690976 199.87331 
L 760.251305 199.77836 
L 761.462791 202.310889 
L 748.975438 198.325848 
L 761.59426 194.779037 
L 760.295128 197.267743 
L 765.734799 197.362692 
L 765.690976 199.87331 
" clip-path="url(#pbd517eafce)" style="fill: #0000ff"/>
    <path d="M 831.490482 199.871781 
L 826.057438 199.587047 
L 827.179802 202.160313 
L 814.839131 197.741897 
L 827.574049 194.637637 
L 826.188854 197.079488 
L 831.621898 197.364222 
L 831.490482 199.871781 
" clip-path="url(#pbd517eafce)" style="fill: #0000ff"/>
    <path d="M 42.439255 119.657728 
L 37.150204 126.676537 
L 39.911156 127.185007 
L 29.347308 134.94514 
L 33.895035 122.651535 
L 35.14483 125.165379 
L 40.433881 118.146571 
L 42.439255 119.657728 
" clip-path="url(#pbd517eafce)" style="fill: #0000ff"/>
    <path d="M 108.255577 119.692261 
L 102.724794 126.522209 
L 105.46632 127.126725 
L 94.638082 134.513458 
L 99.612079 122.386055 
L 100.773381 124.941985 
L 106.304163 118.112038 
L 108.255577 119.692261 
" clip-path="url(#pbd517eafce)" style="fill: #0000ff"/>
    <path d="M 174.041386 119.758399 
L 168.047644 126.185901 
L 170.740322 126.980184 
L 159.423189 133.593583 
L 165.231034 121.84269 
L 166.211214 124.473403 
L 172.204957 118.045901 
L 174.041386 119.758399 
" clip-path="url(#pbd517eafce)" style="fill: #0000ff"/>
    <path d="M 239.790156 119.849687 
L 234.420774 124.517219 
L 237.015676 125.588613 
L 225.069251 130.982821 
L 232.073584 119.903386 
L 232.77341 122.622144 
L 238.142791 117.954612 
L 239.790156 119.849687 
" clip-path="url(#pbd517eafce)" style="fill: #0000ff"/>
    <path d="M 305.54774 119.91787 
L 299.791988 124.099669 
L 302.283638 125.393146 
L 289.912536 129.725627 
L 297.855852 119.298821 
L 298.316059 122.068227 
L 304.071811 117.886429 
L 305.54774 119.91787 
" clip-path="url(#pbd517eafce)" style="fill: #0000ff"/>
    <path d="M 371.280827 119.989445 
L 365.119489 123.546695 
L 367.462284 125.093534 
L 354.706085 128.10915 
L 363.695784 118.569765 
L 363.863989 121.372105 
L 370.025327 117.814855 
L 371.280827 119.989445 
" clip-path="url(#pbd517eafce)" style="fill: #0000ff"/>
    <path d="M 437.026976 120.040019 
L 430.579049 123.046737 
L 432.778113 124.791878 
L 419.807627 126.684242 
L 429.59453 117.964662 
L 429.517855 120.770998 
L 435.965782 117.76428 
L 437.026976 120.040019 
" clip-path="url(#pbd517eafce)" style="fill: #0000ff"/>
    <path d="M 502.789612 120.07426 
L 496.147654 122.623869 
L 498.219626 124.518158 
L 485.148731 125.501137 
L 495.52004 117.485497 
L 495.247792 120.279648 
L 501.88975 117.730039 
L 502.789612 120.07426 
" clip-path="url(#pbd517eafce)" style="fill: #0000ff"/>
    <path d="M 568.50793 120.114869 
L 561.635851 121.956238 
L 563.498465 124.05673 
L 550.396424 123.668044 
L 561.548781 116.780411 
L 560.985956 119.530798 
L 567.858035 117.68943 
L 568.50793 120.114869 
" clip-path="url(#pbd517eafce)" style="fill: #0000ff"/>
    <path d="M 634.2443 120.138576 
L 627.237885 121.373996 
L 628.910342 123.628833 
L 615.892034 122.099707 
L 627.60225 116.210276 
L 626.801854 118.901143 
L 633.808269 117.665723 
L 634.2443 120.138576 
" clip-path="url(#pbd517eafce)" style="fill: #0000ff"/>
    <path d="M 699.97901 120.152872 
L 694.559213 120.627043 
L 696.028783 123.019064 
L 683.193287 120.361137 
L 695.372239 115.514729 
L 694.340365 118.125598 
L 699.760162 117.651427 
L 699.97901 120.152872 
" clip-path="url(#pbd517eafce)" style="fill: #0000ff"/>
    <path d="M 765.756704 120.156885 
L 760.319518 120.346756 
L 761.661886 122.81241 
L 748.983086 119.486367 
L 761.398988 115.283998 
L 760.231886 117.837285 
L 765.669072 117.647414 
L 765.756704 120.156885 
" clip-path="url(#pbd517eafce)" style="fill: #0000ff"/>
    <path d="M 831.512373 120.156885 
L 827.748168 120.025436 
L 828.91527 122.578723 
L 816.499368 118.376354 
L 829.178168 115.050311 
L 827.835801 117.515965 
L 831.600006 117.647414 
L 831.512373 120.156885 
" clip-path="url(#pbd517eafce)" style="fill: #0000ff"/>
    <path d="M 42.384106 39.890922 
L 36.618331 46.523687 
L 39.337089 47.223513 
L 28.257654 54.227846 
L 33.651862 42.281421 
L 34.723255 44.876323 
L 40.48903 38.243558 
L 42.384106 39.890922 
" clip-path="url(#pbd517eafce)" style="fill: #0000ff"/>
    <path d="M 108.183001 39.939383 
L 102.077996 46.261301 
L 104.756402 47.102457 
L 93.325572 53.517338 
L 99.337615 41.869596 
L 100.271734 44.517014 
L 106.376739 38.195096 
L 108.183001 39.939383 
" clip-path="url(#pbd517eafce)" style="fill: #0000ff"/>
    <path d="M 173.979421 39.985454 
L 168.776205 44.837532 
L 171.406917 45.817712 
L 159.656025 51.625557 
L 166.269423 40.308424 
L 167.063707 43.001102 
L 172.266923 38.149025 
L 173.979421 39.985454 
" clip-path="url(#pbd517eafce)" style="fill: #0000ff"/>
    <path d="M 239.722052 40.069927 
L 235.377076 43.344101 
L 237.89092 44.593896 
L 225.597315 49.141623 
L 233.357448 38.577775 
L 233.865918 41.338727 
L 238.210895 38.064553 
L 239.722052 40.069927 
" clip-path="url(#pbd517eafce)" style="fill: #0000ff"/>
    <path d="M 305.475089 40.131964 
L 299.441651 43.902075 
L 301.837002 45.36621 
L 289.193818 48.825173 
L 297.845121 38.977863 
L 298.111023 41.772626 
L 304.144462 38.002515 
L 305.475089 40.131964 
" clip-path="url(#pbd517eafce)" style="fill: #0000ff"/>
    <path d="M 371.261756 40.165325 
L 365.039274 43.614503 
L 367.354716 45.201994 
L 354.54783 47.994524 
L 363.702645 38.613484 
L 363.821917 41.418333 
L 370.044399 37.969155 
L 371.261756 40.165325 
" clip-path="url(#pbd517eafce)" style="fill: #0000ff"/>
    <path d="M 436.925785 40.247024 
L 430.240342 42.680326 
L 432.278939 44.610488 
L 419.192879 45.365199 
L 429.702501 37.531783 
L 429.381529 40.320758 
L 436.066973 37.887456 
L 436.925785 40.247024 
" clip-path="url(#pbd517eafce)" style="fill: #0000ff"/>
    <path d="M 502.685743 40.274104 
L 495.846847 42.235126 
L 497.745837 44.302791 
L 484.639008 44.142826 
L 495.66946 37.061607 
L 495.154722 39.821398 
L 501.993618 37.860376 
L 502.685743 40.274104 
" clip-path="url(#pbd517eafce)" style="fill: #0000ff"/>
    <path d="M 568.486715 40.285446 
L 561.583546 42.006599 
L 563.409219 44.139279 
L 550.315957 43.521989 
L 561.586821 36.830041 
L 560.976081 39.570187 
L 567.87925 37.849033 
L 568.486715 40.285446 
" clip-path="url(#pbd517eafce)" style="fill: #0000ff"/>
    <path d="M 634.222688 40.307282 
L 628.849169 41.158364 
L 630.482019 43.442046 
L 617.492381 41.685953 
L 629.303598 36.00179 
L 628.456362 38.678279 
L 633.829881 37.827197 
L 634.222688 40.307282 
" clip-path="url(#pbd517eafce)" style="fill: #0000ff"/>
    <path d="M 700.022593 40.313381 
L 694.622646 40.976412 
L 696.174801 43.315688 
L 683.254364 41.107332 
L 695.25676 35.838838 
L 694.316632 38.484128 
L 699.716579 37.821098 
L 700.022593 40.313381 
" clip-path="url(#pbd517eafce)" style="fill: #0000ff"/>
    <path d="M 765.822312 40.317962 
L 762.070145 40.646234 
L 763.539715 43.038255 
L 750.704219 40.380328 
L 762.883171 35.53392 
L 761.851297 38.144789 
L 765.603464 37.816517 
L 765.822312 40.317962 
" clip-path="url(#pbd517eafce)" style="fill: #0000ff"/>
    <path d="M 831.621898 40.321019 
L 827.860559 40.518142 
L 829.245754 42.959993 
L 816.510837 39.855733 
L 828.851508 35.437317 
L 827.729144 38.010584 
L 831.490482 37.81346 
L 831.621898 40.321019 
" clip-path="url(#pbd517eafce)" style="fill: #0000ff"/>
   </g>
   <g id="matplotlib.axis_1"/>
   <g id="matplotlib.axis_2"/>
   <g id="LineCollection_1">
    <path d="M 801.149741 411.16691 
L 788.318392 382.043785 
L 795.781222 372.517064 
L 789.8415 368.019635 
L 787.647259 380.212226 
L 747.511941 336.197378 
L 637.844103 336.58533 
L 603.519906 357.588812 
L 580.649164 336.672619 
L 533.694017 330.882143 
L 454.902282 295.674875 
L 432.224441 294.650866 
L 384.85938 262.503581 
L 362.82454 215.680384 
L 359.75421 201.25306 
L 365.545238 202.123281 
L 350.241814 183.816484 
L 334.628946 181.005484 
L 306.039515 154.434739 
L 295.679161 155.553875 
L 260.579344 120.99582 
L 204.272551 93.864265 
L 147.620145 93.294311 
L 126.328774 106.689063 
L 82.902095 92.271301 
L 38.289882 98.706195 
L 7.2 82.583356 
" clip-path="url(#pbd517eafce)" style="fill: none; stroke: #000000; stroke-width: 0.5"/>
    <path d="M 189.744747 364.19071 
L 187.900138 364.045303 
L 155.22765 365.247327 
L 121.136541 383.211492 
L 71.199477 382.857791 
L 40.367579 370.016385 
L 34.35552 351.62605 
L 40.118416 337.429118 
L 11.938897 319.59523 
L 22.415795 307.83046 
L 75.117764 324.664204 
L 102.115768 319.507913 
L 140.932934 343.771652 
L 166.158667 347.543845 
L 176.796315 345.851724 
L 192.421239 323.218746 
L 205.297334 321.113547 
L 227.581337 334.340015 
L 208.620845 358.917012 
L 189.744747 364.19071 
" clip-path="url(#pbd517eafce)" style="fill: none; stroke: #000000; stroke-width: 0.5"/>
   </g>
   <g id="LineCollection_2"/>
   <g id="LineCollection_3"/>
   <g id="line2d_1">
    <path d="M 502.338918 411.16691 
L 502.338918 22.318125 
L 502.338918 22.318125 
" clip-path="url(#pbd517eafce)" style="fill: none; stroke-dasharray: 1,1; stroke-dashoffset: 0; stroke: #000000"/>
   </g>
   <g id="line2d_2">
    <defs>
     <path id="m753f570838" d="M 0 5 
C 1.326016 5 2.597899 4.473168 3.535534 3.535534 
C 4.473168 2.597899 5 1.326016 5 0 
C 5 -1.326016 4.473168 -2.597899 3.535534 -3.535534 
C 2.597899 -4.473168 1.326016 -5 0 -5 
C -1.326016 -5 -2.597899 -4.473168 -3.535534 -3.535534 
C -4.473168 -2.597899 -5 -1.326016 -5 0 
C -5 1.326016 -4.473168 2.597899 -3.535534 3.535534 
C -2.597899 4.473168 -1.326016 5 0 5 
z
" style="stroke: #ff0000"/>
    </defs>
    <g clip-path="url(#pbd517eafce)">
     <use xlink:href="#m753f570838" x="791.525359" y="347.655356" style="fill: #ff0000; stroke: #ff0000"/>
    </g>
   </g>
   <g id="line2d_3">
    <defs>
     <path id="m9c588fa799" d="M 0 5 
C 1.326016 5 2.597899 4.473168 3.535534 3.535534 
C 4.473168 2.597899 5 1.326016 5 0 
C 5 -1.326016 4.473168 -2.597899 3.535534 -3.535534 
C 2.597899 -4.473168 1.326016 -5 0 -5 
C -1.326016 -5 -2.597899 -4.473168 -3.535534 -3.535534 
C -4.473168 -2.597899 -5 -1.326016 -5 0 
C -5 1.326016 -4.473168 2.597899 -3.535534 3.535534 
C -2.597899 4.473168 -1.326016 5 0 5 
z
" style="stroke: #008000"/>
    </defs>
    <g clip-path="url(#pbd517eafce)">
     <use xlink:href="#m9c588fa799" x="59.874641" y="86.215653" style="fill: #008000; stroke: #008000"/>
    </g>
   </g>
   <g id="line2d_4">
    <path d="M 791.525359 347.655356 
L 59.874641 86.215653 
" clip-path="url(#pbd517eafce)" style="fill: none; stroke: #000000; stroke-width: 2; stroke-linecap: square"/>
   </g>
   <g id="patch_3">
    <path d="M 7.2 411.16691 
L 7.2 22.318125 
" style="fill: none; stroke: #000000; stroke-width: 0.8; stroke-linejoin: miter; stroke-linecap: square"/>
   </g>
   <g id="patch_4">
    <path d="M 844.2 411.16691 
L 844.2 22.318125 
" style="fill: none; stroke: #000000; stroke-width: 0.8; stroke-linejoin: miter; stroke-linecap: square"/>
   </g>
   <g id="patch_5">
    <path d="M 7.2 411.16691 
L 844.2 411.16691 
" style="fill: none; stroke: #000000; stroke-width: 0.8; stroke-linejoin: miter; stroke-linecap: square"/>
   </g>
   <g id="patch_6">
    <path d="M 7.2 22.318125 
L 844.2 22.318125 
" style="fill: none; stroke: #000000; stroke-width: 0.8; stroke-linejoin: miter; stroke-linecap: square"/>
   </g>
   <g id="text_1">
    <text style="font: 10px 'DejaVu Sans', 'Bitstream Vera Sans', 'Computer Modern Sans Serif', 'Lucida Grande', 'Verdana', 'Geneva', 'Lucid', 'Arial', 'Helvetica', 'Avant Garde', sans-serif; text-anchor: middle" x="502.704" y="427.135348" transform="rotate(-0 502.704 427.135348)">119°W</text>
   </g>
   <g id="text_2">
    <text style="font: 12px 'DejaVu Sans', 'Bitstream Vera Sans', 'Computer Modern Sans Serif', 'Lucida Grande', 'Verdana', 'Geneva', 'Lucid', 'Arial', 'Helvetica', 'Avant Garde', sans-serif; text-anchor: end" x="791.525359" y="345.159731" transform="rotate(-0 791.525359 345.159731)">KSMO</text>
   </g>
   <g id="text_3">
    <text style="font: 12px 'DejaVu Sans', 'Bitstream Vera Sans', 'Computer Modern Sans Serif', 'Lucida Grande', 'Verdana', 'Geneva', 'Lucid', 'Arial', 'Helvetica', 'Avant Garde', sans-serif; text-anchor: end" x="59.874641" y="83.720028" transform="rotate(-0 59.874641 83.720028)">KSBA</text>
   </g>
   <g id="text_4">
    <text style="font: 12px 'DejaVu Sans', 'Bitstream Vera Sans', 'Computer Modern Sans Serif', 'Lucida Grande', 'Verdana', 'Geneva', 'Lucid', 'Arial', 'Helvetica', 'Avant Garde', sans-serif; text-anchor: middle" x="425.7" y="16.318125" transform="rotate(-0 425.7 16.318125)">Wind Data for Route: KSMO to KSBA (FL120)</text>
   </g>
  </g>
 </g>
 <defs>
  <clipPath id="pbd517eafce">
   <rect x="7.2" y="22.318125" width="837" height="388.848785"/>
  </clipPath>
 </defs>
</svg>
