<?xml version="1.0" encoding="utf-8" standalone="no"?>
<!DOCTYPE svg PUBLIC "-//W3C//DTD SVG 1.1//EN"
  "http://www.w3.org/Graphics/SVG/1.1/DTD/svg11.dtd">
<svg xmlns:xlink="http://www.w3.org/1999/xlink" width="851.4pt" height="436.415035pt" viewBox="0 0 851.4 436.415035" xmlns="http://www.w3.org/2000/svg" version="1.1">
 <metadata>
  <rdf:RDF xmlns:dc="http://purl.org/dc/elements/1.1/" xmlns:cc="http://creativecommons.org/ns#" xmlns:rdf="http://www.w3.org/1999/02/22-rdf-syntax-ns#">
   <cc:Work>
    <dc:type rdf:resource="http://purl.org/dc/dcmitype/StillImage"/>
    <dc:date>2025-04-25T23:09:00.184189</dc:date>
    <dc:format>image/svg+xml</dc:format>
    <dc:creator>
     <cc:Agent>
      <dc:title>Matplotlib v3.8.4, https://matplotlib.org/</dc:title>
     </cc:Agent>
    </dc:creator>
   </cc:Work>
  </rdf:RDF>
 </metadata>
 <defs>
  <style type="text/css">*{stroke-linejoin: round; stroke-linecap: butt}</style>
 </defs>
 <g id="figure_1">
  <g id="patch_1">
   <path d="M 0 436.415035 
L 851.4 436.415035 
L 851.4 0 
L 0 0 
z
" style="fill: #ffffff"/>
  </g>
  <g id="axes_1">
   <g id="patch_2">
    <path d="M 7.2 411.16691 
L 844.2 411.16691 
L 844.2 22.318125 
L 7.2 22.318125 
z
" style="fill: #ffffff"/>
   </g>
   <g id="Quiver_1"/>
   <g id="matplotlib.axis_1"/>
   <g id="matplotlib.axis_2"/>
   <g id="LineCollection_1">
    <path d="M 801.149741 411.16691 
L 788.318392 382.043785 
L 795.781222 372.517064 
L 789.8415 368.019635 
L 787.647259 380.212226 
L 747.511941 336.197378 
L 637.844103 336.58533 
L 603.519906 357.588812 
L 580.649164 336.672619 
L 533.694017 330.882143 
L 454.902282 295.674875 
L 432.224441 294.650866 
L 384.85938 262.503581 
L 362.82454 215.680384 
L 359.75421 201.25306 
L 365.545238 202.123281 
L 350.241814 183.816484 
L 334.628946 181.005484 
L 306.039515 154.434739 
L 295.679161 155.553875 
L 260.579344 120.99582 
L 204.272551 93.864265 
L 147.620145 93.294311 
L 126.328774 106.689063 
L 82.902095 92.271301 
L 38.289882 98.706195 
L 7.2 82.583356 
" clip-path="url(#p23013f889c)" style="fill: none; stroke: #000000; stroke-width: 0.5"/>
    <path d="M 189.744747 364.19071 
L 187.900138 364.045303 
L 155.22765 365.247327 
L 121.136541 383.211492 
L 71.199477 382.857791 
L 40.367579 370.016385 
L 34.35552 351.62605 
L 40.118416 337.429118 
L 11.938897 319.59523 
L 22.415795 307.83046 
L 75.117764 324.664204 
L 102.115768 319.507913 
L 140.932934 343.771652 
L 166.158667 347.543845 
L 176.796315 345.851724 
L 192.421239 323.218746 
L 205.297334 321.113547 
L 227.581337 334.340015 
L 208.620845 358.917012 
L 189.744747 364.19071 
" clip-path="url(#p23013f889c)" style="fill: none; stroke: #000000; stroke-width: 0.5"/>
   </g>
   <g id="LineCollection_2"/>
   <g id="LineCollection_3"/>
   <g id="line2d_1">
    <path d="M 502.338918 411.16691 
L 502.338918 22.318125 
L 502.338918 22.318125 
" clip-path="url(#p23013f889c)" style="fill: none; stroke-dasharray: 1,1; stroke-dashoffset: 0; stroke: #000000"/>
   </g>
   <g id="line2d_2">
    <defs>
     <path id="m85cf7ea161" d="M 0 5 
C 1.326016 5 2.597899 4.473168 3.535534 3.535534 
C 4.473168 2.597899 5 1.326016 5 0 
C 5 -1.326016 4.473168 -2.597899 3.535534 -3.535534 
C 2.597899 -4.473168 1.326016 -5 0 -5 
C -1.326016 -5 -2.597899 -4.473168 -3.535534 -3.535534 
C -4.473168 -2.597899 -5 -1.326016 -5 0 
C -5 1.326016 -4.473168 2.597899 -3.535534 3.535534 
C -2.597899 4.473168 -1.326016 5 0 5 
z
" style="stroke: #ff0000"/>
    </defs>
    <g clip-path="url(#p23013f889c)">
     <use xlink:href="#m85cf7ea161" x="791.525359" y="347.655356" style="fill: #ff0000; stroke: #ff0000"/>
    </g>
   </g>
   <g id="line2d_3">
    <defs>
     <path id="m4f5e934fac" d="M 0 5 
C 1.326016 5 2.597899 4.473168 3.535534 3.535534 
C 4.473168 2.597899 5 1.326016 5 0 
C 5 -1.326016 4.473168 -2.597899 3.535534 -3.535534 
C 2.597899 -4.473168 1.326016 -5 0 -5 
C -1.326016 -5 -2.597899 -4.473168 -3.535534 -3.535534 
C -4.473168 -2.597899 -5 -1.326016 -5 0 
C -5 1.326016 -4.473168 2.597899 -3.535534 3.535534 
C -2.597899 4.473168 -1.326016 5 0 5 
z
" style="stroke: #008000"/>
    </defs>
    <g clip-path="url(#p23013f889c)">
     <use xlink:href="#m4f5e934fac" x="59.874641" y="86.215653" style="fill: #008000; stroke: #008000"/>
    </g>
   </g>
   <g id="line2d_4">
    <path d="M 791.525359 347.655356 
L 59.874641 86.215653 
" clip-path="url(#p23013f889c)" style="fill: none; stroke: #000000; stroke-width: 2; stroke-linecap: square"/>
   </g>
   <g id="patch_3">
    <path d="M 7.2 411.16691 
L 7.2 22.318125 
" style="fill: none; stroke: #000000; stroke-width: 0.8; stroke-linejoin: miter; stroke-linecap: square"/>
   </g>
   <g id="patch_4">
    <path d="M 844.2 411.16691 
L 844.2 22.318125 
" style="fill: none; stroke: #000000; stroke-width: 0.8; stroke-linejoin: miter; stroke-linecap: square"/>
   </g>
   <g id="patch_5">
    <path d="M 7.2 411.16691 
L 844.2 411.16691 
" style="fill: none; stroke: #000000; stroke-width: 0.8; stroke-linejoin: miter; stroke-linecap: square"/>
   </g>
   <g id="patch_6">
    <path d="M 7.2 22.318125 
L 844.2 22.318125 
" style="fill: none; stroke: #000000; stroke-width: 0.8; stroke-linejoin: miter; stroke-linecap: square"/>
   </g>
   <g id="text_1">
    <text style="font: 10px 'DejaVu Sans', 'Bitstream Vera Sans', 'Computer Modern Sans Serif', 'Lucida Grande', 'Verdana', 'Geneva', 'Lucid', 'Arial', 'Helvetica', 'Avant Garde', sans-serif; text-anchor: middle" x="502.704" y="427.135348" transform="rotate(-0 502.704 427.135348)">119°W</text>
   </g>
   <g id="text_2">
    <text style="font: 12px 'DejaVu Sans', 'Bitstream Vera Sans', 'Computer Modern Sans Serif', 'Lucida Grande', 'Verdana', 'Geneva', 'Lucid', 'Arial', 'Helvetica', 'Avant Garde', sans-serif; text-anchor: end" x="791.525359" y="345.159731" transform="rotate(-0 791.525359 345.159731)">KSMO</text>
   </g>
   <g id="text_3">
    <text style="font: 12px 'DejaVu Sans', 'Bitstream Vera Sans', 'Computer Modern Sans Serif', 'Lucida Grande', 'Verdana', 'Geneva', 'Lucid', 'Arial', 'Helvetica', 'Avant Garde', sans-serif; text-anchor: end" x="59.874641" y="83.720028" transform="rotate(-0 59.874641 83.720028)">KSBA</text>
   </g>
   <g id="text_4">
    <text style="font: 12px 'DejaVu Sans', 'Bitstream Vera Sans', 'Computer Modern Sans Serif', 'Lucida Grande', 'Verdana', 'Geneva', 'Lucid', 'Arial', 'Helvetica', 'Avant Garde', sans-serif; text-anchor: middle" x="425.7" y="16.318125" transform="rotate(-0 425.7 16.318125)">Wind Data for Route: KSMO to KSBA (FL070)</text>
   </g>
  </g>
 </g>
 <defs>
  <clipPath id="p23013f889c">
   <rect x="7.2" y="22.318125" width="837" height="388.848785"/>
  </clipPath>
 </defs>
</svg>
