<?xml version="1.0" encoding="utf-8" standalone="no"?>
<!DOCTYPE svg PUBLIC "-//W3C//DTD SVG 1.1//EN"
  "http://www.w3.org/Graphics/SVG/1.1/DTD/svg11.dtd">
<svg xmlns:xlink="http://www.w3.org/1999/xlink" width="851.4pt" height="436.415035pt" viewBox="0 0 851.4 436.415035" xmlns="http://www.w3.org/2000/svg" version="1.1">
 <metadata>
  <rdf:RDF xmlns:dc="http://purl.org/dc/elements/1.1/" xmlns:cc="http://creativecommons.org/ns#" xmlns:rdf="http://www.w3.org/1999/02/22-rdf-syntax-ns#">
   <cc:Work>
    <dc:type rdf:resource="http://purl.org/dc/dcmitype/StillImage"/>
    <dc:date>2025-04-25T23:09:01.910107</dc:date>
    <dc:format>image/svg+xml</dc:format>
    <dc:creator>
     <cc:Agent>
      <dc:title>Matplotlib v3.8.4, https://matplotlib.org/</dc:title>
     </cc:Agent>
    </dc:creator>
   </cc:Work>
  </rdf:RDF>
 </metadata>
 <defs>
  <style type="text/css">*{stroke-linejoin: round; stroke-linecap: butt}</style>
 </defs>
 <g id="figure_1">
  <g id="patch_1">
   <path d="M 0 436.415035 
L 851.4 436.415035 
L 851.4 0 
L 0 0 
z
" style="fill: #ffffff"/>
  </g>
  <g id="axes_1">
   <g id="patch_2">
    <path d="M 7.2 411.16691 
L 844.2 411.16691 
L 844.2 22.318125 
L 7.2 22.318125 
z
" style="fill: #ffffff"/>
   </g>
   <g id="Quiver_1">
    <path d="M 41.750114 358.471509 
L 40.974061 358.785055 
L 42.377205 360.023615 
L 33.676039 360.830914 
L 40.495931 355.367298 
L 40.346969 357.232949 
L 41.123022 356.919404 
L 41.750114 358.471509 
" clip-path="url(#p13ab16edc6)" style="fill: #0000ff"/>
    <path d="M 107.524585 358.495884 
L 106.724158 358.740599 
L 108.014015 360.096738 
L 99.275599 360.142608 
L 106.545724 355.294175 
L 106.234728 357.139745 
L 107.035155 356.895029 
L 107.524585 358.495884 
" clip-path="url(#p13ab16edc6)" style="fill: #0000ff"/>
    <path d="M 173.297194 358.514166 
L 172.478484 358.688188 
L 173.645238 360.151585 
L 164.936076 359.435677 
L 172.601105 355.239328 
L 172.13044 357.050769 
L 172.94915 356.876747 
L 173.297194 358.514166 
" clip-path="url(#p13ab16edc6)" style="fill: #0000ff"/>
    <path d="M 239.071462 358.694354 
L 238.072564 358.799343 
L 239.281439 360.69215 
L 228.977496 358.74534 
L 238.651508 354.698763 
L 237.862587 356.801547 
L 238.861485 356.696559 
L 239.071462 358.694354 
" clip-path="url(#p13ab16edc6)" style="fill: #0000ff"/>
    <path d="M 304.809775 358.699857 
L 303.805375 358.699857 
L 304.809775 360.708657 
L 294.765775 357.695457 
L 304.809775 354.682257 
L 303.805375 356.691057 
L 304.809775 356.691057 
L 304.809775 358.699857 
" clip-path="url(#p13ab16edc6)" style="fill: #0000ff"/>
    <path d="M 370.583014 358.69741 
L 369.58106 358.627346 
L 370.442887 360.701317 
L 360.633544 356.994823 
L 370.863267 354.689597 
L 369.721187 356.62344 
L 370.72314 356.693503 
L 370.583014 358.69741 
" clip-path="url(#p13ab16edc6)" style="fill: #0000ff"/>
    <path d="M 436.373973 358.69237 
L 435.37706 358.569964 
L 436.129162 360.686197 
L 426.527245 356.471401 
L 436.863596 354.704716 
L 435.621871 356.576138 
L 436.618784 356.698543 
L 436.373973 358.69237 
" clip-path="url(#p13ab16edc6)" style="fill: #0000ff"/>
    <path d="M 502.182558 358.687491 
L 501.190524 358.530368 
L 501.868312 360.671559 
L 492.419339 356.124229 
L 502.811049 354.719354 
L 501.504769 356.5463 
L 502.496803 356.703422 
L 502.182558 358.687491 
" clip-path="url(#p13ab16edc6)" style="fill: #0000ff"/>
    <path d="M 567.991334 358.681403 
L 567.005388 358.489754 
L 567.608037 360.653296 
L 558.323519 355.778971 
L 568.757928 354.737618 
L 567.388685 356.517862 
L 568.374631 356.70951 
L 567.991334 358.681403 
" clip-path="url(#p13ab16edc6)" style="fill: #0000ff"/>
    <path d="M 633.782653 358.84165 
L 632.63646 358.598019 
L 633.295392 361.134037 
L 622.564351 355.259147 
L 634.757177 354.256876 
L 633.123722 356.305632 
L 634.269915 356.549263 
L 633.782653 358.84165 
" clip-path="url(#p13ab16edc6)" style="fill: #0000ff"/>
    <path d="M 699.645996 358.845727 
L 698.495725 358.622137 
L 699.198816 361.146269 
L 688.366879 355.459557 
L 700.540356 354.244644 
L 698.942905 356.321596 
L 700.093176 356.545186 
L 699.645996 358.845727 
" clip-path="url(#p13ab16edc6)" style="fill: #0000ff"/>
    <path d="M 765.538476 358.684597 
L 764.549335 358.510185 
L 765.189651 360.662879 
L 755.821479 355.951334 
L 766.236125 354.728034 
L 764.898159 356.531903 
L 765.8873 356.706316 
L 765.538476 358.684597 
" clip-path="url(#p13ab16edc6)" style="fill: #0000ff"/>
    <path d="M 831.416404 358.690082 
L 830.421779 358.550296 
L 831.136833 360.679332 
L 821.609937 356.297602 
L 831.975546 354.711581 
L 830.70135 356.561046 
L 831.695975 356.700831 
L 831.416404 358.690082 
" clip-path="url(#p13ab16edc6)" style="fill: #0000ff"/>
    <path d="M 41.777007 278.980165 
L 41.012369 279.320603 
L 42.457884 280.50944 
L 33.790193 281.619913 
L 40.415252 275.921615 
L 40.331492 277.791328 
L 41.096129 277.45089 
L 41.777007 278.980165 
" clip-path="url(#p13ab16edc6)" style="fill: #0000ff"/>
    <path d="M 107.538517 279.011562 
L 106.742483 279.270209 
L 108.055811 280.60363 
L 99.319527 280.802 
L 106.503928 275.827424 
L 106.225188 277.67814 
L 107.021223 277.419493 
L 107.538517 279.011562 
" clip-path="url(#p13ab16edc6)" style="fill: #0000ff"/>
    <path d="M 173.254107 279.042223 
L 172.427412 279.173158 
L 173.515979 280.695613 
L 164.85622 279.524884 
L 172.730365 275.735442 
L 172.165541 277.519768 
L 172.992236 277.388832 
L 173.254107 279.042223 
" clip-path="url(#p13ab16edc6)" style="fill: #0000ff"/>
    <path d="M 238.981081 279.0524 
L 238.144209 279.067008 
L 239.010296 280.726145 
L 230.597748 278.361604 
L 238.92265 275.70491 
L 238.114993 277.393263 
L 238.951866 277.378655 
L 238.981081 279.0524 
" clip-path="url(#p13ab16edc6)" style="fill: #0000ff"/>
    <path d="M 304.722236 279.216105 
L 303.721658 279.128566 
L 304.547158 281.217261 
L 294.803996 277.340135 
L 305.072393 275.213793 
L 303.896737 277.12741 
L 304.897314 277.214949 
L 304.722236 279.216105 
" clip-path="url(#p13ab16edc6)" style="fill: #0000ff"/>
    <path d="M 370.478665 279.204668 
L 369.489524 279.030256 
L 370.12984 281.18295 
L 360.761668 276.471405 
L 371.176314 275.248105 
L 369.838348 277.051974 
L 370.827489 277.226386 
L 370.478665 279.204668 
" clip-path="url(#p13ab16edc6)" style="fill: #0000ff"/>
    <path d="M 436.193095 279.347399 
L 435.061223 279.044115 
L 435.586526 281.611143 
L 425.17766 275.182686 
L 437.406231 274.819912 
L 435.667791 276.780371 
L 436.799663 277.083655 
L 436.193095 279.347399 
" clip-path="url(#p13ab16edc6)" style="fill: #0000ff"/>
    <path d="M 501.900717 279.302001 
L 500.814243 278.863037 
L 501.022789 281.474949 
L 491.47494 273.825887 
L 503.656573 274.956105 
L 501.692171 276.690089 
L 502.778645 277.129053 
L 501.900717 279.302001 
" clip-path="url(#p13ab16edc6)" style="fill: #0000ff"/>
    <path d="M 567.763047 279.309497 
L 566.669077 278.889561 
L 566.923176 281.497436 
L 557.243287 274.016172 
L 569.442789 274.933619 
L 567.508949 276.701622 
L 568.602918 277.121558 
L 567.763047 279.309497 
" clip-path="url(#p13ab16edc6)" style="fill: #0000ff"/>
    <path d="M 633.644784 279.323486 
L 632.536825 278.941985 
L 632.881782 281.539403 
L 622.946698 274.40052 
L 635.170787 274.891651 
L 633.299826 276.726068 
L 634.407785 277.107569 
L 633.644784 279.323486 
" clip-path="url(#p13ab16edc6)" style="fill: #0000ff"/>
    <path d="M 699.566302 279.347399 
L 698.43443 279.044115 
L 698.959734 281.611143 
L 688.550867 275.182686 
L 700.779439 274.819912 
L 699.040998 276.780371 
L 700.17287 277.083655 
L 699.566302 279.347399 
" clip-path="url(#p13ab16edc6)" style="fill: #0000ff"/>
    <path d="M 765.573102 279.210153 
L 764.578477 279.070367 
L 765.293532 281.199403 
L 755.766635 276.817673 
L 766.132244 275.231652 
L 764.858048 277.081117 
L 765.852673 277.220902 
L 765.573102 279.210153 
" clip-path="url(#p13ab16edc6)" style="fill: #0000ff"/>
    <path d="M 831.468651 279.216105 
L 830.468073 279.128566 
L 831.293572 281.217261 
L 821.55041 277.340135 
L 831.818807 275.213793 
L 830.643151 277.12741 
L 831.643729 277.214949 
L 831.468651 279.216105 
" clip-path="url(#p13ab16edc6)" style="fill: #0000ff"/>
    <path d="M 41.750114 199.394054 
L 40.974061 199.7076 
L 42.377205 200.94616 
L 33.676039 201.753458 
L 40.495931 196.289843 
L 40.346969 198.155494 
L 41.123022 197.841948 
L 41.750114 199.394054 
" clip-path="url(#p13ab16edc6)" style="fill: #0000ff"/>
    <path d="M 107.496501 199.426481 
L 106.688021 199.643113 
L 107.929764 201.043441 
L 99.195071 200.784317 
L 106.629975 196.192561 
L 106.254758 198.026153 
L 107.063238 197.809521 
L 107.496501 199.426481 
" clip-path="url(#p13ab16edc6)" style="fill: #0000ff"/>
    <path d="M 173.225176 199.448762 
L 172.394415 199.550767 
L 173.429186 201.110285 
L 164.81556 199.638048 
L 172.817158 196.125718 
L 172.190406 197.889245 
L 173.021167 197.78724 
L 173.225176 199.448762 
" clip-path="url(#p13ab16edc6)" style="fill: #0000ff"/>
    <path d="M 238.966473 199.455001 
L 238.129473 199.455001 
L 238.966473 201.129001 
L 230.596473 198.618001 
L 238.966473 196.107001 
L 238.129473 197.781001 
L 238.966473 197.781001 
L 238.966473 199.455001 
" clip-path="url(#p13ab16edc6)" style="fill: #0000ff"/>
    <path d="M 304.652652 199.610035 
L 303.660618 199.452913 
L 304.338407 201.594104 
L 294.889434 197.046773 
L 305.281144 195.641899 
L 303.974864 197.468844 
L 304.966898 197.625967 
L 304.652652 199.610035 
" clip-path="url(#p13ab16edc6)" style="fill: #0000ff"/>
    <path d="M 370.359419 199.578514 
L 369.398906 199.284856 
L 369.772103 201.499539 
L 361.047952 195.68142 
L 371.534051 195.736464 
L 369.986223 197.363831 
L 370.946735 197.657489 
L 370.359419 199.578514 
" clip-path="url(#p13ab16edc6)" style="fill: #0000ff"/>
    <path d="M 436.103929 199.542556 
L 435.179373 199.150106 
L 435.319028 201.391666 
L 427.250828 194.693498 
L 437.67373 195.844336 
L 435.964274 197.300996 
L 436.888829 197.693446 
L 436.103929 199.542556 
" clip-path="url(#p13ab16edc6)" style="fill: #0000ff"/>
    <path d="M 501.753781 199.63281 
L 500.738972 199.04691 
L 500.581981 201.662427 
L 492.191595 192.759001 
L 504.097381 195.573576 
L 501.910772 197.017293 
L 502.925581 197.603193 
L 501.753781 199.63281 
" clip-path="url(#p13ab16edc6)" style="fill: #0000ff"/>
    <path d="M 567.562023 199.611744 
L 566.56828 198.990785 
L 566.320104 201.599229 
L 558.245555 192.408407 
L 570.045861 195.636773 
L 567.810199 197.003299 
L 568.803942 197.624258 
L 567.562023 199.611744 
" clip-path="url(#p13ab16edc6)" style="fill: #0000ff"/>
    <path d="M 633.458184 199.642881 
L 632.433305 199.074781 
L 632.321985 201.692639 
L 623.777491 192.937002 
L 635.730584 195.543363 
L 633.569505 197.025022 
L 634.594384 197.593122 
L 633.458184 199.642881 
" clip-path="url(#p13ab16edc6)" style="fill: #0000ff"/>
    <path d="M 699.559209 199.573242 
L 698.603968 199.262866 
L 698.938456 201.483725 
L 690.317174 195.514235 
L 700.800716 195.752278 
L 699.224722 197.352383 
L 700.179963 197.66276 
L 699.559209 199.573242 
" clip-path="url(#p13ab16edc6)" style="fill: #0000ff"/>
    <path d="M 765.573102 199.612626 
L 764.578477 199.472841 
L 765.293532 201.601877 
L 755.766635 197.220147 
L 766.132244 195.634125 
L 764.858048 197.483591 
L 765.852673 197.623376 
L 765.573102 199.612626 
" clip-path="url(#p13ab16edc6)" style="fill: #0000ff"/>
    <path d="M 831.55619 199.455001 
L 830.71919 199.455001 
L 831.55619 201.129001 
L 823.18619 198.618001 
L 831.55619 196.107001 
L 830.71919 197.781001 
L 831.55619 197.781001 
L 831.55619 199.455001 
" clip-path="url(#p13ab16edc6)" style="fill: #0000ff"/>
    <path d="M 41.816558 119.647922 
L 41.070786 120.027912 
L 42.576538 121.139467 
L 33.978843 122.70205 
L 40.296598 116.664832 
L 40.310805 118.536367 
L 41.056578 118.156377 
L 41.816558 119.647922 
" clip-path="url(#p13ab16edc6)" style="fill: #0000ff"/>
    <path d="M 107.566141 119.688672 
L 106.779618 119.974943 
L 108.138682 121.261718 
L 99.414643 121.764858 
L 106.421057 116.542581 
L 106.207076 118.401898 
L 106.993599 118.115627 
L 107.566141 119.688672 
" clip-path="url(#p13ab16edc6)" style="fill: #0000ff"/>
    <path d="M 173.268515 119.726434 
L 172.444231 119.871777 
L 173.559202 121.375002 
L 164.880331 120.355585 
L 172.687141 116.429297 
L 172.153544 118.223209 
L 172.977828 118.077866 
L 173.268515 119.726434 
" clip-path="url(#p13ab16edc6)" style="fill: #0000ff"/>
    <path d="M 238.922668 119.738003 
L 238.086815 119.694197 
L 238.835058 121.409708 
L 230.607944 118.464098 
L 239.097889 116.394591 
L 238.174426 118.022491 
L 239.010279 118.066297 
L 238.922668 119.738003 
" clip-path="url(#p13ab16edc6)" style="fill: #0000ff"/>
    <path d="M 304.621491 119.717697 
L 303.805943 119.529413 
L 304.244923 121.348793 
L 296.654298 117.019309 
L 305.374627 116.455506 
L 304.182512 117.898318 
L 304.998059 118.086602 
L 304.621491 119.717697 
" clip-path="url(#p13ab16edc6)" style="fill: #0000ff"/>
    <path d="M 370.299346 119.660729 
L 369.540766 119.306998 
L 369.591883 121.177888 
L 363.067281 115.364835 
L 371.714272 116.626411 
L 370.248229 117.789839 
L 371.006809 118.14357 
L 370.299346 119.660729 
" clip-path="url(#p13ab16edc6)" style="fill: #0000ff"/>
    <path d="M 435.906007 119.714726 
L 435.093431 119.124355 
L 434.725264 121.33988 
L 428.370612 112.998435 
L 438.267493 116.46442 
L 436.274174 117.499201 
L 437.08675 118.089573 
L 435.906007 119.714726 
" clip-path="url(#p13ab16edc6)" style="fill: #0000ff"/>
    <path d="M 501.618249 119.825541 
L 500.694858 119.104108 
L 500.175384 121.672323 
L 493.105771 111.687828 
L 504.503977 116.131977 
L 502.137722 117.257326 
L 503.061113 117.978759 
L 501.618249 119.825541 
" clip-path="url(#p13ab16edc6)" style="fill: #0000ff"/>
    <path d="M 567.429764 119.7998 
L 566.532113 119.046582 
L 565.923327 121.595102 
L 559.206474 111.369964 
L 570.442638 116.209197 
L 568.03855 117.25128 
L 568.936201 118.004499 
L 567.429764 119.7998 
" clip-path="url(#p13ab16edc6)" style="fill: #0000ff"/>
    <path d="M 633.450184 119.724906 
L 632.627428 119.148806 
L 632.297984 121.370419 
L 625.798721 113.141148 
L 635.754585 116.433881 
L 633.779628 117.503293 
L 634.602384 118.079393 
L 633.450184 119.724906 
" clip-path="url(#p13ab16edc6)" style="fill: #0000ff"/>
    <path d="M 699.629623 119.527275 
L 699.004498 119.287312 
L 699.149697 120.777526 
L 693.618332 116.502518 
L 700.589476 117.026773 
L 699.484424 118.037061 
L 700.109549 118.277024 
L 699.629623 119.527275 
" clip-path="url(#p13ab16edc6)" style="fill: #0000ff"/>
    <path d="M 765.689519 119.571342 
L 765.020327 119.547973 
L 765.642782 120.909726 
L 759.020967 118.668463 
L 765.782994 116.894573 
L 765.067065 118.209589 
L 765.736257 118.232958 
L 765.689519 119.571342 
" clip-path="url(#p13ab16edc6)" style="fill: #0000ff"/>
    <path d="M 831.718181 119.55186 
L 831.068471 119.713851 
L 832.042162 120.85128 
L 825.05909 120.522059 
L 831.070217 116.95302 
L 830.744489 118.41443 
L 831.394199 118.25244 
L 831.718181 119.55186 
" clip-path="url(#p13ab16edc6)" style="fill: #0000ff"/>
    <path d="M 41.803485 39.81953 
L 41.051194 40.186447 
L 42.537318 41.324112 
L 33.913662 42.736406 
L 40.335818 36.810368 
L 40.317361 38.681866 
L 41.069651 38.314949 
L 41.803485 39.81953 
" clip-path="url(#p13ab16edc6)" style="fill: #0000ff"/>
    <path d="M 107.579824 39.848646 
L 106.798417 40.1486 
L 108.179732 41.41146 
L 99.465802 42.066779 
L 106.380008 36.723019 
L 106.198509 38.585787 
L 106.979916 38.285833 
L 107.579824 39.848646 
" clip-path="url(#p13ab16edc6)" style="fill: #0000ff"/>
    <path d="M 173.250937 39.724537 
L 172.59364 39.852303 
L 173.506469 41.039132 
L 166.550196 40.344897 
L 172.739875 37.095347 
L 172.338108 38.537708 
L 172.995406 38.409942 
L 173.250937 39.724537 
" clip-path="url(#p13ab16edc6)" style="fill: #0000ff"/>
    <path d="M 238.943105 39.736432 
L 238.273913 39.713063 
L 238.896367 41.074816 
L 232.274552 38.833553 
L 239.03658 37.059663 
L 238.32065 38.374679 
L 238.989842 38.398048 
L 238.943105 39.736432 
" clip-path="url(#p13ab16edc6)" style="fill: #0000ff"/>
    <path d="M 304.716585 39.730323 
L 304.053501 39.637133 
L 304.530204 41.05649 
L 298.17894 38.135337 
L 305.089346 37.077989 
L 304.239882 38.310966 
L 304.902966 38.404156 
L 304.716585 39.730323 
" clip-path="url(#p13ab16edc6)" style="fill: #0000ff"/>
    <path d="M 370.435077 39.700359 
L 369.801957 39.482358 
L 369.999076 40.966597 
L 364.321885 36.887235 
L 371.307078 37.167882 
L 370.237958 38.21612 
L 370.871077 38.43412 
L 370.435077 39.700359 
" clip-path="url(#p13ab16edc6)" style="fill: #0000ff"/>
    <path d="M 435.936317 39.689252 
L 435.314304 39.12919 
L 434.816192 40.933276 
L 430.276257 33.466617 
L 438.176566 37.201203 
L 436.434429 37.885165 
L 437.056441 38.445227 
L 435.936317 39.689252 
" clip-path="url(#p13ab16edc6)" style="fill: #0000ff"/>
    <path d="M 501.698501 39.605253 
L 501.160488 38.964074 
L 500.416143 40.681279 
L 496.959548 32.655448 
L 504.263218 37.4532 
L 502.442847 37.888047 
L 502.98086 38.529226 
L 501.698501 39.605253 
" clip-path="url(#p13ab16edc6)" style="fill: #0000ff"/>
    <path d="M 567.92433 39.497709 
L 567.493861 39.239057 
L 567.407026 40.358648 
L 563.878288 36.480718 
L 568.958939 37.775831 
L 568.011165 38.378118 
L 568.441635 38.63677 
L 567.92433 39.497709 
" clip-path="url(#p13ab16edc6)" style="fill: #0000ff"/>
    <path d="M 633.814045 39.522387 
L 633.358898 39.310149 
L 633.389568 40.432683 
L 629.474807 36.944851 
L 634.663001 37.701796 
L 633.783375 38.399853 
L 634.238523 38.612092 
L 633.814045 39.522387 
" clip-path="url(#p13ab16edc6)" style="fill: #0000ff"/>
    <path d="M 699.714398 39.54486 
L 699.236777 39.389672 
L 699.404021 40.500101 
L 695.09338 37.515356 
L 700.335151 37.634378 
L 699.547154 38.434431 
L 700.024774 38.589619 
L 699.714398 39.54486 
" clip-path="url(#p13ab16edc6)" style="fill: #0000ff"/>
    <path d="M 765.756658 39.567529 
L 765.256369 39.611298 
L 765.844197 40.568107 
L 760.709998 39.504936 
L 765.581579 37.566373 
L 765.168829 38.61072 
L 765.669118 38.566951 
L 765.756658 39.567529 
" clip-path="url(#p13ab16edc6)" style="fill: #0000ff"/>
    <path d="M 831.791958 39.510656 
L 831.348542 39.746425 
L 832.263496 40.397489 
L 827.122027 41.424926 
L 830.848884 37.736991 
L 830.877005 38.859592 
L 831.320421 38.623823 
L 831.791958 39.510656 
" clip-path="url(#p13ab16edc6)" style="fill: #0000ff"/>
   </g>
   <g id="matplotlib.axis_1"/>
   <g id="matplotlib.axis_2"/>
   <g id="LineCollection_1">
    <path d="M 801.149741 411.16691 
L 788.318392 382.043785 
L 795.781222 372.517064 
L 789.8415 368.019635 
L 787.647259 380.212226 
L 747.511941 336.197378 
L 637.844103 336.58533 
L 603.519906 357.588812 
L 580.649164 336.672619 
L 533.694017 330.882143 
L 454.902282 295.674875 
L 432.224441 294.650866 
L 384.85938 262.503581 
L 362.82454 215.680384 
L 359.75421 201.25306 
L 365.545238 202.123281 
L 350.241814 183.816484 
L 334.628946 181.005484 
L 306.039515 154.434739 
L 295.679161 155.553875 
L 260.579344 120.99582 
L 204.272551 93.864265 
L 147.620145 93.294311 
L 126.328774 106.689063 
L 82.902095 92.271301 
L 38.289882 98.706195 
L 7.2 82.583356 
" clip-path="url(#p13ab16edc6)" style="fill: none; stroke: #000000; stroke-width: 0.5"/>
    <path d="M 189.744747 364.19071 
L 187.900138 364.045303 
L 155.22765 365.247327 
L 121.136541 383.211492 
L 71.199477 382.857791 
L 40.367579 370.016385 
L 34.35552 351.62605 
L 40.118416 337.429118 
L 11.938897 319.59523 
L 22.415795 307.83046 
L 75.117764 324.664204 
L 102.115768 319.507913 
L 140.932934 343.771652 
L 166.158667 347.543845 
L 176.796315 345.851724 
L 192.421239 323.218746 
L 205.297334 321.113547 
L 227.581337 334.340015 
L 208.620845 358.917012 
L 189.744747 364.19071 
" clip-path="url(#p13ab16edc6)" style="fill: none; stroke: #000000; stroke-width: 0.5"/>
   </g>
   <g id="LineCollection_2"/>
   <g id="LineCollection_3"/>
   <g id="line2d_1">
    <path d="M 502.338918 411.16691 
L 502.338918 22.318125 
L 502.338918 22.318125 
" clip-path="url(#p13ab16edc6)" style="fill: none; stroke-dasharray: 1,1; stroke-dashoffset: 0; stroke: #000000"/>
   </g>
   <g id="line2d_2">
    <defs>
     <path id="mccbff75dc8" d="M 0 5 
C 1.326016 5 2.597899 4.473168 3.535534 3.535534 
C 4.473168 2.597899 5 1.326016 5 0 
C 5 -1.326016 4.473168 -2.597899 3.535534 -3.535534 
C 2.597899 -4.473168 1.326016 -5 0 -5 
C -1.326016 -5 -2.597899 -4.473168 -3.535534 -3.535534 
C -4.473168 -2.597899 -5 -1.326016 -5 0 
C -5 1.326016 -4.473168 2.597899 -3.535534 3.535534 
C -2.597899 4.473168 -1.326016 5 0 5 
z
" style="stroke: #ff0000"/>
    </defs>
    <g clip-path="url(#p13ab16edc6)">
     <use xlink:href="#mccbff75dc8" x="791.525359" y="347.655356" style="fill: #ff0000; stroke: #ff0000"/>
    </g>
   </g>
   <g id="line2d_3">
    <defs>
     <path id="me3d132a2bd" d="M 0 5 
C 1.326016 5 2.597899 4.473168 3.535534 3.535534 
C 4.473168 2.597899 5 1.326016 5 0 
C 5 -1.326016 4.473168 -2.597899 3.535534 -3.535534 
C 2.597899 -4.473168 1.326016 -5 0 -5 
C -1.326016 -5 -2.597899 -4.473168 -3.535534 -3.535534 
C -4.473168 -2.597899 -5 -1.326016 -5 0 
C -5 1.326016 -4.473168 2.597899 -3.535534 3.535534 
C -2.597899 4.473168 -1.326016 5 0 5 
z
" style="stroke: #008000"/>
    </defs>
    <g clip-path="url(#p13ab16edc6)">
     <use xlink:href="#me3d132a2bd" x="59.874641" y="86.215653" style="fill: #008000; stroke: #008000"/>
    </g>
   </g>
   <g id="line2d_4">
    <path d="M 791.525359 347.655356 
L 59.874641 86.215653 
" clip-path="url(#p13ab16edc6)" style="fill: none; stroke: #000000; stroke-width: 2; stroke-linecap: square"/>
   </g>
   <g id="patch_3">
    <path d="M 7.2 411.16691 
L 7.2 22.318125 
" style="fill: none; stroke: #000000; stroke-width: 0.8; stroke-linejoin: miter; stroke-linecap: square"/>
   </g>
   <g id="patch_4">
    <path d="M 844.2 411.16691 
L 844.2 22.318125 
" style="fill: none; stroke: #000000; stroke-width: 0.8; stroke-linejoin: miter; stroke-linecap: square"/>
   </g>
   <g id="patch_5">
    <path d="M 7.2 411.16691 
L 844.2 411.16691 
" style="fill: none; stroke: #000000; stroke-width: 0.8; stroke-linejoin: miter; stroke-linecap: square"/>
   </g>
   <g id="patch_6">
    <path d="M 7.2 22.318125 
L 844.2 22.318125 
" style="fill: none; stroke: #000000; stroke-width: 0.8; stroke-linejoin: miter; stroke-linecap: square"/>
   </g>
   <g id="text_1">
    <text style="font: 10px 'DejaVu Sans', 'Bitstream Vera Sans', 'Computer Modern Sans Serif', 'Lucida Grande', 'Verdana', 'Geneva', 'Lucid', 'Arial', 'Helvetica', 'Avant Garde', sans-serif; text-anchor: middle" x="502.704" y="427.135348" transform="rotate(-0 502.704 427.135348)">119°W</text>
   </g>
   <g id="text_2">
    <text style="font: 12px 'DejaVu Sans', 'Bitstream Vera Sans', 'Computer Modern Sans Serif', 'Lucida Grande', 'Verdana', 'Geneva', 'Lucid', 'Arial', 'Helvetica', 'Avant Garde', sans-serif; text-anchor: end" x="791.525359" y="345.159731" transform="rotate(-0 791.525359 345.159731)">KSMO</text>
   </g>
   <g id="text_3">
    <text style="font: 12px 'DejaVu Sans', 'Bitstream Vera Sans', 'Computer Modern Sans Serif', 'Lucida Grande', 'Verdana', 'Geneva', 'Lucid', 'Arial', 'Helvetica', 'Avant Garde', sans-serif; text-anchor: end" x="59.874641" y="83.720028" transform="rotate(-0 59.874641 83.720028)">KSBA</text>
   </g>
   <g id="text_4">
    <text style="font: 12px 'DejaVu Sans', 'Bitstream Vera Sans', 'Computer Modern Sans Serif', 'Lucida Grande', 'Verdana', 'Geneva', 'Lucid', 'Arial', 'Helvetica', 'Avant Garde', sans-serif; text-anchor: middle" x="425.7" y="16.318125" transform="rotate(-0 425.7 16.318125)">Wind Data for Route: KSMO to KSBA (FL090)</text>
   </g>
  </g>
 </g>
 <defs>
  <clipPath id="p13ab16edc6">
   <rect x="7.2" y="22.318125" width="837" height="388.848785"/>
  </clipPath>
 </defs>
</svg>
