<?xml version="1.0" encoding="utf-8" standalone="no"?>
<!DOCTYPE svg PUBLIC "-//W3C//DTD SVG 1.1//EN"
  "http://www.w3.org/Graphics/SVG/1.1/DTD/svg11.dtd">
<svg xmlns:xlink="http://www.w3.org/1999/xlink" width="851.4pt" height="436.415035pt" viewBox="0 0 851.4 436.415035" xmlns="http://www.w3.org/2000/svg" version="1.1">
 <metadata>
  <rdf:RDF xmlns:dc="http://purl.org/dc/elements/1.1/" xmlns:cc="http://creativecommons.org/ns#" xmlns:rdf="http://www.w3.org/1999/02/22-rdf-syntax-ns#">
   <cc:Work>
    <dc:type rdf:resource="http://purl.org/dc/dcmitype/StillImage"/>
    <dc:date>2025-04-25T23:08:58.573063</dc:date>
    <dc:format>image/svg+xml</dc:format>
    <dc:creator>
     <cc:Agent>
      <dc:title>Matplotlib v3.8.4, https://matplotlib.org/</dc:title>
     </cc:Agent>
    </dc:creator>
   </cc:Work>
  </rdf:RDF>
 </metadata>
 <defs>
  <style type="text/css">*{stroke-linejoin: round; stroke-linecap: butt}</style>
 </defs>
 <g id="figure_1">
  <g id="patch_1">
   <path d="M 0 436.415035 
L 851.4 436.415035 
L 851.4 0 
L 0 0 
z
" style="fill: #ffffff"/>
  </g>
  <g id="axes_1">
   <g id="patch_2">
    <path d="M 7.2 411.16691 
L 844.2 411.16691 
L 844.2 22.318125 
L 7.2 22.318125 
z
" style="fill: #ffffff"/>
   </g>
   <g id="Quiver_1">
    <path d="M 41.524058 358.527871 
L 40.691643 358.615362 
L 41.699039 360.192701 
L 33.11242 358.57036 
L 41.174097 355.198212 
L 40.516663 356.950532 
L 41.349078 356.863042 
L 41.524058 358.527871 
" clip-path="url(#p7e4609d192)" style="fill: #0000ff"/>
    <path d="M 107.332436 358.69848 
L 106.329413 358.751046 
L 107.437569 360.704527 
L 97.249635 358.221119 
L 107.122171 354.686386 
L 106.22428 356.744999 
L 107.227304 356.692433 
L 107.332436 358.69848 
" clip-path="url(#p7e4609d192)" style="fill: #0000ff"/>
    <path d="M 173.35388 358.500033 
L 172.549304 358.730741 
L 173.815297 360.109185 
L 165.077411 360.002541 
L 172.431046 355.281728 
L 172.087887 357.121589 
L 172.892463 356.890881 
L 173.35388 358.500033 
" clip-path="url(#p7e4609d192)" style="fill: #0000ff"/>
    <path d="M 239.33339 358.447747 
L 238.581099 358.814664 
L 240.067223 359.952328 
L 231.443567 361.364623 
L 237.865723 355.438585 
L 237.847266 357.310083 
L 238.599557 356.943166 
L 239.33339 358.447747 
" clip-path="url(#p7e4609d192)" style="fill: #0000ff"/>
    <path d="M 305.347788 358.336636 
L 304.706609 358.874649 
L 306.423815 359.618994 
L 298.397983 363.075589 
L 303.195736 355.771919 
L 303.630583 357.592291 
L 304.271762 357.054277 
L 305.347788 358.336636 
" clip-path="url(#p7e4609d192)" style="fill: #0000ff"/>
    <path d="M 371.338707 358.17554 
L 370.858624 358.86117 
L 372.709968 359.135707 
L 365.852242 364.551759 
L 368.596186 356.255206 
L 369.487363 357.901003 
L 369.967447 357.215373 
L 371.338707 358.17554 
" clip-path="url(#p7e4609d192)" style="fill: #0000ff"/>
    <path d="M 437.248669 358.062373 
L 436.881753 358.814664 
L 438.753251 358.796206 
L 432.827212 365.218363 
L 434.239507 356.594707 
L 435.377172 358.080831 
L 435.744088 357.32854 
L 437.248669 358.062373 
" clip-path="url(#p7e4609d192)" style="fill: #0000ff"/>
    <path d="M 502.956051 357.95709 
L 502.694417 358.57346 
L 504.188791 358.480357 
L 499.723345 363.859157 
L 500.490571 356.910556 
L 501.461677 358.050193 
L 501.723311 357.433823 
L 502.956051 357.95709 
" clip-path="url(#p7e4609d192)" style="fill: #0000ff"/>
    <path d="M 568.630446 357.923451 
L 568.402452 358.370914 
L 569.525373 358.379439 
L 565.903042 362.170091 
L 566.840592 357.011474 
L 567.507525 357.914926 
L 567.735519 357.467463 
L 568.630446 357.923451 
" clip-path="url(#p7e4609d192)" style="fill: #0000ff"/>
    <path d="M 634.427359 357.997688 
L 634.125128 358.398763 
L 635.229509 358.602151 
L 631.003969 361.706204 
L 632.82306 356.788762 
L 633.322978 357.7943 
L 633.62521 357.393225 
L 634.427359 357.997688 
" clip-path="url(#p7e4609d192)" style="fill: #0000ff"/>
    <path d="M 700.129775 357.906153 
L 699.919078 358.166341 
L 700.650152 358.327546 
L 697.762621 360.297341 
L 699.089021 357.063367 
L 699.398701 357.744949 
L 699.609398 357.48476 
L 700.129775 357.906153 
" clip-path="url(#p7e4609d192)" style="fill: #0000ff"/>
    <path d="M 764.77987 358.53555 
L 765.973921 358.923521 
L 766.906939 358.083427 
L 766.645906 356.855363 
L 765.451855 356.467392 
L 764.518836 357.307486 
L 764.77987 358.53555 
L 765.973921 358.923521 
" clip-path="url(#p7e4609d192)" style="fill: #0000ff"/>
    <path d="M 830.369091 358.104207 
L 831.316629 358.927889 
L 832.503728 358.519139 
L 832.743288 357.286706 
L 831.79575 356.463024 
L 830.608652 356.871774 
L 830.369091 358.104207 
L 831.316629 358.927889 
" clip-path="url(#p7e4609d192)" style="fill: #0000ff"/>
    <path d="M 41.424882 278.885025 
L 40.755384 278.873339 
L 41.40151 280.224021 
L 34.741588 278.098666 
L 41.471626 276.207033 
L 40.778756 277.534343 
L 41.448254 277.546029 
L 41.424882 278.885025 
" clip-path="url(#p7e4609d192)" style="fill: #0000ff"/>
    <path d="M 107.384618 278.876883 
L 106.723262 278.981632 
L 107.594115 280.199596 
L 100.666309 279.263013 
L 106.965624 276.231459 
L 106.513765 277.65892 
L 107.175121 277.554171 
L 107.384618 278.876883 
" clip-path="url(#p7e4609d192)" style="fill: #0000ff"/>
    <path d="M 173.490088 278.967818 
L 172.737798 279.334735 
L 174.223922 280.472399 
L 165.600265 281.884694 
L 172.022422 275.958656 
L 172.003964 277.830153 
L 172.756255 277.463237 
L 173.490088 278.967818 
" clip-path="url(#p7e4609d192)" style="fill: #0000ff"/>
    <path d="M 239.568561 278.796956 
L 238.987132 279.399044 
L 240.772736 279.959815 
L 233.152183 284.236401 
L 237.160211 276.47124 
L 237.782957 278.236186 
L 238.364386 277.634098 
L 239.568561 278.796956 
" clip-path="url(#p7e4609d192)" style="fill: #0000ff"/>
    <path d="M 305.688243 278.70247 
L 305.2013 279.580938 
L 307.445179 279.676356 
L 299.940347 287.000208 
L 302.174371 276.754699 
L 303.444364 278.607053 
L 303.931307 277.728585 
L 305.688243 278.70247 
" clip-path="url(#p7e4609d192)" style="fill: #0000ff"/>
    <path d="M 371.584341 278.591782 
L 371.208086 279.523046 
L 373.446867 279.344292 
L 366.890528 287.528162 
L 367.859287 277.086763 
L 369.345559 278.770536 
L 369.721814 277.839272 
L 371.584341 278.591782 
" clip-path="url(#p7e4609d192)" style="fill: #0000ff"/>
    <path d="M 437.406674 278.640005 
L 436.982197 279.550301 
L 439.227265 279.488961 
L 432.251601 287.318483 
L 433.765492 276.942094 
L 435.161606 278.701345 
L 435.586083 277.79105 
L 437.406674 278.640005 
" clip-path="url(#p7e4609d192)" style="fill: #0000ff"/>
    <path d="M 503.074252 278.900527 
L 502.389253 279.635098 
L 504.543396 280.270525 
L 495.489689 285.561244 
L 500.135966 276.16053 
L 500.92011 278.2651 
L 501.605109 277.530528 
L 503.074252 278.900527 
" clip-path="url(#p7e4609d192)" style="fill: #0000ff"/>
    <path d="M 568.828598 278.984942 
L 568.059183 279.630558 
L 570.11983 280.523772 
L 560.488832 284.671686 
L 566.246135 275.907282 
L 566.767952 278.091728 
L 567.537367 277.446112 
L 568.828598 278.984942 
" clip-path="url(#p7e4609d192)" style="fill: #0000ff"/>
    <path d="M 634.587938 279.048213 
L 633.755252 279.609866 
L 635.711244 280.713583 
L 625.699431 283.832061 
L 632.341324 275.717471 
L 632.631946 277.944495 
L 633.464631 277.382842 
L 634.587938 279.048213 
" clip-path="url(#p7e4609d192)" style="fill: #0000ff"/>
    <path d="M 700.474049 279.017677 
L 699.6719 279.62214 
L 701.682975 280.621976 
L 691.848091 284.260157 
L 698.056197 275.809079 
L 698.462974 278.017841 
L 699.265123 277.413378 
L 700.474049 279.017677 
" clip-path="url(#p7e4609d192)" style="fill: #0000ff"/>
    <path d="M 766.27295 278.83754 
L 765.650938 279.397602 
L 767.393075 280.081564 
L 759.492766 283.816151 
L 764.032701 276.349491 
L 764.530813 278.153577 
L 765.152826 277.593515 
L 766.27295 278.83754 
" clip-path="url(#p7e4609d192)" style="fill: #0000ff"/>
    <path d="M 831.858421 278.616602 
L 831.457347 278.918834 
L 832.462884 279.418752 
L 827.545442 281.237842 
L 830.649495 277.012303 
L 830.852884 278.116684 
L 831.253958 277.814453 
L 831.858421 278.616602 
" clip-path="url(#p7e4609d192)" style="fill: #0000ff"/>
    <path d="M 41.155741 199.034344 
L 40.739399 198.753517 
L 40.594088 199.867029 
L 37.273141 195.809734 
L 42.279048 197.368973 
L 41.301052 197.920832 
L 41.717395 198.201659 
L 41.155741 199.034344 
" clip-path="url(#p7e4609d192)" style="fill: #0000ff"/>
    <path d="M 107.244838 199.118978 
L 106.743861 199.083946 
L 107.174775 200.120931 
L 102.270103 198.267684 
L 107.384965 197.115071 
L 106.813925 198.081993 
L 107.314901 198.117025 
L 107.244838 199.118978 
" clip-path="url(#p7e4609d192)" style="fill: #0000ff"/>
    <path d="M 173.478006 199.185854 
L 172.910153 199.540688 
L 174.187673 200.32156 
L 167.444642 202.166341 
L 172.05867 196.914442 
L 172.200485 198.404982 
L 172.768338 198.050148 
L 173.478006 199.185854 
" clip-path="url(#p7e4609d192)" style="fill: #0000ff"/>
    <path d="M 239.643621 199.109977 
L 239.151644 199.787125 
L 240.997915 200.09393 
L 234.046711 205.389473 
L 236.935032 197.142072 
L 237.79735 198.803172 
L 238.289326 198.126025 
L 239.643621 199.109977 
" clip-path="url(#p7e4609d192)" style="fill: #0000ff"/>
    <path d="M 305.720071 199.042479 
L 305.295593 199.952775 
L 307.540662 199.891435 
L 300.564997 207.720957 
L 302.078889 197.344568 
L 303.475002 199.103819 
L 303.89948 198.193523 
L 305.720071 199.042479 
" clip-path="url(#p7e4609d192)" style="fill: #0000ff"/>
    <path d="M 371.531545 199.104944 
L 371.044602 199.983412 
L 373.288481 200.07883 
L 365.783649 207.402682 
L 368.017673 197.157173 
L 369.287666 199.009526 
L 369.774609 198.131058 
L 371.531545 199.104944 
" clip-path="url(#p7e4609d192)" style="fill: #0000ff"/>
    <path d="M 437.194094 199.340506 
L 436.471589 200.038221 
L 438.589523 200.785516 
L 429.27133 205.59515 
L 434.403234 196.450487 
L 435.076159 198.593211 
L 435.798664 197.895496 
L 437.194094 199.340506 
" clip-path="url(#p7e4609d192)" style="fill: #0000ff"/>
    <path d="M 503.077645 199.633722 
L 501.384777 200.863663 
L 503.876427 202.15714 
L 491.505325 206.489621 
L 499.44864 196.062815 
L 499.908848 198.832221 
L 501.601716 197.60228 
L 503.077645 199.633722 
" clip-path="url(#p7e4609d192)" style="fill: #0000ff"/>
    <path d="M 568.938561 199.620688 
L 565.930501 201.887424 
L 568.444345 203.137219 
L 556.15074 207.684946 
L 563.910872 197.121098 
L 564.419343 199.882051 
L 567.427404 197.615314 
L 568.938561 199.620688 
" clip-path="url(#p7e4609d192)" style="fill: #0000ff"/>
    <path d="M 634.781863 199.620688 
L 633.110718 200.879986 
L 635.624563 202.129781 
L 623.330958 206.677508 
L 631.09109 196.11366 
L 631.599561 198.874612 
L 633.270706 197.615314 
L 634.781863 199.620688 
" clip-path="url(#p7e4609d192)" style="fill: #0000ff"/>
    <path d="M 700.725835 199.536216 
L 699.195477 200.963297 
L 701.82619 201.943478 
L 690.075297 207.751323 
L 696.688696 196.43419 
L 697.48298 199.126868 
L 699.013337 197.699787 
L 700.725835 199.536216 
" clip-path="url(#p7e4609d192)" style="fill: #0000ff"/>
    <path d="M 766.636279 199.339433 
L 765.914847 200.262824 
L 768.483061 200.782298 
L 758.498567 207.851911 
L 762.942715 196.453705 
L 764.068065 198.81996 
L 764.789497 197.896569 
L 766.636279 199.339433 
" clip-path="url(#p7e4609d192)" style="fill: #0000ff"/>
    <path d="M 832.600271 199.149987 
L 832.068285 200.194069 
L 834.688434 200.213959 
L 826.236329 209.058816 
L 828.423945 197.022043 
L 829.980122 199.130097 
L 830.512108 198.086015 
L 832.600271 199.149987 
" clip-path="url(#p7e4609d192)" style="fill: #0000ff"/>
    <path d="M 40.963089 119.375628 
L 40.489611 118.90215 
L 40.016132 120.322586 
L 36.701781 114.167363 
L 42.857004 117.481714 
L 41.436568 117.955192 
L 41.910047 118.428671 
L 40.963089 119.375628 
" clip-path="url(#p7e4609d192)" style="fill: #0000ff"/>
    <path d="M 106.970685 119.297889 
L 106.574946 118.988703 
L 106.352314 120.089367 
L 103.32248 115.810298 
L 108.207425 117.714933 
L 107.193316 118.197225 
L 107.589055 118.506411 
L 106.970685 119.297889 
" clip-path="url(#p7e4609d192)" style="fill: #0000ff"/>
    <path d="M 173.187054 119.230798 
L 172.858406 119.294681 
L 173.31482 119.888096 
L 169.836684 119.540978 
L 172.931523 117.916203 
L 172.73064 118.637384 
L 173.059289 118.573501 
L 173.187054 119.230798 
" clip-path="url(#p7e4609d192)" style="fill: #0000ff"/>
    <path d="M 239.291102 119.487795 
L 238.705457 119.812423 
L 239.940359 120.659086 
L 233.11002 122.148435 
L 237.992588 117.145214 
L 238.0562 118.641133 
L 238.641845 118.316504 
L 239.291102 119.487795 
" clip-path="url(#p7e4609d192)" style="fill: #0000ff"/>
    <path d="M 305.301751 119.579297 
L 304.624604 120.071273 
L 306.285704 120.933591 
L 298.038303 123.821912 
L 303.333846 116.870708 
L 303.640652 118.716979 
L 304.317799 118.225002 
L 305.301751 119.579297 
" clip-path="url(#p7e4609d192)" style="fill: #0000ff"/>
    <path d="M 371.124614 119.788982 
L 370.237782 120.260519 
L 372.067689 121.562647 
L 361.784751 123.617522 
L 369.238465 116.241652 
L 369.294707 118.486854 
L 370.18154 118.015317 
L 371.124614 119.788982 
" clip-path="url(#p7e4609d192)" style="fill: #0000ff"/>
    <path d="M 436.954238 119.980797 
L 435.87559 120.438656 
L 437.869955 122.138092 
L 425.709903 123.480737 
L 435.122803 115.666207 
L 434.959873 118.281361 
L 436.03852 117.823502 
L 436.954238 119.980797 
" clip-path="url(#p7e4609d192)" style="fill: #0000ff"/>
    <path d="M 502.948359 120.000235 
L 499.654104 121.82627 
L 501.969546 123.413762 
L 489.16266 126.206291 
L 498.317475 116.825251 
L 498.436747 119.6301 
L 501.731002 117.804065 
L 502.948359 120.000235 
" clip-path="url(#p7e4609d192)" style="fill: #0000ff"/>
    <path d="M 568.973094 119.877856 
L 563.444089 124.355156 
L 566.00002 125.516458 
L 553.872617 130.490455 
L 561.259349 119.662218 
L 561.863866 122.403743 
L 567.392871 117.926443 
L 568.973094 119.877856 
" clip-path="url(#p7e4609d192)" style="fill: #0000ff"/>
    <path d="M 634.866378 119.835168 
L 629.579274 124.595698 
L 632.192479 125.621641 
L 620.342016 131.223521 
L 627.151918 120.023531 
L 627.899087 122.729661 
L 633.186191 117.969131 
L 634.866378 119.835168 
" clip-path="url(#p7e4609d192)" style="fill: #0000ff"/>
    <path d="M 700.772717 119.774293 
L 695.83057 124.892036 
L 698.508976 125.733192 
L 687.078147 132.148073 
L 693.090189 120.500331 
L 694.024308 123.147749 
L 698.966455 118.030006 
L 700.772717 119.774293 
" clip-path="url(#p7e4609d192)" style="fill: #0000ff"/>
    <path d="M 766.777612 119.567463 
L 763.894587 124.181269 
L 766.689349 124.447172 
L 756.842039 133.098475 
L 760.301003 120.45529 
L 761.765138 122.850642 
L 764.648164 118.236836 
L 766.777612 119.567463 
" clip-path="url(#p7e4609d192)" style="fill: #0000ff"/>
    <path d="M 832.711884 119.392713 
L 830.586111 124.400719 
L 833.388062 124.226151 
L 825.015351 134.311401 
L 826.453898 121.282774 
L 828.274723 123.419593 
L 830.400496 118.411587 
L 832.711884 119.392713 
" clip-path="url(#p7e4609d192)" style="fill: #0000ff"/>
    <path d="M 41.50656 39.733172 
L 40.840628 39.803164 
L 41.646545 41.065035 
L 34.777249 39.767162 
L 41.226591 37.069444 
L 40.700644 38.4713 
L 41.366576 38.401308 
L 41.50656 39.733172 
" clip-path="url(#p7e4609d192)" style="fill: #0000ff"/>
    <path d="M 107.654305 39.622363 
L 107.099182 39.996799 
L 108.403177 40.73261 
L 101.728634 42.811595 
L 106.156563 37.401869 
L 106.350311 38.886552 
L 106.905434 38.512116 
L 107.654305 39.622363 
" clip-path="url(#p7e4609d192)" style="fill: #0000ff"/>
    <path d="M 173.516753 39.608957 
L 172.975035 40.002538 
L 174.303915 40.692393 
L 167.705994 43.00305 
L 171.942429 37.442086 
L 172.187873 38.919103 
L 172.729591 38.525522 
L 173.516753 39.608957 
" clip-path="url(#p7e4609d192)" style="fill: #0000ff"/>
    <path d="M 239.676691 39.777458 
L 238.966473 40.487676 
L 241.097128 41.197894 
L 231.864293 46.16942 
L 236.835819 36.936586 
L 237.546037 39.06724 
L 238.256255 38.357022 
L 239.676691 39.777458 
" clip-path="url(#p7e4609d192)" style="fill: #0000ff"/>
    <path d="M 305.844413 39.617366 
L 305.294286 40.652004 
L 307.913689 40.71762 
L 299.308507 49.41362 
L 301.705861 37.416859 
L 303.22501 39.551751 
L 303.775137 38.517113 
L 305.844413 39.617366 
" clip-path="url(#p7e4609d192)" style="fill: #0000ff"/>
    <path d="M 371.522913 39.56944 
L 371.020713 40.439276 
L 373.262585 40.57384 
L 365.631077 47.765599 
L 368.043569 37.56064 
L 369.281041 39.434876 
L 369.783241 38.56504 
L 371.522913 39.56944 
" clip-path="url(#p7e4609d192)" style="fill: #0000ff"/>
    <path d="M 435.240879 39.06724 
L 435.868629 40.154535 
L 437.124129 40.154535 
L 437.751879 39.06724 
L 437.124129 37.979945 
L 435.868629 37.979945 
L 435.240879 39.06724 
L 435.868629 40.154535 
" clip-path="url(#p7e4609d192)" style="fill: #0000ff"/>
    <path d="M 501.084181 39.06724 
L 501.711931 40.154535 
L 502.967431 40.154535 
L 503.595181 39.06724 
L 502.967431 37.979945 
L 501.711931 37.979945 
L 501.084181 39.06724 
L 501.711931 40.154535 
" clip-path="url(#p7e4609d192)" style="fill: #0000ff"/>
    <path d="M 569.198703 39.805204 
L 564.032953 46.91525 
L 566.802359 47.375458 
L 556.375552 55.318773 
L 560.708034 42.947672 
L 562.001511 45.439321 
L 567.167262 38.329275 
L 569.198703 39.805204 
" clip-path="url(#p7e4609d192)" style="fill: #0000ff"/>
    <path d="M 635.001991 39.857351 
L 628.417726 47.988241 
L 631.159252 48.592758 
L 620.331014 55.97949 
L 625.305011 43.852087 
L 626.466313 46.408018 
L 633.050578 38.277128 
L 635.001991 39.857351 
" clip-path="url(#p7e4609d192)" style="fill: #0000ff"/>
    <path d="M 700.845293 39.857351 
L 695.314511 46.687299 
L 698.056036 47.291815 
L 687.227798 54.678548 
L 692.201795 42.551145 
L 693.363097 45.107075 
L 698.893879 38.277128 
L 700.845293 39.857351 
" clip-path="url(#p7e4609d192)" style="fill: #0000ff"/>
    <path d="M 766.688595 39.857351 
L 760.10433 47.988241 
L 762.845855 48.592758 
L 752.017618 55.97949 
L 756.991615 43.852087 
L 758.152917 46.408018 
L 764.737181 38.277128 
L 766.688595 39.857351 
" clip-path="url(#p7e4609d192)" style="fill: #0000ff"/>
    <path d="M 832.531897 39.857351 
L 823.840667 50.590126 
L 826.582193 51.194642 
L 815.753955 58.581375 
L 820.727952 46.453972 
L 821.889254 49.009902 
L 830.580483 38.277128 
L 832.531897 39.857351 
" clip-path="url(#p7e4609d192)" style="fill: #0000ff"/>
   </g>
   <g id="matplotlib.axis_1"/>
   <g id="matplotlib.axis_2"/>
   <g id="LineCollection_1">
    <path d="M 801.149741 411.16691 
L 788.318392 382.043785 
L 795.781222 372.517064 
L 789.8415 368.019635 
L 787.647259 380.212226 
L 747.511941 336.197378 
L 637.844103 336.58533 
L 603.519906 357.588812 
L 580.649164 336.672619 
L 533.694017 330.882143 
L 454.902282 295.674875 
L 432.224441 294.650866 
L 384.85938 262.503581 
L 362.82454 215.680384 
L 359.75421 201.25306 
L 365.545238 202.123281 
L 350.241814 183.816484 
L 334.628946 181.005484 
L 306.039515 154.434739 
L 295.679161 155.553875 
L 260.579344 120.99582 
L 204.272551 93.864265 
L 147.620145 93.294311 
L 126.328774 106.689063 
L 82.902095 92.271301 
L 38.289882 98.706195 
L 7.2 82.583356 
" clip-path="url(#p7e4609d192)" style="fill: none; stroke: #000000; stroke-width: 0.5"/>
    <path d="M 189.744747 364.19071 
L 187.900138 364.045303 
L 155.22765 365.247327 
L 121.136541 383.211492 
L 71.199477 382.857791 
L 40.367579 370.016385 
L 34.35552 351.62605 
L 40.118416 337.429118 
L 11.938897 319.59523 
L 22.415795 307.83046 
L 75.117764 324.664204 
L 102.115768 319.507913 
L 140.932934 343.771652 
L 166.158667 347.543845 
L 176.796315 345.851724 
L 192.421239 323.218746 
L 205.297334 321.113547 
L 227.581337 334.340015 
L 208.620845 358.917012 
L 189.744747 364.19071 
" clip-path="url(#p7e4609d192)" style="fill: none; stroke: #000000; stroke-width: 0.5"/>
   </g>
   <g id="LineCollection_2"/>
   <g id="LineCollection_3"/>
   <g id="line2d_1">
    <path d="M 502.338918 411.16691 
L 502.338918 22.318125 
L 502.338918 22.318125 
" clip-path="url(#p7e4609d192)" style="fill: none; stroke-dasharray: 1,1; stroke-dashoffset: 0; stroke: #000000"/>
   </g>
   <g id="line2d_2">
    <defs>
     <path id="me95c2dfa35" d="M 0 5 
C 1.326016 5 2.597899 4.473168 3.535534 3.535534 
C 4.473168 2.597899 5 1.326016 5 0 
C 5 -1.326016 4.473168 -2.597899 3.535534 -3.535534 
C 2.597899 -4.473168 1.326016 -5 0 -5 
C -1.326016 -5 -2.597899 -4.473168 -3.535534 -3.535534 
C -4.473168 -2.597899 -5 -1.326016 -5 0 
C -5 1.326016 -4.473168 2.597899 -3.535534 3.535534 
C -2.597899 4.473168 -1.326016 5 0 5 
z
" style="stroke: #ff0000"/>
    </defs>
    <g clip-path="url(#p7e4609d192)">
     <use xlink:href="#me95c2dfa35" x="791.525359" y="347.655356" style="fill: #ff0000; stroke: #ff0000"/>
    </g>
   </g>
   <g id="line2d_3">
    <defs>
     <path id="me66aeeb041" d="M 0 5 
C 1.326016 5 2.597899 4.473168 3.535534 3.535534 
C 4.473168 2.597899 5 1.326016 5 0 
C 5 -1.326016 4.473168 -2.597899 3.535534 -3.535534 
C 2.597899 -4.473168 1.326016 -5 0 -5 
C -1.326016 -5 -2.597899 -4.473168 -3.535534 -3.535534 
C -4.473168 -2.597899 -5 -1.326016 -5 0 
C -5 1.326016 -4.473168 2.597899 -3.535534 3.535534 
C -2.597899 4.473168 -1.326016 5 0 5 
z
" style="stroke: #008000"/>
    </defs>
    <g clip-path="url(#p7e4609d192)">
     <use xlink:href="#me66aeeb041" x="59.874641" y="86.215653" style="fill: #008000; stroke: #008000"/>
    </g>
   </g>
   <g id="line2d_4">
    <path d="M 791.525359 347.655356 
L 59.874641 86.215653 
" clip-path="url(#p7e4609d192)" style="fill: none; stroke: #000000; stroke-width: 2; stroke-linecap: square"/>
   </g>
   <g id="patch_3">
    <path d="M 7.2 411.16691 
L 7.2 22.318125 
" style="fill: none; stroke: #000000; stroke-width: 0.8; stroke-linejoin: miter; stroke-linecap: square"/>
   </g>
   <g id="patch_4">
    <path d="M 844.2 411.16691 
L 844.2 22.318125 
" style="fill: none; stroke: #000000; stroke-width: 0.8; stroke-linejoin: miter; stroke-linecap: square"/>
   </g>
   <g id="patch_5">
    <path d="M 7.2 411.16691 
L 844.2 411.16691 
" style="fill: none; stroke: #000000; stroke-width: 0.8; stroke-linejoin: miter; stroke-linecap: square"/>
   </g>
   <g id="patch_6">
    <path d="M 7.2 22.318125 
L 844.2 22.318125 
" style="fill: none; stroke: #000000; stroke-width: 0.8; stroke-linejoin: miter; stroke-linecap: square"/>
   </g>
   <g id="text_1">
    <text style="font: 10px 'DejaVu Sans', 'Bitstream Vera Sans', 'Computer Modern Sans Serif', 'Lucida Grande', 'Verdana', 'Geneva', 'Lucid', 'Arial', 'Helvetica', 'Avant Garde', sans-serif; text-anchor: middle" x="502.704" y="427.135348" transform="rotate(-0 502.704 427.135348)">119°W</text>
   </g>
   <g id="text_2">
    <text style="font: 12px 'DejaVu Sans', 'Bitstream Vera Sans', 'Computer Modern Sans Serif', 'Lucida Grande', 'Verdana', 'Geneva', 'Lucid', 'Arial', 'Helvetica', 'Avant Garde', sans-serif; text-anchor: end" x="791.525359" y="345.159731" transform="rotate(-0 791.525359 345.159731)">KSMO</text>
   </g>
   <g id="text_3">
    <text style="font: 12px 'DejaVu Sans', 'Bitstream Vera Sans', 'Computer Modern Sans Serif', 'Lucida Grande', 'Verdana', 'Geneva', 'Lucid', 'Arial', 'Helvetica', 'Avant Garde', sans-serif; text-anchor: end" x="59.874641" y="83.720028" transform="rotate(-0 59.874641 83.720028)">KSBA</text>
   </g>
   <g id="text_4">
    <text style="font: 12px 'DejaVu Sans', 'Bitstream Vera Sans', 'Computer Modern Sans Serif', 'Lucida Grande', 'Verdana', 'Geneva', 'Lucid', 'Arial', 'Helvetica', 'Avant Garde', sans-serif; text-anchor: middle" x="425.7" y="16.318125" transform="rotate(-0 425.7 16.318125)">Wind Data for Route: KSMO to KSBA (FL030)</text>
   </g>
  </g>
 </g>
 <defs>
  <clipPath id="p7e4609d192">
   <rect x="7.2" y="22.318125" width="837" height="388.848785"/>
  </clipPath>
 </defs>
</svg>
